<svg width="104" height="39" viewBox="0 0 104 39" fill="none" xmlns="http://www.w3.org/2000/svg">
<path d="M15.4 13H19.36V23.86H26.04V27H15.4V13Z" fill="white"/>
<circle cx="19.5" cy="19.5" r="17" stroke="white" stroke-width="5"/>
<path d="M51.3438 29V11.8672H53.3359V27.2188H60.9414V29H51.3438ZM74.6641 22.5547C74.6641 23.6094 74.5273 24.5508 74.2539 25.3789C73.9805 26.207 73.5859 26.9062 73.0703 27.4766C72.5547 28.0469 71.9297 28.4844 71.1953 28.7891C70.4688 29.0859 69.6445 29.2344 68.7227 29.2344C67.8633 29.2344 67.0742 29.0859 66.3555 28.7891C65.6445 28.4844 65.0273 28.0469 64.5039 27.4766C63.9883 26.9062 63.5859 26.207 63.2969 25.3789C63.0156 24.5508 62.875 23.6094 62.875 22.5547C62.875 21.1484 63.1133 19.9531 63.5898 18.9688C64.0664 17.9766 64.7461 17.2227 65.6289 16.707C66.5195 16.1836 67.5781 15.9219 68.8047 15.9219C69.9766 15.9219 71 16.1836 71.875 16.707C72.7578 17.2305 73.4414 17.9883 73.9258 18.9805C74.418 19.9648 74.6641 21.1562 74.6641 22.5547ZM64.8906 22.5547C64.8906 23.5859 65.0273 24.4805 65.3008 25.2383C65.5742 25.9961 65.9961 26.582 66.5664 26.9961C67.1367 27.4102 67.8711 27.6172 68.7695 27.6172C69.6602 27.6172 70.3906 27.4102 70.9609 26.9961C71.5391 26.582 71.9648 25.9961 72.2383 25.2383C72.5117 24.4805 72.6484 23.5859 72.6484 22.5547C72.6484 21.5312 72.5117 20.6484 72.2383 19.9062C71.9648 19.1562 71.543 18.5781 70.9727 18.1719C70.4023 17.7656 69.6641 17.5625 68.7578 17.5625C67.4219 17.5625 66.4414 18.0039 65.8164 18.8867C65.1992 19.7695 64.8906 20.9922 64.8906 22.5547ZM81.6133 34.7656C79.9258 34.7656 78.625 34.4492 77.7109 33.8164C76.7969 33.1914 76.3398 32.3125 76.3398 31.1797C76.3398 30.375 76.5938 29.6875 77.1016 29.1172C77.6172 28.5469 78.3281 28.168 79.2344 27.9805C78.8984 27.8242 78.6094 27.5898 78.3672 27.2773C78.1328 26.9648 78.0156 26.6055 78.0156 26.1992C78.0156 25.7305 78.1445 25.3203 78.4023 24.9688C78.668 24.6094 79.0703 24.2656 79.6094 23.9375C78.9375 23.6641 78.3906 23.2031 77.9688 22.5547C77.5547 21.8984 77.3477 21.1367 77.3477 20.2695C77.3477 19.3477 77.5391 18.5625 77.9219 17.9141C78.3047 17.2578 78.8594 16.7578 79.5859 16.4141C80.3125 16.0703 81.1914 15.8984 82.2227 15.8984C82.4492 15.8984 82.6758 15.9102 82.9023 15.9336C83.1367 15.9492 83.3594 15.9766 83.5703 16.0156C83.7812 16.0469 83.9648 16.0859 84.1211 16.1328H88.5273V17.3867L86.1602 17.6797C86.3945 17.9844 86.5898 18.3516 86.7461 18.7812C86.9023 19.2109 86.9805 19.6875 86.9805 20.2109C86.9805 21.4922 86.5469 22.5117 85.6797 23.2695C84.8125 24.0195 83.6211 24.3945 82.1055 24.3945C81.7461 24.3945 81.3789 24.3633 81.0039 24.3008C80.6211 24.5117 80.3281 24.7461 80.125 25.0039C79.9297 25.2617 79.832 25.5586 79.832 25.8945C79.832 26.1445 79.9062 26.3438 80.0547 26.4922C80.2109 26.6406 80.4336 26.75 80.7227 26.8203C81.0117 26.8828 81.3594 26.9141 81.7656 26.9141H84.0273C85.4258 26.9141 86.4961 27.207 87.2383 27.793C87.9883 28.3789 88.3633 29.2344 88.3633 30.3594C88.3633 31.7812 87.7852 32.8711 86.6289 33.6289C85.4727 34.3867 83.8008 34.7656 81.6133 34.7656ZM81.6719 33.2422C82.7344 33.2422 83.6133 33.1328 84.3086 32.9141C85.0117 32.7031 85.5352 32.3945 85.8789 31.9883C86.2305 31.5898 86.4062 31.1133 86.4062 30.5586C86.4062 30.043 86.2891 29.6523 86.0547 29.3867C85.8203 29.1289 85.4766 28.957 85.0234 28.8711C84.5703 28.7773 84.0156 28.7305 83.3594 28.7305H81.1328C80.5547 28.7305 80.0508 28.8203 79.6211 29C79.1914 29.1797 78.8594 29.4453 78.625 29.7969C78.3984 30.1484 78.2852 30.5859 78.2852 31.1094C78.2852 31.8047 78.5781 32.332 79.1641 32.6914C79.75 33.0586 80.5859 33.2422 81.6719 33.2422ZM82.1758 22.9766C83.1055 22.9766 83.8047 22.7422 84.2734 22.2734C84.7422 21.8047 84.9766 21.1211 84.9766 20.2227C84.9766 19.2617 84.7383 18.543 84.2617 18.0664C83.7852 17.582 83.082 17.3398 82.1523 17.3398C81.2617 17.3398 80.5742 17.5898 80.0898 18.0898C79.6133 18.582 79.375 19.3047 79.375 20.2578C79.375 21.1328 79.6172 21.8047 80.1016 22.2734C80.5859 22.7422 81.2773 22.9766 82.1758 22.9766ZM102.133 22.5547C102.133 23.6094 101.996 24.5508 101.723 25.3789C101.449 26.207 101.055 26.9062 100.539 27.4766C100.023 28.0469 99.3984 28.4844 98.6641 28.7891C97.9375 29.0859 97.1133 29.2344 96.1914 29.2344C95.332 29.2344 94.543 29.0859 93.8242 28.7891C93.1133 28.4844 92.4961 28.0469 91.9727 27.4766C91.457 26.9062 91.0547 26.207 90.7656 25.3789C90.4844 24.5508 90.3438 23.6094 90.3438 22.5547C90.3438 21.1484 90.582 19.9531 91.0586 18.9688C91.5352 17.9766 92.2148 17.2227 93.0977 16.707C93.9883 16.1836 95.0469 15.9219 96.2734 15.9219C97.4453 15.9219 98.4688 16.1836 99.3438 16.707C100.227 17.2305 100.91 17.9883 101.395 18.9805C101.887 19.9648 102.133 21.1562 102.133 22.5547ZM92.3594 22.5547C92.3594 23.5859 92.4961 24.4805 92.7695 25.2383C93.043 25.9961 93.4648 26.582 94.0352 26.9961C94.6055 27.4102 95.3398 27.6172 96.2383 27.6172C97.1289 27.6172 97.8594 27.4102 98.4297 26.9961C99.0078 26.582 99.4336 25.9961 99.707 25.2383C99.9805 24.4805 100.117 23.5859 100.117 22.5547C100.117 21.5312 99.9805 20.6484 99.707 19.9062C99.4336 19.1562 99.0117 18.5781 98.4414 18.1719C97.8711 17.7656 97.1328 17.5625 96.2266 17.5625C94.8906 17.5625 93.9102 18.0039 93.2852 18.8867C92.668 19.7695 92.3594 20.9922 92.3594 22.5547Z" fill="white"/>
</svg>
