<svg width="562" height="325" viewBox="0 0 562 325" fill="none" xmlns="http://www.w3.org/2000/svg">
<g clip-path="url(#clip0_0_138)">
<path d="M501.591 102.79C479.488 83.9048 452.845 -29.9837 361.564 29.3329C314.408 59.9791 234.887 3.02325 169.068 22.6958C108.621 40.7628 102.794 100.287 108.643 119.683C120.456 158.864 83.6916 164.694 49.5855 181.528C-3.9136 207.932 35.4264 300.731 85.9679 301.176C136.509 301.619 442.698 300.292 442.698 300.292C442.698 300.292 516.116 300.477 546.651 259.887C579.506 216.207 558.678 151.569 501.591 102.79Z" fill="#EBF2F9"/>
<path d="M408.454 244.49H534.282V32.7214H408.454V244.49Z" fill="#AED3FF"/>
<path d="M404.511 32.721V244.49H530.338V32.721H404.511" fill="#D2E4FF"/>
<path d="M522.066 118.314H413.077V44.5515H522.066V118.314Z" fill="#F3F9FF"/>
<path d="M520.188 226.916H461.693V187.533H520.188V226.916Z" fill="#F3F9FF"/>
<path d="M417.571 82.1986C417.571 82.1986 436.18 79.8759 447.553 90.3693C458.921 100.862 480.106 91.2992 488.636 90.3693C503.465 88.7526 515.09 93.6127 518.539 98.9547V114.98H417.571V82.1986Z" fill="#EE9849"/>
<path d="M432.775 81.4326H431.994V56.4076H432.775V81.4326Z" fill="#A6C7F9"/>
<path d="M463.377 92.1707H462.599V67.1456H463.377V92.1707Z" fill="#A6C7F9"/>
<path d="M494.953 86.5083H494.173V61.4832H494.953V86.5083Z" fill="#A6C7F9"/>
<path d="M441.482 60.2476H435.502C435.144 60.2476 434.854 59.9547 434.854 59.5967C434.854 59.239 435.144 58.9461 435.502 58.9461H441.482C441.836 58.9461 442.129 59.239 442.129 59.5967C442.129 59.9547 441.836 60.2476 441.482 60.2476Z" fill="#A6C7F9"/>
<path d="M441.482 62.5906H435.502C435.144 62.5906 434.854 62.2977 434.854 61.9394C434.854 61.5817 435.144 61.2888 435.502 61.2888H441.482C441.836 61.2888 442.129 61.5817 442.129 61.9394C442.129 62.2977 441.836 62.5906 441.482 62.5906Z" fill="#A6C7F9"/>
<path d="M471.627 73.0034H465.651C465.292 73.0034 465.001 72.7107 465.001 72.3525C465.001 71.9946 465.292 71.7019 465.651 71.7019H471.627C471.987 71.7019 472.278 71.9946 472.278 72.3525C472.278 72.7107 471.987 73.0034 471.627 73.0034Z" fill="#A6C7F9"/>
<path d="M471.627 75.2981H465.651C465.292 75.2981 465.001 75.0054 465.001 74.6471C465.001 74.2893 465.292 73.9965 465.651 73.9965H471.627C471.987 73.9965 472.278 74.2893 472.278 74.6471C472.278 75.0054 471.987 75.2981 471.627 75.2981Z" fill="#A6C7F9"/>
<path d="M503.722 63.5664H497.747C497.39 63.5664 497.096 63.2734 497.096 62.9158C497.096 62.5579 497.39 62.2649 497.747 62.2649H503.722C504.083 62.2649 504.374 62.5579 504.374 62.9158C504.374 63.2734 504.083 63.5664 503.722 63.5664Z" fill="#A6C7F9"/>
<path d="M503.722 65.8611H497.747C497.39 65.8611 497.096 65.5684 497.096 65.2102C497.096 64.8522 497.39 64.5596 497.747 64.5596H503.722C504.083 64.5596 504.374 64.8522 504.374 65.2102C504.374 65.5684 504.083 65.8611 503.722 65.8611Z" fill="#A6C7F9"/>
<path d="M500.541 137.182C500.541 131.228 505.363 126.402 511.303 126.402C517.248 126.402 522.066 131.228 522.066 137.182C522.066 143.135 517.248 147.961 511.303 147.961C505.363 147.961 500.541 143.135 500.541 137.182Z" fill="#F3F9FF"/>
<path d="M521.156 137.181C521.156 142.629 516.748 147.046 511.306 147.046C508.74 147.046 506.399 146.063 504.65 144.451L511.306 137.181V127.315C516.748 127.315 521.156 131.732 521.156 137.181" fill="#C65447"/>
<path d="M507.556 135.443H504.02C503.856 135.443 503.724 135.309 503.724 135.146C503.724 134.983 503.856 134.849 504.02 134.849H507.556C507.72 134.849 507.853 134.983 507.853 135.146C507.853 135.309 507.72 135.443 507.556 135.443Z" fill="#A6C7F9"/>
<path d="M473.826 137.181C473.826 131.228 478.645 126.402 484.586 126.402C490.531 126.402 495.35 131.228 495.35 137.181C495.35 143.134 490.531 147.96 484.586 147.96C478.645 147.96 473.826 143.134 473.826 137.181Z" fill="#F3F9FF"/>
<path d="M484.588 137.181L490.641 144.965C488.969 146.27 486.872 147.047 484.588 147.047C479.147 147.047 474.738 142.629 474.738 137.181C474.738 131.733 479.147 127.315 484.588 127.315C489.722 127.315 493.94 131.253 494.396 136.28L484.588 137.181Z" fill="#E57970"/>
<path d="M492.173 139.62H489.71C489.547 139.62 489.415 139.487 489.415 139.323C489.415 139.16 489.547 139.027 489.71 139.027H492.173C492.336 139.027 492.469 139.16 492.469 139.323C492.469 139.487 492.336 139.62 492.173 139.62Z" fill="#A6C7F9"/>
<path d="M500.541 166.87C500.541 160.917 505.363 156.092 511.303 156.092C517.248 156.092 522.066 160.917 522.066 166.87C522.066 172.824 517.248 177.651 511.303 177.651C505.363 177.651 500.541 172.824 500.541 166.87Z" fill="#F3F9FF"/>
<path d="M521.156 166.87C521.156 172.318 516.748 176.736 511.306 176.736C508.74 176.736 506.399 175.753 504.65 174.14L511.306 166.87V157.005C516.748 157.005 521.156 161.421 521.156 166.87Z" fill="#EE9849"/>
<path d="M507.556 165.133H504.02C503.856 165.133 503.724 164.999 503.724 164.835C503.724 164.672 503.856 164.538 504.02 164.538H507.556C507.72 164.538 507.853 164.672 507.853 164.835C507.853 164.999 507.72 165.133 507.556 165.133Z" fill="#A6C7F9"/>
<path d="M473.826 166.87C473.826 160.917 478.645 156.091 484.586 156.091C490.531 156.091 495.35 160.917 495.35 166.87C495.35 172.823 490.531 177.651 484.586 177.651C478.645 177.651 473.826 172.823 473.826 166.87" fill="#F3F9FF"/>
<path d="M494.396 165.97C493.94 160.943 489.722 157.006 484.588 157.006C479.147 157.006 474.738 161.422 474.738 166.87C474.738 172.319 479.147 176.737 484.588 176.737C486.872 176.737 488.969 175.96 490.641 174.654L484.588 166.87L494.396 165.97" fill="#C65447"/>
<path d="M492.173 169.309H489.71C489.547 169.309 489.415 169.177 489.415 169.013C489.415 168.85 489.547 168.716 489.71 168.716H492.173C492.336 168.716 492.469 168.85 492.469 169.013C492.469 169.177 492.336 169.309 492.173 169.309Z" fill="#A6C7F9"/>
<path d="M517.666 224.164H463.977V192.387H464.643V223.495H517.666V224.164Z" fill="#A6C7F9"/>
<path d="M480.761 212.672C474.189 207.432 467.199 212.672 467.199 212.672V221.631H516.333V198.472C502.98 198.81 487.333 217.912 480.761 212.672Z" fill="#A6C7F9"/>
<path d="M467.76 194.81H490.657C490.965 194.81 491.219 194.556 491.219 194.245C491.219 193.936 490.965 193.682 490.657 193.682H467.76C467.452 193.682 467.198 193.936 467.198 194.245C467.198 194.556 467.452 194.81 467.76 194.81Z" fill="#A6C7F9"/>
<path d="M467.76 197.563H490.657C490.965 197.563 491.219 197.309 491.219 196.999C491.219 196.69 490.965 196.436 490.657 196.436H467.76C467.452 196.436 467.198 196.69 467.198 196.999C467.198 197.309 467.452 197.563 467.76 197.563Z" fill="#A6C7F9"/>
<path d="M467.657 200.164H482.817C483.071 200.164 483.278 199.955 483.278 199.701V199.497C483.278 199.244 483.071 199.036 482.817 199.036H467.657C467.403 199.036 467.196 199.244 467.196 199.497V199.701C467.196 199.955 467.403 200.164 467.657 200.164Z" fill="#A6C7F9"/>
<path d="M383.69 259.887H211.522V-0.197209H383.69V259.887Z" fill="#D2E4FF"/>
<path d="M366.771 169.114H228.158V14.3524H366.771V169.114Z" fill="#F3F9FF"/>
<path d="M231.104 218.56C231.104 204.768 242.267 193.588 256.034 193.588C269.802 193.588 280.963 204.768 280.963 218.56C280.963 232.35 269.802 243.529 256.034 243.529C242.267 243.529 231.104 232.35 231.104 218.56Z" fill="#F3F9FF"/>
<path d="M277.106 218.56C277.106 206.902 267.672 197.45 256.035 197.45C244.395 197.45 234.961 206.902 234.961 218.56C234.961 230.216 244.395 239.667 256.035 239.667C260.843 239.667 265.271 238.056 268.816 235.341L256.035 218.56L275.726 226.087C276.617 223.749 277.106 221.211 277.106 218.56Z" fill="#EE9849"/>
<path d="M316.042 218.56C316.042 204.768 327.203 193.588 340.97 193.588C354.739 193.588 365.9 204.768 365.9 218.56C365.9 232.35 354.739 243.529 340.97 243.529C327.203 243.529 316.042 232.35 316.042 218.56" fill="#F3F9FF"/>
<path d="M340.97 197.45C329.329 197.45 319.897 206.902 319.897 218.56C319.897 224.33 322.207 229.556 325.954 233.365L340.97 218.56L360.664 226.088C361.553 223.749 362.043 221.211 362.043 218.56C362.043 206.902 352.608 197.45 340.97 197.45" fill="#EE9849"/>
<path d="M337.89 207.843H328.922C328.569 207.843 328.28 208.132 328.28 208.485C328.28 208.838 328.569 209.126 328.922 209.126H337.89C338.243 209.126 338.532 208.838 338.532 208.485C338.532 208.132 338.243 207.843 337.89 207.843Z" fill="#DD7C2C"/>
<path d="M337.89 209.876H328.922C328.569 209.876 328.28 210.163 328.28 210.517C328.28 210.87 328.569 211.159 328.922 211.159H337.89C338.243 211.159 338.532 210.87 338.532 210.517C338.532 210.163 338.243 209.876 337.89 209.876Z" fill="#DD7C2C"/>
<path d="M332.624 211.908H328.921C328.568 211.908 328.28 212.197 328.28 212.55C328.28 212.903 328.568 213.191 328.921 213.191H332.624C332.977 213.191 333.265 212.903 333.265 212.55C333.265 212.197 332.977 211.908 332.624 211.908Z" fill="#DD7C2C"/>
<path d="M252.783 207.843H243.812C243.46 207.843 243.171 208.132 243.171 208.485C243.171 208.838 243.46 209.126 243.812 209.126H252.783C253.135 209.126 253.422 208.838 253.422 208.485C253.422 208.132 253.135 207.843 252.783 207.843Z" fill="#DD7C2C"/>
<path d="M252.783 209.876H243.812C243.46 209.876 243.171 210.164 243.171 210.516C243.171 210.87 243.46 211.159 243.812 211.159H252.783C253.135 211.159 253.422 210.87 253.422 210.516C253.422 210.164 253.135 209.876 252.783 209.876Z" fill="#DD7C2C"/>
<path d="M247.516 211.907H243.813C243.461 211.907 243.171 212.197 243.171 212.55C243.171 212.903 243.461 213.19 243.813 213.19H247.516C247.868 213.19 248.158 212.903 248.158 212.55C248.158 212.197 247.868 211.907 247.516 211.907Z" fill="#DD7C2C"/>
<path d="M240.502 160.932H255.128V69.6604H240.502V160.932Z" fill="#A6C7F9"/>
<path d="M264.463 160.933H279.09V44.2214H264.463V160.933Z" fill="#A6C7F9"/>
<path d="M290.611 160.932H305.241V91.7329H290.611V160.932Z" fill="#A6C7F9"/>
<path d="M316.055 160.932H330.682V59.8018H316.055V160.932Z" fill="#A6C7F9"/>
<path d="M341.632 105.277V160.932H356.259V105.277H341.632Z" fill="#A6C7F9"/>
<path d="M329.99 46.6434H317.603C316.899 46.6434 316.319 47.2213 316.319 47.9268C316.319 48.6323 316.899 49.2102 317.603 49.2102H329.99C330.694 49.2102 331.271 48.6323 331.271 47.9268C331.271 47.2213 330.694 46.6434 329.99 46.6434Z" fill="#A6C7F9"/>
<path d="M320.424 51.3141H317.603C316.897 51.3141 316.32 51.8919 316.32 52.599C316.32 53.3037 316.897 53.8816 317.603 53.8816H320.424C321.128 53.8816 321.705 53.3037 321.705 52.599C321.705 51.8919 321.128 51.3141 320.424 51.3141Z" fill="#A6C7F9"/>
<path d="M278.943 26.7668H266.556C265.851 26.7668 265.274 27.3448 265.274 28.0505C265.274 28.7562 265.851 29.3342 266.556 29.3342H278.943C279.648 29.3342 280.225 28.7562 280.225 28.0505C280.225 27.3448 279.648 26.7668 278.943 26.7668Z" fill="#A6C7F9"/>
<path d="M269.38 31.4365H266.558C265.852 31.4365 265.275 32.0146 265.275 32.7209C265.275 33.4251 265.852 34.0032 266.558 34.0032H269.38C270.083 34.0032 270.66 33.4251 270.66 32.7209C270.66 32.0146 270.083 31.4365 269.38 31.4365Z" fill="#A6C7F9"/>
<path d="M304.117 78.1118H291.731C291.026 78.1118 290.449 78.6898 290.449 79.3936C290.449 80.0998 291.026 80.6777 291.731 80.6777H304.117C304.822 80.6777 305.399 80.0998 305.399 79.3936C305.399 78.6898 304.822 78.1118 304.117 78.1118Z" fill="#A6C7F9"/>
<path d="M294.554 82.7816H291.733C291.027 82.7816 290.452 83.3576 290.452 84.065C290.452 84.7702 291.027 85.3484 291.733 85.3484H294.554C295.258 85.3484 295.835 84.7702 295.835 84.065C295.835 83.3576 295.258 82.7816 294.554 82.7816Z" fill="#A6C7F9"/>
<path d="M355.138 91.733H342.751C342.045 91.733 341.47 92.3106 341.47 93.0168C341.47 93.7227 342.045 94.3003 342.751 94.3003H355.138C355.844 94.3003 356.419 93.7227 356.419 93.0168C356.419 92.3106 355.844 91.733 355.138 91.733Z" fill="#A6C7F9"/>
<path d="M345.57 96.4044H342.751C342.046 96.4044 341.469 96.982 341.469 97.6881C341.469 98.3941 342.046 98.9719 342.751 98.9719H345.57C346.275 98.9719 346.852 98.3941 346.852 97.6881C346.852 96.982 346.275 96.4044 345.57 96.4044Z" fill="#A6C7F9"/>
<path d="M62.46 98.3899V169.348H188.289V98.3899H62.46" fill="#AED3FF"/>
<path d="M66.5518 98.3899V169.348H192.381V98.3899H66.5518" fill="#D2E4FF"/>
<path d="M100.965 109.476C88.3999 109.476 78.2139 119.679 78.2139 132.266C78.2139 144.852 88.3999 155.055 100.965 155.055C113.53 155.055 123.716 144.852 123.716 132.266C123.716 119.679 113.53 109.476 100.965 109.476Z" fill="#F3F9FF"/>
<path d="M178.237 119.535H140.547C139.18 119.535 138.063 120.654 138.063 122.023C138.063 123.391 139.18 124.51 140.547 124.51H178.237C179.603 124.51 180.72 123.391 180.72 122.023C180.72 120.654 179.603 119.535 178.237 119.535Z" fill="#F3F9FF"/>
<path d="M178.237 129.779H140.547C139.18 129.779 138.063 130.898 138.063 132.266C138.063 133.633 139.18 134.752 140.547 134.752H178.237C179.603 134.752 180.72 133.633 180.72 132.266C180.72 130.898 179.603 129.779 178.237 129.779Z" fill="#F3F9FF"/>
<path d="M178.237 140.021H140.547C139.18 140.021 138.063 141.142 138.063 142.51C138.063 143.878 139.18 144.997 140.547 144.997H178.237C179.603 144.997 180.72 143.878 180.72 142.51C180.72 141.142 179.603 140.021 178.237 140.021Z" fill="#F3F9FF"/>
<path d="M80.1348 131.936H100.966V111.07C89.4616 111.07 80.1348 120.412 80.1348 131.936" fill="#A8D29F"/>
<path d="M121.796 132.606H80.1348C80.1348 144.13 89.4614 153.472 100.965 153.472C100.965 153.472 100.966 153.472 100.966 153.472C112.469 153.472 121.796 144.13 121.796 132.606Z" fill="#F1A34F"/>
<path d="M97.3672 121.208H86.062C85.4189 121.208 84.8925 121.734 84.8925 122.38C84.8925 123.024 85.4189 123.55 86.062 123.55H97.3672C98.0105 123.55 98.5367 123.024 98.5367 122.38C98.5367 121.734 98.0105 121.208 97.3672 121.208Z" fill="#82B378"/>
<path d="M88.6368 125.47H86.062C85.4189 125.47 84.8925 125.998 84.8925 126.642C84.8925 127.287 85.4189 127.812 86.062 127.812H88.6368C89.28 127.812 89.8063 127.287 89.8063 126.642C89.8063 125.998 89.28 125.47 88.6368 125.47Z" fill="#82B378"/>
<path d="M114.151 137.707H102.846C102.203 137.707 101.677 138.235 101.677 138.879C101.677 139.523 102.203 140.051 102.846 140.051H114.151C114.795 140.051 115.321 139.523 115.321 138.879C115.321 138.235 114.795 137.707 114.151 137.707Z" fill="#DD8936"/>
<path d="M105.421 141.97H102.846C102.203 141.97 101.677 142.497 101.677 143.142C101.677 143.786 102.203 144.313 102.846 144.313H105.421C106.064 144.313 106.591 143.786 106.591 143.142C106.591 142.497 106.064 141.97 105.421 141.97Z" fill="#DD8936"/>
<path d="M53.5977 182.054V254.622H179.426V182.054H53.5977Z" fill="#AED3FF"/>
<path d="M57.6895 182.054V254.622H183.519V182.054H57.6895Z" fill="#D2E4FF"/>
<path d="M69.3496 216.098C69.3496 203.512 79.5358 193.308 92.1011 193.308C104.666 193.308 114.852 203.512 114.852 216.098C114.852 228.684 104.666 238.887 92.1011 238.887C79.5358 238.887 69.3496 228.684 69.3496 216.098Z" fill="#F3F9FF"/>
<path d="M131.682 208.342H169.372C170.738 208.342 171.856 207.222 171.856 205.854C171.856 204.486 170.738 203.367 169.372 203.367H131.682C130.316 203.367 129.199 204.486 129.199 205.854C129.199 207.222 130.316 208.342 131.682 208.342Z" fill="#F3F9FF"/>
<path d="M169.372 213.609H131.682C130.316 213.609 129.199 214.73 129.199 216.098C129.199 217.466 130.316 218.585 131.682 218.585H169.372C170.738 218.585 171.856 217.466 171.856 216.098C171.856 214.73 170.738 213.609 169.372 213.609Z" fill="#F3F9FF"/>
<path d="M169.372 223.853H131.682C130.316 223.853 129.199 224.972 129.199 226.34C129.199 227.708 130.316 228.829 131.682 228.829H169.372C170.738 228.829 171.856 227.708 171.856 226.34C171.856 224.972 170.738 223.853 169.372 223.853Z" fill="#F3F9FF"/>
<path d="M92.1013 216.467L71.2724 216.202C71.2705 216.29 71.2705 216.38 71.2705 216.467C71.2705 227.99 80.5973 237.332 92.1013 237.332C96.2141 237.332 100.048 236.137 103.278 234.076L92.1013 216.467" fill="#F1A34F"/>
<path d="M92.8694 223.038H81.564C80.9209 223.038 80.3945 223.564 80.3945 224.21C80.3945 224.854 80.9209 225.38 81.564 225.38H92.8694C93.5126 225.38 94.0389 224.854 94.0389 224.21C94.0389 223.564 93.5126 223.038 92.8694 223.038Z" fill="#DD8936"/>
<path d="M84.1389 227.3H81.564C80.9209 227.3 80.3945 227.828 80.3945 228.472C80.3945 229.116 80.9209 229.644 81.564 229.644H84.1389C84.7822 229.644 85.3083 229.116 85.3083 228.472C85.3083 227.828 84.7822 227.3 84.1389 227.3Z" fill="#DD8936"/>
<path d="M53.5977 21.0042V86.7625H179.428V21.0042H53.5977Z" fill="#AED3FF"/>
<path d="M57.6895 21.0042V86.7625H183.519V21.0042H57.6895Z" fill="#D2E4FF"/>
<path d="M69.3496 54.8502C69.3496 42.2628 79.5356 32.0603 92.1008 32.0603C104.666 32.0603 114.852 42.2628 114.852 54.8502C114.852 67.4359 104.666 77.6384 92.1008 77.6384C79.5356 77.6384 69.3496 67.4359 69.3496 54.8502" fill="#F3F9FF"/>
<path d="M92.1023 33.9851C80.5981 33.9851 71.2715 43.3261 71.2715 54.8489C71.2715 62.7438 75.6492 69.6139 82.1049 73.1578C85.4419 66.9662 92.1023 54.8489 92.1023 54.8489L101.965 73.2292C108.495 69.7067 112.931 62.7973 112.931 54.8489C112.931 43.3261 103.606 33.9851 92.1023 33.9851Z" fill="#A8D29F"/>
<path d="M169.372 42.1182H131.682C130.316 42.1182 129.199 43.2372 129.199 44.6051C129.199 45.9747 130.316 47.0938 131.682 47.0938H169.372C170.738 47.0938 171.856 45.9747 171.856 44.6051C171.856 43.2372 170.738 42.1182 169.372 42.1182Z" fill="#F3F9FF"/>
<path d="M169.372 52.3622H131.682C130.316 52.3622 129.199 53.4812 129.199 54.8491C129.199 56.2169 130.316 57.3359 131.682 57.3359H169.372C170.738 57.3359 171.856 56.2169 171.856 54.8491C171.856 53.4812 170.738 52.3622 169.372 52.3622Z" fill="#F3F9FF"/>
<path d="M169.372 62.6045H131.682C130.316 62.6045 129.199 63.7235 129.199 65.0914C129.199 66.4611 130.316 67.5801 131.682 67.5801H169.372C170.738 67.5801 171.856 66.4611 171.856 65.0914C171.856 63.7235 170.738 62.6045 169.372 62.6045Z" fill="#F3F9FF"/>
<path d="M92.8693 44.8839H81.564C80.9209 44.8839 80.3946 45.4117 80.3946 46.0559C80.3946 46.7001 80.9209 47.2261 81.564 47.2261H92.8693C93.5124 47.2261 94.0387 46.7001 94.0387 46.0559C94.0387 45.4117 93.5124 44.8839 92.8693 44.8839Z" fill="#82B378"/>
<path d="M84.1389 49.1463H81.564C80.9209 49.1463 80.3946 49.6741 80.3946 50.3183C80.3946 50.9625 80.9209 51.4902 81.564 51.4902H84.1389C84.7822 51.4902 85.3083 50.9625 85.3083 50.3183C85.3083 49.6741 84.7822 49.1463 84.1389 49.1463Z" fill="#82B378"/>
<path d="M212.703 134.568C212.703 134.568 227.381 149.747 228.086 155.469C228.791 161.193 221.103 170.145 221.103 170.145L212.703 134.568Z" fill="#E58638"/>
<path d="M206.429 292.017C206.429 292.017 205.929 300.087 204.371 300.202C204.163 300.218 196.467 300.218 196.467 300.218L186.642 300.161C186.642 300.161 186.705 297.789 189.577 297.288C192.449 296.786 197.258 294.764 198.997 290.962C200.828 286.962 206.429 292.017 206.429 292.017Z" fill="#163560"/>
<path d="M228.314 292.017C228.314 292.017 227.815 300.087 226.257 300.202C226.048 300.218 218.351 300.218 218.351 300.218L208.496 300.182C208.496 300.182 208.592 297.789 211.463 297.288C214.334 296.786 219.143 294.764 220.882 290.962C222.713 286.962 228.314 292.017 228.314 292.017" fill="#163560"/>
<path d="M195.548 205.491C195.548 205.491 198.12 221.955 207.704 251.18C217.292 280.403 218.598 293.059 218.598 293.059C218.598 293.059 221.191 293.436 223.93 293.436C225.662 293.436 228.88 292.771 228.88 292.771C228.88 292.771 228.969 260.831 224.552 246.136C220.134 231.441 223.598 193.156 223.598 193.156L195.548 205.491" fill="#163560"/>
<path d="M190.543 194.058C190.543 194.058 190.18 218.865 194.465 249.327C198.749 279.788 197.297 292.718 197.297 292.718C197.297 292.718 200.824 293.35 202.065 293.392C203.39 293.437 207.561 293.059 207.561 293.059C207.561 293.059 213.694 262.588 211.936 247.342C210.177 232.096 220.334 195.024 220.334 195.024L190.543 194.058" fill="#1C468A"/>
<path d="M210.412 136.002L205.571 139.594L198.574 138.118C198.671 137.479 199.133 134.83 199.554 132.431C199.579 132.29 199.605 132.149 199.628 132.01C199.989 129.969 200.299 128.215 200.299 128.215L206.835 124.953L209.27 123.737C209.264 123.779 209.081 126.001 209.057 126.326C208.598 132.087 210.412 136.002 210.412 136.002" fill="#FFB27D"/>
<path d="M199.065 134.189C199.218 134.126 208.581 131.358 209.598 131.694C210.616 132.031 211.217 134.002 211.217 134.002L195.903 137.47C195.903 137.47 197.109 135.015 199.065 134.189" fill="#E58638"/>
<path d="M224.277 197.121C222.691 204.373 196.276 205.233 189.468 198.649C188.693 197.899 188.656 194.408 188.948 189.701C189.519 180.505 191.353 166.671 191.425 159.602C191.459 156.188 191.928 152.697 192.551 149.527C193.878 142.771 195.901 137.469 195.901 137.469C195.901 137.469 208.803 133.291 211.217 134.002C222.848 137.425 225.864 189.868 224.277 197.121" fill="#EE9849"/>
<path d="M188.948 189.7C189.519 180.505 191.353 166.671 191.426 159.602C191.459 156.188 191.928 152.697 192.552 149.527L200.313 148.156C200.313 148.156 207.901 179.2 188.948 189.7Z" fill="#E58638"/>
<path d="M193.151 176.881C193.151 176.881 193.679 178.149 192.567 178.999C191.457 179.85 190.737 181.227 190.99 182.234C191.246 183.241 193.683 184.884 194.527 184.619C195.373 184.354 197.09 183.027 196.905 182.496C196.72 181.966 198.063 177.836 196.003 176.246C193.944 174.656 193.151 176.881 193.151 176.881Z" fill="#FFB27D"/>
<path d="M201.829 135.608C201.829 135.608 194.26 137.027 188.228 145.93C182.198 154.833 178.23 161.451 179.34 164.66C180.452 167.869 190.579 178.997 192.325 178.997C194.071 178.997 196.889 177.725 197.047 174.864C197.047 174.864 189.916 164.159 191.321 162.556C191.921 161.872 200.578 154.833 201.814 158.011C203.857 163.273 201.829 135.608 201.829 135.608Z" fill="#EE9849"/>
<path d="M208.565 126.429C207.13 129.179 201.784 131.558 199.554 132.431C199.578 132.29 199.605 132.149 199.628 132.01C199.989 129.969 200.299 128.215 200.299 128.215L206.834 124.953C208.278 124.93 209.157 125.297 208.565 126.429" fill="#FCA56B"/>
<path d="M198.196 128.365C198.196 128.365 207.868 131.387 209.655 125.324C211.439 119.261 213.892 115.569 207.792 113.382C201.692 111.197 199.805 113.154 198.718 115.032C197.629 116.91 195.726 127.422 198.196 128.365" fill="#FFB27D"/>
<path d="M199.096 114.448C199.096 114.448 199.712 121.503 201.17 121.197C202.625 120.89 203.947 120.662 203.733 122.789C203.52 124.916 201.501 127.371 205.989 127.749C210.478 128.125 216.931 116.529 215.698 114.333C212.14 107.999 193.954 106.719 199.096 114.448Z" fill="#163560"/>
<path d="M24.9502 278.388L27.8947 290.812L32.3056 290.787L32.4674 278.388H24.9502Z" fill="#FFB27D"/>
<path d="M62.0518 278.918L70.4302 290.812L73.6958 286.611L68.653 277.283L62.0518 278.918Z" fill="#FFB27D"/>
<path d="M40.2692 115.138C38.7466 114.271 36.9216 114.178 35.6454 114.252C35.9742 113.913 36.6205 113.79 36.6205 113.79C35.829 113.671 34.0624 114.457 34.0624 114.457C23.0532 110.208 21.3228 126.446 21.5542 130.218C21.7838 133.99 17.8546 135.222 12.1268 138.194C1.19824 143.865 0.238281 151.46 0.238281 151.46C0.323388 151.509 0.412194 151.568 0.506816 151.633C1.049 150.712 2.16525 148.984 3.10653 148.724C3.07094 148.807 1.99415 151.102 1.59241 152.418C4.81659 154.875 10.8479 160.318 15.0514 164.177C15.0327 163.423 15.0627 162.352 15.3377 161.787L15.8572 164.92C18.1064 166.99 19.6575 168.448 19.6575 168.448C19.3797 165.4 33.4217 149.312 40.7477 144.493C42.5311 141.864 43.1651 137.218 43.2125 136.853C42.9046 140.536 42.2754 142.603 41.7131 143.766C47.9168 138.046 44.3051 117.436 40.2692 115.138" fill="#163560"/>
<path d="M40.3135 144.734C40.3501 144.749 36.7762 146.61 34.088 145.872C31.5593 145.182 29.9071 141.897 29.9419 141.89C31.0129 141.677 31.3216 140.203 31.2989 133.868L31.7829 133.964L39.9228 135.579C39.9228 135.579 39.7377 138.145 39.7322 140.563C39.7267 142.593 39.8495 144.516 40.3135 144.734" fill="#FFB27D"/>
<path d="M31.1084 117.798C31.1084 117.798 35.1239 113.516 40.1651 117.579C40.1651 117.579 37.2311 117.071 31.1084 117.798Z" fill="#E37970"/>
<path d="M39.9231 135.578C39.9231 135.578 39.7379 138.145 39.7325 140.563C35.1774 140.434 32.7698 136.272 31.7832 133.963L39.9231 135.578Z" fill="#D68D5D"/>
<path d="M30.9427 133.077C30.9427 133.077 28.5557 129.299 27.9829 126.069C27.5737 123.762 28.7465 115.212 37.3229 116.444C37.3229 116.444 39.8139 116.689 42.1553 118.274C44.0174 119.535 46.7047 122.253 43.7001 129.713L42.9195 132.234L30.9427 133.077Z" fill="#163560"/>
<path d="M72.3665 283.351L68.0518 283.484L63.3811 283.627C63.3811 283.627 52.5934 271.596 46.5422 252.31C46.4009 251.862 46.2523 251.407 46.0946 250.948C42.7831 241.275 35.9176 229.134 32.2996 218.145C31.7238 216.394 31.2067 214.747 30.7427 213.187C30.5943 212.688 30.4493 212.197 30.3119 211.713C27.6456 202.435 26.8736 196.342 26.1621 189.833L52.2872 190.041C52.2872 190.041 56.5048 234.493 72.3665 283.351" fill="#80BDCC"/>
<path d="M48.6303 175.005C48.5644 187.457 50.4538 192.8 50.4538 192.8C50.4538 192.8 39.2682 198.494 25.9738 194.302C25.8172 194.252 14.9658 191.772 14.9658 191.772C15.1885 191.268 17.167 182.877 17.3837 182.414C20.1904 176.376 22.3218 173.729 22.6548 171.872C23.2723 168.407 23.2858 164.821 22.978 161.439C22.1669 152.487 19.7543 145.055 19.7543 145.055C23.3767 144.23 26.8628 142.818 30.633 141.401C31.5003 142.483 34.0575 143.576 36.3572 143.524C39.0053 143.466 39.8323 142.344 39.7352 141.08C42.5572 142.654 44.8005 144.149 44.8005 144.149C47.199 148.323 52.0633 152.376 52.4155 158.778C52.5027 160.352 48.6321 174.656 48.6303 175.005" fill="#E7F1FD"/>
<path d="M26.1624 176.392C25.0203 178.012 22.8309 187.852 17.3838 189.09C20.1905 182.075 22.3219 179.001 22.6549 176.844C23.2723 172.82 23.2859 168.654 22.9781 164.726C24.8016 161.524 26.1624 159.33 26.1624 159.33C26.3057 158.811 29.0603 150.281 29.9429 157.906C30.8237 165.534 27.4381 174.581 26.1624 176.392" fill="#5F9AA8"/>
<path d="M41.4445 137.868C41.4445 137.868 30.6675 138.046 30.6601 131.321C30.6527 124.597 29.2567 120.091 36.1373 119.693C43.0178 119.295 44.3575 121.859 44.905 124.104C45.4525 126.348 44.2478 137.649 41.4445 137.868Z" fill="#FFB27D"/>
<path d="M44.5841 120.364C42.9209 118.345 41.6633 118.785 40.9572 119.392C38.6284 115.906 31.2676 120.947 31.2676 120.947C30.5468 125.772 27.0732 128.534 27.0732 128.534C27.0732 128.534 29.0376 129.75 33.566 128.584C37.1299 127.666 39.7161 122.585 40.6563 120.463C41.297 121.033 42.6495 122.352 43.0548 123.644C43.5918 125.356 43.8336 128.88 44.8593 128.76C44.8593 128.76 47.0823 123.398 44.5841 120.364" fill="#163560"/>
<path d="M27.7464 290.117C27.7464 290.117 28.1016 292.577 27.1849 295.21C27.1849 295.21 26.4628 298.506 29.7023 298.567C32.9418 298.627 33.7365 298.322 33.3698 296.301C33.0031 294.28 32.3053 290.787 32.3053 290.787L27.7464 290.117" fill="#FFB27D"/>
<path d="M33.6757 300.184C33.6757 300.184 33.6721 300.186 33.6651 300.191H26.9623C26.9553 300.186 26.9517 300.184 26.9517 300.184C26.5852 298.46 27.1843 295.214 27.1843 295.214C30.8529 298.726 33.1488 295.125 33.1488 295.125C33.7444 296.628 33.6757 300.184 33.6757 300.184" fill="#C45446"/>
<path d="M81.5028 296.785C81.5028 296.785 75.5299 289.991 73.6961 286.611L69.2549 288.892L79.1826 298.23L81.5053 297.923L81.5028 296.785" fill="#FFB27D"/>
<path d="M85.1663 300.172H76.8794C76.1499 299.513 75.4539 298.186 74.6011 296.446C74.113 295.449 73.0188 294.9 71.8963 294.598V300.172H70.1819L68.5943 294.245C67.5371 292.259 68.3312 290.438 69.0748 288.869C69.9399 288.867 72.4496 289.493 76.8618 294.571C78.3119 296.239 79.9119 296.834 81.503 296.785C81.5241 296.799 81.547 296.811 81.5682 296.82C84.0809 297.974 84.9002 299.393 85.1663 300.172" fill="#C45446"/>
<path d="M84.7642 149.028C84.7642 149.028 77.6897 152.99 75.1629 154.132C74.2643 154.538 72.6361 155.297 70.9728 156.075C69.9684 156.545 68.9517 157.023 68.0724 157.438C66.587 158.137 64.8197 157.754 63.7519 156.504C59.9214 152.025 50.008 142.314 39.7702 141.096L39.7348 141.08C39.7348 141.08 39.7364 141.085 39.7394 141.092C39.7352 141.092 39.7308 141.09 39.7265 141.09L39.7831 141.202C40.3586 142.635 45.9708 156.681 46.1449 159.642C46.3282 162.765 46.8783 210.706 46.8783 210.706C46.8783 210.706 46.5116 212.91 50.7292 211.992C54.9467 211.073 56.0469 210.155 56.0469 210.155C56.0469 210.155 52.0127 180.582 53.1131 170.296C53.3289 168.279 53.1341 166.009 52.6835 163.667C58.9185 167.451 66.2699 169.133 66.2699 169.133C66.2699 169.133 69.0116 167.934 73.2722 165.29C75.0607 164.178 77.1351 162.406 79.1768 160.532C81.6437 158.266 85.8884 152.794 85.8884 152.794L84.7642 149.028" fill="#E37970"/>
<path d="M68.0524 283.484L63.3817 283.627C63.3817 283.627 52.594 271.596 46.5428 252.31C46.4015 251.862 46.253 251.407 46.0953 250.948C42.7837 241.275 35.9183 229.134 32.3003 218.145C31.7244 216.394 31.2073 214.747 30.7433 213.187C30.595 212.688 30.4499 212.197 30.3125 211.713L34.1596 208.791C34.1596 208.791 45.7103 227.526 49.286 245.157C52.3923 260.472 64.8322 278.9 68.0524 283.484" fill="#5F9AA8"/>
<path d="M34.561 246.798C34.6271 255.373 34.1943 275.086 33.0795 283.247H28.9426C26.656 283.247 25.5154 283.214 25.5154 283.214C22.7189 269.025 20.7294 257.284 19.2806 247.167C18.0925 238.864 17.0361 231.746 16.2238 225.618C15.4061 219.453 14.8376 214.289 14.6341 209.927C14.6028 209.241 14.5791 208.572 14.5661 207.922C14.5534 207.271 14.5497 206.637 14.5552 206.021L37.1283 203.819C36.8441 218.841 34.5243 241.816 34.561 246.798Z" fill="#80BDCC"/>
<path d="M28.9422 283.247C26.6556 283.247 25.5151 283.214 25.5151 283.214C22.7185 269.025 20.729 257.284 19.2803 247.167C18.0921 238.864 17.0358 231.746 16.2235 225.618C15.4057 219.453 14.8373 214.289 14.6338 209.927L22.9166 214.808C22.9166 214.808 17.6299 216.675 19.6471 230.82C21.6643 244.963 26.1348 281.244 28.9422 283.247" fill="#5F9AA8"/>
<path d="M30.0087 209.788C30.0087 209.788 28.4189 215.542 22.9176 214.808C17.4165 214.073 9.59375 210.767 9.59375 210.767C9.59375 210.767 11.9447 203.326 14.8675 193.55C18.4068 181.716 22.7876 166.459 24.8521 156.836C25.4317 154.139 25.8278 151.889 25.9746 150.276L30.6332 141.401C30.6332 141.401 37.3436 156.704 37.7103 160.562C38.0771 164.419 30.0087 209.788 30.0087 209.788" fill="#E37970"/>
<path d="M49.6549 164.867C47.0073 165.216 45.992 166.625 45.6649 168.526C45.4887 169.553 44.9608 170.566 44.5122 171.283C41.8748 171.424 35.594 171.766 30.3171 172.102L29.8818 179.034C34.2166 178.494 39.5438 177.393 45.6743 175.291C46.1453 175.21 46.7342 174.917 47.4716 174.311C51.2705 171.194 53.4271 165.975 53.4338 165.229C53.4405 164.48 52.3024 164.519 49.6549 164.867Z" fill="#FFB27D"/>
<path d="M29.7643 168.644C29.5187 174.888 28.0518 187.01 14.9719 193.5C14.937 193.516 14.9021 193.536 14.8672 193.55C18.4064 181.715 22.7872 166.459 24.8518 156.836C27.2541 160.433 29.8983 165.204 29.7643 168.644Z" fill="#C45446"/>
<path d="M30.6325 141.401C30.6325 141.401 19.4439 142.196 16.7545 148.197C14.0651 154.196 13.2093 174.156 16.6322 180.034C16.6322 180.034 21.3448 181.378 29.6798 179.818C29.782 179.799 29.8847 179.779 29.9878 179.758C29.9878 179.758 32.6469 173.238 30.2628 171.952C30.2628 171.952 23.2337 172.321 23.9671 169.992C24.7006 167.666 30.6325 141.401 30.6325 141.401" fill="#E37970"/>
<path d="M92.3495 144.319C86.3298 143.544 84.8106 149.028 84.8106 149.028L85.9346 152.794C87.7899 153.052 89.4137 152.567 90.9097 150.422C92.4057 148.278 92.8177 149.102 93.7686 147.506C95.0588 145.342 93.0402 144.536 92.3495 144.319" fill="#FFB27D"/>
<path d="M75.1628 154.132C74.2642 154.538 72.636 155.297 70.9727 156.075C71.8625 157.659 72.9761 160.536 73.2721 165.291C75.0606 164.179 77.3763 162.327 79.3529 160.384C82.5246 157.267 85.8883 152.794 85.8883 152.794L84.7641 149.028C84.7641 149.028 77.6896 152.99 75.1628 154.132" fill="#FFB27D"/>
<path d="M394.484 197.821C394.484 197.821 390.204 198.923 387.483 198.102C384.762 197.279 380.081 198.628 379.326 199.621C378.571 200.617 378.849 201.01 380.196 201.355C381.539 201.697 386.308 203.734 389.441 202.555C392.574 201.376 396.661 201.334 396.661 201.334L394.484 197.821" fill="#E49963"/>
<path d="M431.479 160.576C431.479 160.576 426.671 194.808 418.708 197.874C414.781 199.388 397.417 202.818 392.28 203.162C392.28 203.162 391.024 202.14 391.329 197.978C391.329 197.978 409.522 191.287 412.103 187.649C415.952 182.236 409.715 165.53 414.542 160.445C419.369 155.36 427.498 153.174 431.479 160.576Z" fill="#4A75CB"/>
<path d="M430.867 292.478V285.014H442.596C442.915 285.014 443.174 284.754 443.174 284.438V283.242C443.174 282.926 442.915 282.665 442.596 282.665H430.867V240.177C430.867 238.986 429.894 238.01 428.702 238.01H426.38C425.191 238.01 424.218 238.986 424.218 240.177V282.665H412.485C412.17 282.665 411.911 282.926 411.911 283.242V284.438C411.911 284.754 412.17 285.014 412.485 285.014H424.218V292.478C415.73 293.121 408.928 296.181 407.021 300.136H448.063C446.154 296.181 439.354 293.121 430.867 292.478Z" fill="#2B478B"/>
<path d="M429.856 232.698C428.455 235.082 426.834 237.315 425.161 239.429C419.995 245.965 414.368 251.354 413.388 256.447C413.193 257.462 412.885 258.555 412.479 259.707C412.069 260.874 411.563 262.101 410.979 263.368C408.787 268.141 405.505 273.487 402.233 278.348C396.572 286.749 391.251 293.76 391.251 293.76L381.487 293.343C381.878 292.363 386.137 280.762 391.831 266.586C394.145 260.83 396.603 254.709 398.975 248.805C399.293 248.016 399.61 247.232 399.921 246.454C400.645 244.647 401.359 242.868 402.059 241.136C407.404 227.825 411.663 217.224 411.663 217.224C411.663 217.224 433.041 209.114 435.26 214.37C437.089 218.703 435.599 222.948 429.856 232.698Z" fill="#163560"/>
<path d="M390.945 291.982C390.945 291.982 390.443 300.05 388.887 300.166C388.679 300.182 380.981 300.182 380.981 300.182L371.156 300.124C371.156 300.124 371.22 297.754 374.092 297.252C376.965 296.751 381.771 294.728 383.513 290.927C385.341 286.927 390.945 291.982 390.945 291.982Z" fill="#163560"/>
<path d="M413.55 268.931C413.55 268.931 420.339 273.301 419.681 274.72C419.592 274.909 415.84 281.641 415.84 281.641L411.001 290.207C411.001 290.207 408.965 288.994 409.927 286.239C410.892 283.482 411.473 278.293 409.004 274.916C406.41 271.367 413.55 268.931 413.55 268.931" fill="#163560"/>
<path d="M404.361 213.375C404.361 213.375 377.532 230.115 374.538 241.364C371.545 252.614 410.227 276.613 410.227 276.613C410.227 276.613 414.47 272.864 415.218 270.114C415.218 270.114 397.733 249.13 393.939 244.426C391.608 241.537 428.384 234.425 432.874 227.426C437.368 220.426 435.758 214.536 435.758 214.536L404.361 213.375" fill="#1C468A"/>
<path d="M454.995 234.87H400.085C398.989 234.87 398.091 235.77 398.091 236.87V247.871C398.091 248.971 398.989 249.871 400.085 249.871H454.995C456.094 249.871 456.993 248.971 456.993 247.871V236.87C456.993 235.77 456.094 234.87 454.995 234.87Z" fill="#EE9849"/>
<path d="M416.767 154.708C414.132 156.342 412.679 158.418 412.679 158.418C419.107 160.084 429.761 154.117 429.761 154.117C429.761 154.117 425.625 151.333 424.091 145.214C424.013 144.906 423.944 144.589 423.881 144.265C423.682 143.235 423.556 142.119 423.532 140.915L420.581 143.564L415.672 147.97C415.672 147.97 415.783 149.8 416.397 152.943C416.505 153.492 416.625 154.081 416.767 154.708" fill="#E49963"/>
<path d="M436.537 185.079C435.617 197.484 437.167 216.341 436.122 219.608C435.22 222.425 424.612 220.757 420.513 219.816C418.997 219.469 417.16 218.971 415.262 218.383C409.966 216.74 404.199 214.396 403.578 212.654C403.554 212.587 403.532 212.52 403.52 212.455C403.465 212.202 403.477 211.964 403.532 211.724C403.737 210.838 404.535 209.878 404.626 207.68C404.73 205.227 404.715 202.339 404.81 199.233C404.813 198.882 404.819 198.5 404.856 198.153V198.026C404.859 197.959 404.859 197.893 404.862 197.826C404.95 194.363 405.131 190.72 405.342 187.109C405.476 184.839 405.629 182.594 405.806 180.441C406.268 174.885 406.891 169.945 407.713 166.821C409.061 161.729 412.029 158.407 414.731 155.973L416.684 154.294C418.863 154.771 421.442 154.455 423.771 153.348C426.296 152.148 427.167 151.288 427.607 151.613C433.435 156.116 437.625 169.916 436.537 185.079" fill="#739AF0"/>
<path d="M415.29 218.408C409.997 216.765 404.226 214.421 403.609 212.679C403.585 212.612 403.564 212.545 403.549 212.48C403.555 212.236 403.558 211.993 403.561 211.749C403.77 210.863 404.564 209.903 404.656 207.705C404.761 205.252 404.746 202.365 404.838 199.258C404.841 198.907 404.847 198.526 404.886 198.178V198.051C404.889 197.984 404.889 197.918 404.892 197.851L424.89 188.767C424.89 188.767 426.043 204.913 415.29 218.408" fill="#4A75CB"/>
<path d="M415.671 147.97C415.671 147.97 415.781 149.799 416.397 152.943C421.193 151.391 423.364 147.054 424.09 145.214C424.299 144.694 424.388 144.373 424.388 144.373C424.388 144.373 424.203 144.333 423.882 144.265C423.207 144.122 421.939 143.852 420.583 143.564L415.671 147.97Z" fill="#D68D5D"/>
<path d="M413.731 147.921C413.731 147.921 424.264 149.112 424.904 142.53C425.542 135.948 427.332 131.669 420.633 130.631C413.938 129.593 412.384 131.977 411.639 134.122C410.891 136.267 411.007 147.442 413.731 147.921" fill="#E49963"/>
<path d="M424.857 142.985C424.857 142.985 424.187 134.248 414.602 133.343C408.035 132.724 411.696 127.062 412.396 126.159C412.396 126.159 417.426 126.85 422.584 127.703C433.409 129.495 425.918 141.625 424.857 142.985" fill="#2B478B"/>
<path d="M373.873 206.399L372.951 206.699L365.107 182.517L366.03 182.217L373.873 206.399Z" fill="#4A75CB"/>
<path d="M399.547 204.534L372.916 205.104L372.953 206.699L399.581 206.131L399.547 204.534" fill="#4A75CB"/>
<path d="M396.686 203.084C396.686 203.084 392.554 204.652 389.761 204.135C386.963 203.619 382.458 205.478 381.818 206.549C381.178 207.619 381.496 207.98 382.873 208.173C384.247 208.365 389.211 209.864 392.196 208.346C395.18 206.828 399.236 206.334 399.236 206.334L396.686 203.084Z" fill="#E49963"/>
<path d="M429.357 161.981C429.357 161.981 428.344 196.536 420.77 200.462C417.031 202.4 400.151 207.727 395.084 208.635C395.084 208.635 393.723 207.758 393.569 203.589C393.569 203.589 410.911 194.93 413.078 191.03C416.306 185.223 408.273 169.308 412.51 163.722C416.745 158.134 424.584 155.064 429.357 161.981" fill="#739AF0"/>
<path d="M545.914 301.238H5.91365C5.62393 301.238 5.38672 300.999 5.38672 300.71C5.38672 300.419 5.62393 300.182 5.91365 300.182H545.914C546.201 300.182 546.439 300.419 546.439 300.71C546.439 300.999 546.201 301.238 545.914 301.238Z" fill="#202F4E"/>
</g>
<defs>
<clipPath id="clip0_0_138">
<rect width="562" height="325" fill="white"/>
</clipPath>
</defs>
</svg>
