<svg width="498" height="389" viewBox="0 0 498 389" fill="none" xmlns="http://www.w3.org/2000/svg">
<g clip-path="url(#clip0_0_519)">
<g style="mix-blend-mode:multiply" opacity="0.3">
<path d="M464.077 256.268C482.83 256.268 498.033 253.33 498.033 249.706C498.033 246.082 482.83 243.143 464.077 243.143C445.323 243.143 430.121 246.082 430.121 249.706C430.121 253.33 445.323 256.268 464.077 256.268Z" fill="#C4C4C4"/>
</g>
<path d="M480.543 249.706H485.466L430.211 75.0442H425.287L434.01 102.618H406.404L397.682 75.0442H392.759L448.026 249.706H452.949L445.699 226.82H473.305L480.543 249.706ZM426.895 167.382H454.489L462.211 191.768H434.617L426.895 167.382ZM452.803 162.055H425.209L417.487 137.658H445.092L452.803 162.055ZM435.684 107.945L443.406 132.331H415.801L408.09 107.945H435.684ZM444.013 221.482L436.303 197.096H463.931L471.641 221.482H444.013Z" fill="#7293ED"/>
<g style="mix-blend-mode:multiply" opacity="0.3">
<path d="M422.006 272.007H50.6141L63.1017 263.504H434.494L422.006 272.007Z" fill="#C4C4C4"/>
</g>
<path d="M434.505 35.5699H65.507V263.504H434.505V35.5699Z" fill="#DCD6FC"/>
<path d="M411.486 120.805H253.215V127.202H411.486V120.805Z" fill="#C3BEEA"/>
<path d="M411.486 142.136H253.215V148.533H411.486V142.136Z" fill="#C3BEEA"/>
<path d="M411.486 163.456H253.215V169.853H411.486V163.456Z" fill="#C3BEEA"/>
<path d="M411.486 99.4854H253.215V105.882H411.486V99.4854Z" fill="#C3BEEA"/>
<path d="M411.486 78.1654H253.215V84.5625H411.486V78.1654Z" fill="#C3BEEA"/>
<path d="M434.505 35.4265H65.507V58.875H434.505V35.4265Z" fill="#648AE8"/>
<path d="M335.075 43.4008H283.078V50.9008H335.075V43.4008Z" fill="#FFFCFC"/>
<g style="mix-blend-mode:multiply" opacity="0.2">
<path d="M310.123 136.699C310.123 136.699 320.812 157.114 340.763 163.456L351.16 203.989L364.086 184.489L355.319 156.518C355.319 156.518 335.986 153.827 330.085 149.537C324.184 145.246 312.101 132.529 312.101 132.529L310.123 136.699Z" fill="#5870C6"/>
</g>
<g style="mix-blend-mode:multiply" opacity="0.2">
<path d="M109.118 87.5405C109.118 87.5405 118.301 54.8272 132.542 35.4265L139.466 35.5148L117.368 95.8125L109.118 87.5405Z" fill="#5870C6"/>
</g>
<g style="mix-blend-mode:multiply" opacity="0.2">
<g style="mix-blend-mode:multiply" opacity="0.2">
<path d="M201.668 74.8567C201.668 74.8567 194.733 51.5074 184.988 35.5148L197.543 35.7023L216.28 75.9486L201.668 74.8567Z" fill="#5870C6"/>
</g>
</g>
<g style="mix-blend-mode:multiply" opacity="0.2">
<path d="M243.627 155.868L211.02 164.923L65.507 205.368L66.0465 169.853L243.627 155.868Z" fill="#5870C6"/>
</g>
<path d="M29.3358 150.221C29.3358 150.221 55.1091 143.791 61.426 120.033L66.0344 123.662C64.4548 130.445 61.3446 136.795 56.9327 142.243C52.5209 147.691 46.9198 152.098 40.5421 155.14L29.3358 150.221Z" fill="#DB5371"/>
<path d="M226.099 64.4257L51.273 96.6544L68.7825 188.11L243.608 155.881L226.099 64.4257Z" fill="#648AE8"/>
<g style="mix-blend-mode:multiply" opacity="0.3">
<path d="M42.0597 300.331C65.0281 300.331 83.6477 297.393 83.6477 293.768C83.6477 290.144 65.0281 287.206 42.0597 287.206C19.0913 287.206 0.471695 290.144 0.471695 293.768C0.471695 297.393 19.0913 300.331 42.0597 300.331Z" fill="#C4C4C4"/>
</g>
<path d="M88.6952 148.93C87.7511 147 85.0647 148.07 82.8954 149.36C83.1539 148.566 83.2663 147.717 82.6256 147.695C81.4005 147.695 79.8606 151.511 79.8606 151.511L79.4222 155.052L82.6256 156.518C84.2554 154.246 90.3812 152.349 88.6952 148.93Z" fill="#FFCA76"/>
<path d="M20.805 287.206L28.673 290.217C28.8317 290.276 28.9634 290.39 29.0439 290.537C29.1105 290.67 29.1341 290.82 29.1113 290.967C29.0919 291.039 29.0656 291.109 29.0327 291.176C28.9788 291.284 28.8958 291.375 28.7926 291.439C28.6895 291.503 28.5703 291.539 28.4482 291.54L14.5668 292.081L15.2524 287.592L20.805 287.206Z" fill="#FF7190"/>
<path d="M14.7239 290.934L14.5216 292.037L28.403 291.496C28.5647 291.493 28.72 291.433 28.8413 291.328C28.9627 291.224 29.0423 291.08 29.0661 290.923C29.0661 290.923 29.0661 290.923 29.0661 290.923L14.7239 290.934Z" fill="#DB5371"/>
<path d="M50.9506 191.239C50.9506 191.239 77.2522 235.511 74.5546 287.195L68.2602 288.408C68.2602 288.408 63.6181 239.504 40.3962 214.511C40.3962 214.511 38.609 251.901 21.8502 287.526H15.2074C15.2074 287.526 29.4147 222.938 20.6026 194.206L40.5086 184.423L50.9506 191.239Z" fill="#282854"/>
<path d="M39.7443 133.897C39.7443 133.897 38.4404 131.691 37.4963 132.673C36.5521 133.655 37.3614 136.423 39.1598 137.085C39.1598 137.085 38.9799 137.769 37.4513 138.949C35.9227 140.129 33.1239 139.886 33.1239 139.886C33.1239 139.886 31.0557 145.401 30.6848 146.868C32.3907 147.309 34.1733 147.384 35.9114 147.088C36.5622 146.917 37.2457 146.902 37.9034 147.046C38.5612 147.19 39.1735 147.488 39.6881 147.916V143.614C40.3274 143.84 41.0145 143.905 41.6861 143.803C42.3578 143.701 42.9926 143.435 43.5321 143.03C45.4092 141.629 48.9611 132.496 45.1507 127.423C45.1507 127.423 41.1268 126.519 40.1264 128.879C39.3958 130.599 40.3063 133.765 40.3063 133.765L39.7443 133.897Z" fill="#FFCA76"/>
<path d="M45.264 127.379C45.264 127.379 49.1755 127.059 48.0515 123.596C47.3434 121.268 42.1955 118.467 37.9355 119.283C34.5073 119.934 33.6081 121.82 33.6081 121.82C32.5236 121.732 31.4339 121.912 30.4386 122.344C29.4432 122.776 28.5737 123.445 27.9094 124.291C25.8862 127.147 28.0218 131.393 27.606 134.537C27.1901 137.68 23.7506 138.618 25.83 140.537C27.9094 142.456 36.1596 143.912 38.475 141.938C40.7905 139.963 39.2281 137.041 39.2281 137.041C39.2281 137.041 37.3286 135.166 37.6433 133.732C37.8231 132.949 38.5537 132.452 39.7564 134.195L40.723 134.074C40.7781 132.522 41.0504 130.986 41.5323 129.507C42.2629 127.666 45.264 127.379 45.264 127.379Z" fill="#282854"/>
<path d="M20.6025 194.272C20.6025 194.272 17.7588 166.125 22.3785 155.791C26.9981 145.456 29.055 145.335 37.5749 145.809C46.0949 146.283 52.6365 153.408 58.6949 155.393C64.7533 157.379 71.6771 156.276 79.8598 151.511L82.6249 156.518C82.6249 156.518 74.4759 162.033 67.0687 164.239C59.6615 166.445 48.444 161.691 48.444 161.691C48.7339 171.592 49.5706 181.471 50.9505 191.283C50.9505 191.283 33.5623 198.452 20.6025 194.272Z" fill="#FF7190"/>
<path d="M43.8572 160.268L48.949 173.25C48.3757 166.048 48.4432 161.647 48.4432 161.647L43.8572 160.268Z" fill="#DB5371"/>
<path d="M74.4985 287.206L82.3665 290.217C82.5222 290.277 82.6501 290.391 82.7262 290.537C82.7929 290.67 82.8164 290.82 82.7937 290.967C82.7635 291.142 82.6672 291.3 82.5239 291.408C82.4089 291.489 82.272 291.535 82.1305 291.54L68.5526 292.081L68.2491 288.419L74.4985 287.206Z" fill="#FF7190"/>
<path d="M68.4181 290.934L68.508 292.037L82.086 291.496C82.2483 291.495 82.4048 291.436 82.5266 291.331C82.6485 291.226 82.7275 291.081 82.7491 290.923V290.923L68.4181 290.934Z" fill="#DB5371"/>
<path d="M36.406 242.537C38.3663 233.312 39.6807 223.967 40.34 214.566L36.2036 210.96C36.2036 210.96 36.8106 226.765 36.406 242.537Z" fill="#1B1B44"/>
<g style="mix-blend-mode:multiply" opacity="0.3">
<path d="M374.573 306.893C397.542 306.893 416.161 303.955 416.161 300.331C416.161 296.707 397.542 293.768 374.573 293.768C351.605 293.768 332.985 296.707 332.985 300.331C332.985 303.955 351.605 306.893 374.573 306.893Z" fill="#C4C4C4"/>
</g>
<path d="M314.81 133.765C314.81 133.765 315.844 127.335 314.349 126.32C312.854 125.305 312.686 129.287 312.686 129.287C312.686 129.287 306.358 122.559 303.638 125.493C300.918 128.427 307.504 134.195 310.123 136.699L314.81 138.507V133.765Z" fill="#FFCA76"/>
<path d="M399.39 175.169L398.93 178.478C398.93 178.478 396.772 183.993 397.806 185.217C398.84 186.441 399.582 181.445 400.189 182.735C400.795 184.026 401.481 188.548 402.785 189.287C404.089 190.026 408.057 184.246 403.605 176.504L399.39 175.169Z" fill="#FFCA76"/>
<path d="M363.715 160.147L367.548 151.61C367.548 151.61 394.232 150.507 403.606 176.537L398.93 178.511C398.93 178.511 389.207 156.243 363.715 160.147Z" fill="#373770"/>
<path d="M397.322 280.015L395.805 292.5C395.79 292.607 395.81 292.717 395.862 292.812C395.915 292.907 395.997 292.983 396.097 293.029C396.162 293.065 396.234 293.086 396.308 293.092C396.381 293.098 396.456 293.089 396.526 293.065C396.596 293.041 396.66 293.003 396.714 292.953C396.768 292.903 396.81 292.843 396.839 292.776L404.493 278.162L399.514 275.658L395.468 277.114L397.322 280.015Z" fill="#FF9271"/>
<path d="M396.097 293.007C396.162 293.042 396.233 293.064 396.307 293.07C396.381 293.076 396.455 293.067 396.525 293.043C396.595 293.019 396.659 292.981 396.713 292.931C396.767 292.881 396.81 292.821 396.839 292.754L404.493 278.162L403.729 277.776L395.861 292.765C395.908 292.87 395.992 292.956 396.097 293.007V293.007Z" fill="#DD6B47"/>
<path d="M350.406 295.809L338.413 300.221C338.306 300.255 338.213 300.323 338.15 300.415C338.087 300.507 338.057 300.617 338.065 300.728C338.065 300.8 338.08 300.871 338.109 300.937C338.138 301.003 338.181 301.062 338.235 301.111C338.289 301.16 338.353 301.197 338.422 301.22C338.492 301.244 338.565 301.253 338.638 301.246H355.363V295.732L352.182 292.875L350.406 295.809Z" fill="#FF9271"/>
<path d="M350.654 207.574C350.654 207.574 336.368 262.798 350.362 295.809L355.308 295.721C355.308 295.721 346.226 242.007 361.973 221.824C377.372 202.037 371.392 222.165 371.392 222.165C371.392 222.165 366.896 256.61 397.323 280.103L399.515 275.746C399.515 275.746 372.887 246.176 382.857 218.04C383.363 216.607 378.305 199.897 378.305 199.897L350.654 207.574Z" fill="#FFCA76"/>
<path d="M382.856 218.041C383.238 216.938 380.507 207.375 379.102 202.599L367.277 202.974L350.653 207.574C348.146 217.974 346.347 228.527 345.269 239.162L355.194 237.364C356.633 231.265 358.791 225.816 361.938 221.735C377.337 201.949 371.357 222.077 371.357 222.077C370.891 227.267 371.11 232.494 372.009 237.629L380.642 233.074C380.404 227.97 381.155 222.869 382.856 218.041V218.041Z" fill="#F2B45A"/>
<path d="M348.822 197.559C348.822 197.559 343.202 211.985 335.705 229.302C335.705 229.302 375.382 243.971 391.714 218.603C391.714 218.603 385.711 199.853 380.395 190.776L360.579 187.996L348.822 197.559Z" fill="#FF9271"/>
<path d="M351.531 139.191C351.531 139.191 352.834 136.985 353.779 137.967C354.723 138.948 353.914 141.717 352.104 142.379C352.104 142.379 352.284 143.051 353.824 144.243C355.363 145.434 358.151 145.18 358.151 145.18C358.151 145.18 360.219 150.695 360.579 152.162C358.873 152.603 357.09 152.678 355.352 152.382C354.702 152.207 354.017 152.19 353.359 152.334C352.7 152.479 352.088 152.779 351.576 153.21L350.305 148.996C350.305 148.996 349.552 149.724 347.675 148.323C345.798 146.923 342.258 137.79 346.057 132.717C346.057 132.717 350.092 131.812 351.081 134.173C351.812 135.893 350.901 139.059 350.901 139.059L351.531 139.191Z" fill="#FFCA76"/>
<path d="M367.548 151.599C367.548 151.599 357.837 151.059 349.351 151.235C340.865 151.412 320.61 143.041 314.81 133.765L310.123 136.699C310.123 136.699 317.935 152.956 345.911 160.147C345.911 160.147 349.8 187.544 348.856 197.57C348.856 197.57 373.517 197.901 380.429 190.787C380.396 190.776 377.293 161.802 367.548 151.599Z" fill="#373770"/>
<path d="M359.601 131.471C359.601 131.471 359.129 126.364 352.475 127.467C345.821 128.57 342.269 131.735 344.371 134.471C346.473 137.206 350.272 136.191 350.901 139.092C351.531 141.993 349.137 145.456 351.733 148.5C354.33 151.544 350.295 157.621 354.611 163.037C358.927 168.452 374.764 163.037 374.573 155.779C374.382 148.522 367.548 148.974 364.547 144.199C361.546 139.423 364.862 135.154 359.601 131.471Z" fill="#F47389"/>
<path d="M338.043 300.651C338.042 300.723 338.057 300.794 338.087 300.86C338.116 300.926 338.159 300.985 338.213 301.034C338.267 301.083 338.331 301.12 338.4 301.143C338.469 301.166 338.543 301.175 338.616 301.169H355.341V300.331H338.133C338.068 300.425 338.037 300.537 338.043 300.651V300.651Z" fill="#DD6B47"/>
<path d="M345.911 160.147C345.911 160.147 347.035 168.132 347.945 177.066C349.069 169.864 351.317 161.515 351.317 161.515L345.911 160.147Z" fill="#282854"/>
<g style="mix-blend-mode:multiply" opacity="0.3">
<path d="M211.097 389.041C234.066 389.041 252.685 386.102 252.685 382.478C252.685 378.854 234.066 375.916 211.097 375.916C188.129 375.916 169.509 378.854 169.509 382.478C169.509 386.102 188.129 389.041 211.097 389.041Z" fill="#C4C4C4"/>
</g>
<path d="M239.232 378.441V379.632L252.821 380.073C252.982 380.085 253.141 380.038 253.269 379.943C253.397 379.848 253.486 379.71 253.518 379.555C253.518 379.555 253.518 379.555 253.518 379.555L239.232 378.441Z" fill="#BA77E5"/>
<path d="M178.435 368.36L178.705 376.599C178.716 376.763 178.663 376.924 178.559 377.052C178.461 377.169 178.327 377.25 178.176 377.283C178.102 377.299 178.026 377.299 177.952 377.283C177.829 377.277 177.71 377.238 177.609 377.17C177.508 377.102 177.428 377.007 177.378 376.897L171.376 364.61L175.872 363.507L178.435 368.36Z" fill="#CD8CF2"/>
<path d="M172.534 364.357L171.41 364.632L177.412 376.919C177.48 377.062 177.598 377.177 177.743 377.243C177.889 377.31 178.054 377.324 178.21 377.283V377.283L172.534 364.357Z" fill="#BA77E5"/>
<path d="M245.582 375.221L253.147 378.794C253.299 378.868 253.419 378.993 253.484 379.147C253.539 379.285 253.539 379.439 253.484 379.577C253.467 379.663 253.432 379.744 253.382 379.816C253.332 379.889 253.267 379.95 253.191 379.996C253.071 380.071 252.929 380.105 252.787 380.096L239.198 379.654V375.971L245.582 375.221Z" fill="#CD8CF2"/>
<path d="M219.775 286.434C219.775 286.434 247.257 320.791 246.279 375.496L239.209 375.916C239.209 375.916 232.982 323.967 210.84 308.305C210.84 308.305 215.853 350.416 178.48 370.004L175.85 363.474C175.85 363.474 207.322 335.702 190.518 286.897L201.072 272.007L219.775 286.434Z" fill="#5E3823"/>
<path d="M196.565 244.985C196.565 244.985 219.168 246.199 227.598 221.581L232.881 223.544C232.881 223.544 229.509 242.471 211.435 250.015L196.565 244.985Z" fill="#BA77E5"/>
<path d="M203.624 231.838C203.624 231.838 202.32 229.632 201.432 230.625C200.544 231.618 201.297 234.375 203.095 235.037C203.095 235.037 202.915 235.71 201.387 236.901C199.858 238.092 197.059 237.827 197.059 237.827C197.059 237.827 194.991 243.342 194.62 244.82C196.327 245.255 198.109 245.326 199.847 245.029C200.498 244.857 201.183 244.844 201.841 244.99C202.499 245.136 203.111 245.437 203.624 245.868L203.691 241.555C204.327 241.785 205.012 241.853 205.683 241.753C206.353 241.653 206.986 241.387 207.524 240.982C209.401 239.581 212.953 230.449 209.142 225.375C209.142 225.375 205.119 224.471 204.118 226.831C203.388 228.552 204.298 231.717 204.298 231.717L203.624 231.838Z" fill="#FFCA76"/>
<path d="M209.142 225.331C209.59 225.139 209.961 224.809 210.201 224.391C210.44 223.973 210.534 223.49 210.469 223.015C210.188 221.371 207.737 215.857 202.432 217.147C197.127 218.438 190.99 221.559 189.203 221.007C187.415 220.456 188.82 227.901 190.135 231.485C191.451 235.07 194.733 238.456 197.734 238.732C200.735 239.008 204.747 236.526 204.478 235.5C204.208 234.474 202.769 234.519 202.297 232.765C201.825 231.011 203.421 231.188 204.478 232.434L205.186 231.894C205.186 231.894 203.23 223.776 209.142 225.331Z" fill="#5E3823"/>
<path d="M211.728 245.074C211.728 245.074 198.667 240.21 192.62 244.147C186.573 248.085 190.878 272.526 190.462 286.875C190.462 286.875 206.737 291.739 219.686 286.412C219.686 286.412 217.236 262.489 217.033 257.096C217.033 257.096 244.571 257.581 253.698 225.662L247.516 224.096C247.516 224.096 239.502 253.699 211.728 245.074Z" fill="#CD8CF2"/>
<path d="M221.844 217.82L230.251 171.155L269.063 176.206L261.948 223.004L221.844 217.82Z" fill="#FF7190"/>
<path d="M253.743 225.684C253.743 225.684 258.801 223.478 258.767 221.151C258.733 218.824 254.968 222.099 254.968 222.099L247.853 221.184L247.561 224.118L253.743 225.684Z" fill="#FFCA76"/>
<path d="M227.598 221.581C227.598 221.581 225.834 217.434 226.677 215.813C227.52 214.191 229.059 218.746 229.059 218.746L235.05 219.518L232.881 223.544L227.598 221.581Z" fill="#FFCA76"/>
<path d="M209.468 328.39C210.908 321.795 211.37 315.03 210.839 308.305L204.286 304.996C204.286 304.996 207.523 317.184 209.468 328.39Z" fill="#442415"/>
<path d="M217.774 265.566C217.448 261.871 217.19 258.695 217.134 257.118L210.513 256.522C210.513 256.522 214.121 260.879 217.774 265.566Z" fill="#BA77E5"/>
<path d="M116.537 78.2536C116.537 78.2536 111.085 86.8014 115.581 89.4705C120.077 92.1397 123.079 83.283 123.079 83.283L126.327 82.8088L123.865 79.886L119.74 76.511L116.537 78.2536Z" fill="#FFCA76"/>
<path d="M170.195 14.8346C169.285 14.7464 173.657 12.2647 172.724 12.2206C171.252 12.1324 146.929 20.9008 146.929 20.9008C146.929 20.9008 129.54 27.5184 116.581 78.2537L123.909 79.8861C123.909 79.8861 132.35 50.6802 147.839 35.4265H181.806C181.806 35.4265 181.11 32.8787 180.109 29.9118C196.553 39.6067 207.838 65.2059 207.838 65.2059L214.717 63.8273C199.678 18.4192 170.195 14.8346 170.195 14.8346Z" fill="#FF9271"/>
<path d="M141.253 15.3641C141.253 15.3641 139.139 17.7574 141.736 22.5442C144.332 27.331 153.572 29.7905 156.651 27.2427C159.495 24.8935 160.226 19.9854 158.191 16.5221C158.191 16.5221 158.304 12.717 156.651 11.1508C154.403 9.01112 153.279 12.5957 153.279 12.5957C153.279 12.5957 145.838 8.26111 141.253 15.3641Z" fill="#FFCA76"/>
<path d="M151.627 1.73168C150.114 0.908943 148.412 0.477295 146.682 0.477295C144.951 0.477295 143.25 0.908943 141.736 1.73168C136.285 4.53315 134.688 13.8089 131.553 16.5221C128.417 19.2354 132.958 23.592 138.724 21.1765C142.703 19.5111 145.67 14.5589 148.132 13.0368C148.912 12.6137 149.775 12.3559 150.663 12.2799C151.552 12.2039 152.447 12.3115 153.291 12.5956C153.291 12.5956 154.617 11.2059 155.865 11.989C157.112 12.7721 158.191 16.5221 158.191 16.5221C158.191 16.5221 157.641 20.2721 159.315 22.5442C160.99 24.8162 169.173 24.4743 172.545 20.3383C176.333 15.717 174.366 8.48168 170.297 7.78682C166.925 7.22432 164.396 9.1655 162.013 6.13241C159.63 3.09932 154.999 -1.7095 151.627 1.73168Z" fill="#5E3823"/>
<path d="M152.572 31.3567L147.795 35.4265H158.642L152.572 31.3567Z" fill="#E27A5A"/>
<path d="M207.85 65.2942L206.726 67.9964L208.772 67.6214C208.772 67.6214 209.12 76.9633 213.268 75.8604C217.415 74.7574 214.807 63.9155 214.807 63.9155L207.85 65.2942Z" fill="#FFCA76"/>
<path d="M400.571 43.4008H348.575V50.9008H400.571V43.4008Z" fill="#FFFCFC"/>
</g>
<defs>
<clipPath id="clip0_0_519">
<rect width="498" height="389" fill="white"/>
</clipPath>
</defs>
</svg>
