<svg width="451" height="340" viewBox="0 0 451 340" fill="none" xmlns="http://www.w3.org/2000/svg">
<g clip-path="url(#clip0_0_385)">
<path d="M450.738 224.58L434.424 335.29H19.6899L7.44166 250.84C6.77602 246.237 7.70875 241.551 10.0937 237.515C12.4787 233.48 16.1811 230.323 20.621 228.54L57.4279 213.77V178.38C57.4315 173.333 59.3155 168.456 62.7351 164.641C66.1546 160.827 70.8808 158.331 76.0486 157.61L84.7589 156.38L99.3451 108.59C100.682 104.257 103.429 100.456 107.179 97.7539C110.929 95.0513 115.481 93.591 120.159 93.59H269.683C275.156 93.5949 280.426 95.5969 284.438 99.1955C288.451 102.794 290.91 107.724 291.324 113L362.538 120.27C367.653 120.794 372.41 123.055 375.962 126.652C379.514 130.248 381.63 134.946 381.935 139.91L384.862 187.69L435.19 201.43C440.237 202.822 444.593 205.933 447.451 210.189C450.309 214.445 451.477 219.557 450.738 224.58Z" fill="#DAE8EF"/>
<path d="M44.5181 247.42L57.4698 335.29H386.704L396.428 268.29C396.953 264.635 396.21 260.914 394.316 257.71C392.422 254.506 389.483 251.999 385.959 250.58L356.746 238.86V210.74C356.749 206.739 355.26 202.87 352.553 199.844C349.846 196.817 346.101 194.835 342.004 194.26L335.094 193.26L323.497 155.33C322.444 151.878 320.262 148.848 317.278 146.696C314.294 144.543 310.669 143.383 306.946 143.39H188.311C183.958 143.391 179.767 144.985 176.579 147.851C173.392 150.717 171.445 154.643 171.128 158.84L114.604 164.61C110.544 165.026 106.767 166.822 103.947 169.676C101.127 172.531 99.4449 176.26 99.2008 180.2L96.925 218.11L56.9319 229C52.902 230.09 49.4201 232.56 47.1359 235.95C44.8516 239.339 43.9212 243.416 44.5181 247.42Z" fill="#CCD9E2"/>
<path d="M316.142 302.55C316.144 297.971 314.442 293.545 311.346 290.08C308.249 286.615 303.966 284.343 299.28 283.68L291.366 282.56L278.083 239.15C276.887 235.201 274.396 231.733 270.986 229.27C267.575 226.807 263.43 225.48 259.173 225.49H123.324C118.34 225.478 113.537 227.298 109.888 230.58C106.238 233.863 104.016 238.363 103.669 243.17L44.8486 249.17L57.5417 335.29H317.621L316.131 334.7L316.142 302.55Z" fill="#BCCED8"/>
<path d="M194.29 19.12H93.376V110.17H194.29V19.12Z" fill="#112B46"/>
<g style="mix-blend-mode:screen">
<g style="mix-blend-mode:screen">
<path d="M194.29 19.12H93.376V28.75H194.29V19.12Z" fill="#1D262D"/>
</g>
</g>
<path d="M172.482 24C172.484 24.3505 172.379 24.6937 172.179 24.9861C171.979 25.2784 171.694 25.5069 171.359 25.6424C171.025 25.7779 170.656 25.8144 170.3 25.7472C169.945 25.68 169.617 25.5122 169.36 25.2651C169.103 25.018 168.928 24.7026 168.856 24.359C168.785 24.0154 168.82 23.659 168.959 23.335C169.097 23.011 169.332 22.7339 169.633 22.539C169.934 22.3441 170.289 22.24 170.651 22.24C171.135 22.24 171.599 22.4251 171.942 22.7549C172.285 23.0847 172.48 23.5323 172.482 24Z" fill="#606BF1"/>
<path d="M180.107 24C180.109 24.3505 180.004 24.6937 179.804 24.9861C179.604 25.2784 179.319 25.5069 178.984 25.6424C178.65 25.7779 178.281 25.8144 177.925 25.7472C177.57 25.68 177.242 25.5122 176.985 25.2651C176.728 25.018 176.553 24.7026 176.481 24.359C176.41 24.0154 176.445 23.659 176.584 23.335C176.722 23.011 176.957 22.7339 177.258 22.539C177.559 22.3441 177.914 22.24 178.276 22.24C178.76 22.24 179.224 22.4251 179.567 22.7549C179.91 23.0847 180.105 23.5323 180.107 24Z" fill="#FBD15B"/>
<path d="M187.183 24.23C187.183 24.5805 187.075 24.9231 186.873 25.2144C186.672 25.5057 186.385 25.7325 186.05 25.8662C185.715 25.9999 185.346 26.0343 184.991 25.9652C184.635 25.8961 184.309 25.7265 184.053 25.478C183.797 25.2294 183.624 24.9131 183.554 24.5691C183.485 24.2251 183.523 23.8689 183.663 23.5457C183.803 23.2224 184.039 22.9467 184.342 22.7534C184.644 22.5601 184.999 22.458 185.362 22.46C185.602 22.46 185.839 22.5058 186.061 22.5949C186.283 22.684 186.484 22.8145 186.653 22.979C186.822 23.1435 186.956 23.3387 187.047 23.5534C187.138 23.7681 187.184 23.998 187.183 24.23Z" fill="#FF8578"/>
<path d="M125.621 37.7H111.324V38.86H125.621V37.7Z" fill="#FF8578"/>
<path d="M142.4 37.7H128.104V38.86H142.4V37.7Z" fill="#FBD15B"/>
<path d="M137.911 43.96H115.742V45.12H137.911V43.96Z" fill="#606BF1"/>
<path d="M152.838 43.96H141.572V45.12H152.838V43.96Z" fill="#FF8578"/>
<path d="M133.162 50.21H123.428V51.37H133.162V50.21Z" fill="#FBD15B"/>
<path d="M171.086 50.21H138.789V51.3699H171.086V50.21Z" fill="#FBD15B"/>
<path d="M167.9 56.47H130.989V57.63H167.9V56.47Z" fill="#606BF1"/>
<path d="M133.12 62.72H121.762V63.88H133.12V62.72Z" fill="#FF8578"/>
<path d="M149.342 62.72H137.983V63.88H149.342V62.72Z" fill="#606BF1"/>
<path d="M127.845 95.1801H111.324V96.3401H127.845V95.1801Z" fill="#FF8578"/>
<path d="M150.159 95.1801H133.639V96.3401H150.159V95.1801Z" fill="#FBD15B"/>
<path d="M171.862 95.1801H155.341V96.3401H171.862V95.1801Z" fill="#FF8578"/>
<path d="M148.039 88.92H115.742V90.08H148.039V88.92Z" fill="#606BF1"/>
<path d="M185.373 88.92H153.076V90.08H185.373V88.92Z" fill="#FF8578"/>
<path d="M155.476 82.67H123.428V83.83H155.476V82.67Z" fill="#FF8578"/>
<path d="M167.186 82.67H158.269V83.83H167.186V82.67Z" fill="#FBD15B"/>
<path d="M133.4 76.41H121.338V77.57H133.4V76.41Z" fill="#FBD15B"/>
<path d="M151.876 76.41H139.813V77.57H151.876V76.41Z" fill="#606BF1"/>
<path d="M171.697 76.41H159.635V77.57H171.697V76.41Z" fill="#FF8578"/>
<path d="M152.238 70.16H135.324V71.32H152.238V70.16Z" fill="#FBD15B"/>
<path d="M128.941 70.16H112.027V71.32H128.941V70.16Z" fill="#606BF1"/>
<path d="M299.114 -0.22998H216.014V49.29H299.114V-0.22998Z" fill="#FF8578"/>
<path d="M248.31 19.69L238.431 23.77L248.31 27.77L247.017 30.66L235.162 25.54V22L247.017 16.85L248.31 19.69Z" fill="#EFFAFF"/>
<path d="M262.855 10.25L255.675 36.9L252.262 36.12L259.503 9.51001L262.855 10.25Z" fill="#EFFAFF"/>
<path d="M280.018 22V25.55L268.152 30.67L266.859 27.78L276.718 23.78L266.859 19.7L268.152 16.87L280.018 22Z" fill="#EFFAFF"/>
<path d="M343.586 95.7H296.259V128.3H343.586V95.7Z" fill="#606BF1"/>
<path d="M316.059 102.74C314.528 102.74 313.99 103.13 313.99 104.23V109.14C313.99 111.05 313.173 111.64 311.797 112.01C313.173 112.36 313.99 112.95 313.99 114.84V119.74C313.99 120.84 314.528 121.24 316.059 121.24V123.39C312.211 123.39 311.125 122.2 311.125 119.72V115.07C311.125 113.74 310.762 113.23 309.511 113.23V110.77C310.762 110.77 311.125 110.24 311.125 108.9V104.26C311.125 101.76 312.159 100.59 316.059 100.59V102.74Z" fill="#F1F2F2"/>
<path d="M328.721 104.26V108.9C328.721 110.24 329.083 110.77 330.365 110.77V113.23C329.083 113.23 328.721 113.74 328.721 115.07V119.72C328.721 122.2 327.634 123.39 323.786 123.39V121.24C325.286 121.24 325.855 120.84 325.855 119.74V114.84C325.801 114.514 325.816 114.18 325.898 113.859C325.981 113.538 326.129 113.237 326.335 112.972C326.54 112.708 326.799 112.487 327.095 112.322C327.391 112.156 327.719 112.05 328.058 112.01C326.683 111.64 325.855 111.01 325.855 109.14V104.23C325.855 103.13 325.348 102.74 323.786 102.74V100.59C327.634 100.59 328.721 101.76 328.721 104.26Z" fill="#F1F2F2"/>
<path d="M114.356 6.88H61.2559V41.21H114.356V6.88Z" fill="#FBD15B"/>
<path d="M78.8312 16.73C77.5142 18.299 76.8248 20.2736 76.8889 22.2932C76.9529 24.3128 77.7662 26.2428 79.1801 27.7309C80.5941 29.219 82.5145 30.166 84.5908 30.399C86.667 30.632 88.7608 30.1354 90.4898 29L96.0656 34.39C96.1795 34.4963 96.3315 34.5557 96.4898 34.5557C96.648 34.5557 96.8001 34.4963 96.9139 34.39L98.4863 32.87C98.5433 32.8168 98.5886 32.7531 98.6195 32.6827C98.6504 32.6123 98.6664 32.5365 98.6664 32.46C98.6664 32.3835 98.6504 32.3077 98.6195 32.2373C98.5886 32.1668 98.5433 32.1032 98.4863 32.05L92.9105 26.66C94.2082 24.8526 94.7225 22.6259 94.3434 20.4565C93.9642 18.2872 92.7218 16.3474 90.8819 15.0524C89.042 13.7573 86.7508 13.2099 84.4986 13.5271C82.2464 13.8444 80.2122 15.0012 78.8312 16.75V16.73ZM90.0346 26.18C89.1704 27.0283 88.0646 27.6089 86.858 27.8479C85.6514 28.0869 84.3986 27.9734 83.2589 27.522C82.1192 27.0706 81.1442 26.3016 80.4579 25.313C79.7717 24.3243 79.4053 23.1606 79.4053 21.97C79.4053 20.7794 79.7717 19.6157 80.4579 18.627C81.1442 17.6383 82.1192 16.8694 83.2589 16.418C84.3986 15.9665 85.6514 15.8531 86.858 16.0921C88.0646 16.3311 89.1704 16.9117 90.0346 17.76C91.1781 18.8825 91.8191 20.3946 91.8191 21.97C91.8191 23.5454 91.1781 25.0575 90.0346 26.18Z" fill="#F2FBFF"/>
<path d="M268.825 112.92C268.701 114.06 267.097 125.92 254.508 125.92C241.287 125.92 243.501 113.26 243.501 113.26V113.18C244.861 112.909 246.257 112.845 247.639 112.99V106.99L262.649 98.87H263.197V112.87C265.07 112.7 266.956 112.717 268.825 112.92Z" fill="url(#paint0_radial_0_385)"/>
<path d="M261.53 72.12C263.793 74.3472 265.357 77.1488 266.041 80.2C267.479 86.35 266.124 92.85 264.282 98.77C264.015 99.7994 263.567 100.777 262.958 101.66C262.474 102.255 261.922 102.795 261.313 103.27C258.644 105.51 255.979 107.76 253.317 110.02C251.506 111.54 240.396 112.82 238.275 111.35C230.103 105.7 228.52 89.35 230.165 80.96C232.875 67.08 251.33 62.12 261.53 72.12Z" fill="url(#paint1_radial_0_385)"/>
<path d="M256.938 89.88C257.052 88.55 258.469 87.08 259.897 87.95C261.324 88.82 261.024 91.22 260.414 92.53C259.938 93.53 258.345 94.67 257.238 93.72C256.328 92.92 257.745 91.98 257.797 91.25C257.848 90.52 256.473 90.13 257.031 89.42" fill="#F7B094"/>
<path d="M257.197 96.06C258.173 96.2109 259.174 96.0265 260.024 95.5387C260.874 95.051 261.521 94.2907 261.852 93.39C262.253 91.9901 262.444 90.5422 262.421 89.09C262.926 90.6202 263.054 92.2435 262.794 93.83C262.4 96.75 261.345 99.54 258.976 99.57C256.607 99.6 257.197 96.06 257.197 96.06Z" fill="#F7B094"/>
<path d="M255.376 94C255.325 94.027 255.268 94.044 255.21 94.05C254.279 94.17 253.917 93.1 253.783 92.42C253.543 90.8409 253.433 89.246 253.452 87.65C253.482 87.2217 253.433 86.7916 253.307 86.38C252.79 85.23 251.403 84.49 250.979 83.3C250.493 81.92 251.879 80.55 251.331 79.04C250.483 76.73 247.421 76.2 245.197 76.22C241.884 76.372 238.586 76.7496 235.328 77.35C231.862 77.87 227.424 78.35 224.362 76.24C220.679 73.69 219.19 67.02 221.89 63.37C222.727 62.4027 223.773 61.624 224.954 61.0885C226.135 60.553 227.423 60.2736 228.728 60.27C231.366 60.21 233.6 61.73 236.021 62.5C237.945 63.11 239.817 61.32 241.617 60.98C243.883 60.54 244.845 62.93 246.852 62.98C248.859 63.03 250.71 61.57 252.604 61.23C256.379 60.57 256.162 64.23 258.697 65.49C260.269 66.27 262.307 65.79 263.869 66.59C265.079 67.19 265.245 68.24 265.514 69.44C265.646 70.5202 265.843 71.592 266.104 72.65C266.522 73.4564 267.094 74.179 267.79 74.78C268.415 75.5502 268.888 76.4247 269.186 77.36C269.884 79.4768 270.124 81.7099 269.89 83.92C269.414 87.618 268.459 91.2433 267.045 94.71C266.217 96.96 265.917 99.31 264.645 101.44C264.304 102.01 262.783 103.68 262.224 102.44C262.124 102.164 262.096 101.869 262.141 101.58C262.307 99.25 264.541 84.29 258.686 86.09C258.098 86.294 257.566 86.624 257.129 87.0552C256.692 87.4865 256.361 88.0078 256.162 88.58C255.687 89.9087 255.51 91.3202 255.645 92.72C255.645 92.93 255.645 93.13 255.645 93.34C255.665 93.4632 255.651 93.5894 255.603 93.7054C255.556 93.8214 255.478 93.9232 255.376 94Z" fill="#3D3D7A"/>
<path d="M247.627 111.6C254.3 110.6 258.696 105.47 258.696 105.47C258.071 107.978 256.611 110.217 254.54 111.843C252.468 113.47 249.901 114.393 247.234 114.47L247.627 111.6Z" fill="#F7B094"/>
<path d="M266.435 318.72H260.228C259.781 318.72 259.352 318.548 259.035 318.243C258.719 317.937 258.542 317.522 258.542 317.09V228.56H268.09L268.09 317.09C268.09 317.517 267.917 317.927 267.607 318.232C267.297 318.537 266.877 318.712 266.435 318.72Z" fill="#0A2033"/>
<path d="M283.059 237.53H243.635C241.904 237.53 240.244 236.865 239.019 235.682C237.795 234.498 237.108 232.894 237.108 231.22V229.83H289.587V231.22C289.587 232.894 288.899 234.498 287.675 235.682C286.451 236.865 284.791 237.53 283.059 237.53Z" fill="#30475E"/>
<path d="M266.435 330.36H260.228C259.781 330.36 259.352 330.188 259.035 329.883C258.719 329.577 258.542 329.162 258.542 328.73V308.22H268.09V328.74C268.087 329.165 267.913 329.573 267.603 329.876C267.294 330.178 266.875 330.352 266.435 330.36Z" fill="#0A2033"/>
<path d="M213.82 325C213.82 326.068 214.148 327.112 214.762 328C215.376 328.888 216.248 329.58 217.269 329.989C218.29 330.398 219.413 330.505 220.496 330.296C221.58 330.088 222.575 329.574 223.357 328.818C224.138 328.063 224.67 327.101 224.885 326.054C225.101 325.006 224.99 323.92 224.567 322.934C224.145 321.947 223.429 321.104 222.51 320.51C221.591 319.917 220.511 319.6 219.407 319.6C217.925 319.6 216.504 320.169 215.456 321.182C214.409 322.194 213.82 323.568 213.82 325Z" fill="#0A2033"/>
<path d="M301.71 325C301.71 326.068 302.038 327.112 302.651 328C303.265 328.888 304.138 329.58 305.158 329.989C306.179 330.398 307.302 330.505 308.386 330.296C309.47 330.088 310.465 329.574 311.246 328.818C312.027 328.063 312.56 327.101 312.775 326.053C312.991 325.006 312.88 323.92 312.457 322.933C312.034 321.947 311.318 321.103 310.4 320.51C309.481 319.917 308.401 319.6 307.296 319.6C305.815 319.6 304.394 320.169 303.346 321.182C302.299 322.194 301.71 323.568 301.71 325Z" fill="#0A2033"/>
<path d="M253.741 317.57H272.941V301.35H253.741V317.57Z" fill="#30475E"/>
<path d="M312.873 321.39H213.811V319.51C213.811 317.985 214.438 316.522 215.553 315.444C216.669 314.366 218.182 313.76 219.759 313.76H306.925C308.502 313.76 310.015 314.366 311.131 315.444C312.246 316.522 312.873 317.985 312.873 319.51V321.39Z" fill="#FBD15B"/>
<path d="M263.351 239.35H260.041V299.9H263.351V239.35Z" fill="#30475E"/>
<path d="M300.852 164.4C300.309 164.382 299.768 164.474 299.263 164.671C298.759 164.867 298.303 165.163 297.924 165.539C297.545 165.916 297.252 166.365 297.063 166.858C296.874 167.35 296.794 167.876 296.828 168.4C297.479 179.4 295.069 206.2 284.486 215.34C271.534 226.53 234.831 225.01 234.831 225.01C234.831 225.01 228.769 232.2 240.893 233.79C253.017 235.38 287.165 234.33 295.431 226.87C303.427 219.65 308.176 200.74 304.607 167.87C304.51 166.958 304.076 166.111 303.384 165.484C302.692 164.858 301.789 164.494 300.841 164.46L300.852 164.4Z" fill="#FBD15B"/>
<path d="M232.089 299.9L236.455 309.52L223.089 315.19L218.703 305.54L232.089 299.9Z" fill="url(#paint2_radial_0_385)"/>
<path d="M295.152 193C294.325 194.6 234.914 193 229.297 193.53C229.297 193.53 192.935 210.3 187.721 226.01C187.158 228.019 186.983 230.11 187.204 232.18C188.663 254.29 214.711 307.24 214.711 307.24L218.704 305.54L232.09 299.9L233.994 299.1C233.994 299.1 213.304 239.59 217.442 236.39C221.58 233.19 268.401 225.21 284.683 220.96C300.966 216.71 295.152 193 295.152 193Z" fill="#56548C"/>
<path d="M181.121 302.38L182.166 316.83H167.569L166.524 302.35L181.121 302.38Z" fill="url(#paint3_radial_0_385)"/>
<path d="M229.007 193L228.479 193.23C228.479 193.23 167.621 201.52 157.69 218C151.235 228.74 163.71 307.19 163.71 307.19L185.248 307.24C185.248 307.24 182.031 241.89 183.107 238.24C184.307 234.09 186.376 232.59 187.245 232.16C187.024 230.09 187.199 227.998 187.762 225.99C192.935 210.28 229.338 193.51 229.338 193.51C229.176 193.377 229.061 193.199 229.007 193Z" fill="#3D3D7A"/>
<path d="M287.797 138.66L283.721 139.2C282.99 146.353 281.847 153.461 280.297 160.49L229.441 179.15L228.748 182.71H228.117C228.117 183.45 228.117 184.17 228.169 184.84C228.283 188.94 228.562 191.9 229.007 193.08C229.054 193.272 229.158 193.446 229.307 193.58C230.693 194.67 248.672 192.58 268.121 199.46C284.983 205.46 294.438 211.98 294.872 211.1C300.179 200.4 290.528 158.6 287.797 138.66Z" fill="#FF8578"/>
<path d="M282.449 163C281.093 169.3 277.597 181.82 270.718 183.5C261.738 185.71 244.39 185.59 228.128 184.75C228.128 184.08 228.128 183.36 228.076 182.62H228.707L229.4 179.06L280.256 160.4C281.806 153.37 282.949 146.263 283.68 139.11C283.68 139.11 283.68 139.18 283.68 139.29C283.835 141 284.518 153.74 282.449 163Z" fill="#F4675D"/>
<path d="M231.521 123C230.611 124.59 229.297 141.69 228.594 158.66L218.197 149.28C222.604 141 231.521 123 231.521 123Z" fill="#F4675D"/>
<path d="M225.283 171C216.511 172.47 208.442 173.74 208.442 173.74V174.15C198.666 166.61 183.811 145.25 183.811 145.25C183.811 145.25 188.259 140.09 189.366 138.73C189.531 138.52 213.759 154.64 215 154.5C215.311 154.5 216.552 152.36 218.207 149.23L228.604 158.61C228.438 162.61 228.304 166.68 228.221 170.49C227.238 170.68 226.255 170.84 225.283 171Z" fill="#F7B094"/>
<path d="M208.442 173.75L208.225 180.75H181.783C181.783 180.75 184.411 170.75 191.569 170.75C198.728 170.75 201.48 174.41 201.48 174.41L208.442 173.75Z" fill="url(#paint4_radial_0_385)"/>
<path d="M189.158 138.58L189.355 138.74C188.248 140.1 183.799 145.26 183.799 145.26L181.068 143.37C180.053 143.891 178.918 144.156 177.768 144.143C176.618 144.129 175.491 143.835 174.489 143.29C170.806 141.36 173.082 136.74 173.279 136.2C172.565 136.39 168.106 139.84 167.455 139.48C166.803 139.12 166.244 137.89 171.189 133.18C176.134 128.47 182.817 134.52 183.024 134.52L189.158 138.58Z" fill="#F7B094"/>
<path d="M175.039 142.49C175.039 142.49 174.004 144.42 175.866 145.26C178.143 146.136 180.574 146.578 183.025 146.56C184.607 146.41 185.87 144.27 185.87 144.27L181.07 139.92H177.242L175.039 142.49Z" fill="#F7B094"/>
<path d="M174.748 143.44C175.038 142.49 177.758 143 179.445 143.04C180.686 143.04 181.369 142.75 181.751 141.83C182.134 140.91 180.334 139.46 179.983 139.92C179.631 140.38 180.634 141.02 180.655 141.63C180.676 142.24 178.886 142.44 177.489 142.44C176.222 142.488 174.957 142.605 173.703 142.79L174.748 143.44Z" fill="#E8987C"/>
<path d="M277.71 169.56L251.848 160.69C249.955 164.1 247.937 166.69 245.941 167.16C242.92 167.93 235.596 169.26 228.241 170.5C227.269 170.68 226.286 170.84 225.313 171.01C216.541 172.48 208.472 173.75 208.472 173.75V174.16V174.43L208.275 180.75V182.35C214.904 182.104 221.541 182.207 228.158 182.66C243.675 183.73 263.693 184.37 270.324 181.35C273.427 179.93 275.91 175.26 277.865 169.51L277.71 169.56Z" fill="url(#paint5_radial_0_385)"/>
<path d="M251.806 160.69L277.71 169.56L276.541 172.91L250.906 162.28L251.806 160.69Z" fill="#F7B094"/>
<path d="M251.818 160.69C249.925 164.1 247.907 166.69 245.911 167.16C242.89 167.93 235.566 169.26 228.211 170.5C228.294 166.69 228.428 162.66 228.594 158.62C229.297 141.62 230.611 124.55 231.521 122.96C233.001 120.29 237.066 114.49 243.48 113.16V113.24C243.48 113.24 241.287 125.9 254.518 125.9C267.107 125.9 268.711 114.06 268.835 112.9C275.311 113.6 285.242 116.74 286.618 129.33C286.897 131.82 287.29 135.01 287.807 138.64L283.721 139.18C283.721 139.18 282.066 156.92 277.825 169.49L277.721 169.54L251.818 160.69Z" fill="#FF8578"/>
<g style="mix-blend-mode:screen">
<path d="M251.548 158.39L261.882 134.19L254.269 159.36L251.548 158.39Z" fill="#6D4B35"/>
</g>
<path d="M268.824 112.92H263.186C263.186 112.92 255.158 121.43 250.006 121.43C244.855 121.43 247.627 112.97 247.627 112.97H245.113C241.622 112.973 238.254 114.216 235.65 116.464C233.046 118.712 231.389 121.807 230.993 125.16C230.899 125.95 230.806 126.7 230.734 127.39C230.186 132.54 251.765 136.28 251.765 136.28L262.886 135.68L269.63 123L270.975 117.78L268.824 112.92Z" fill="#FF8578"/>
<path d="M200.807 326.26C201.314 328.87 203.176 330.72 205.876 330.26L241.773 323.79C242.209 323.71 242.594 323.466 242.844 323.112C243.094 322.757 243.189 322.322 243.107 321.9L242.518 318.82C242.518 318.82 204.759 325.21 200.797 326.27L200.807 326.26Z" fill="#F1F2F2"/>
<path d="M211.494 317.53L212.601 316.59L214.67 314.77C215.032 314.46 215.394 314.15 215.704 313.85L217.525 312.28L218.632 311.28L220.101 310.01C220.246 309.893 220.429 309.829 220.618 309.829C220.807 309.829 220.99 309.893 221.135 310.01C222.614 311.21 227.342 313.95 236.021 308.78C236.119 308.723 236.227 308.686 236.339 308.67C236.452 308.654 236.567 308.66 236.677 308.688C236.787 308.716 236.89 308.765 236.98 308.833C237.07 308.9 237.145 308.984 237.201 309.08L242.373 318.78C242.373 318.78 204.614 325.17 200.652 326.23C202.101 325.46 206.932 321.43 211.494 317.53Z" fill="#3D3D7A"/>
<path d="M144.272 325.92C144.344 328.57 145.876 330.68 148.617 330.62L185.124 329.76C185.344 329.755 185.561 329.708 185.762 329.621C185.963 329.535 186.145 329.411 186.297 329.257C186.449 329.103 186.568 328.922 186.647 328.723C186.726 328.524 186.764 328.313 186.758 328.1L186.676 324.97C186.676 324.97 148.4 325.46 144.262 325.9L144.272 325.92Z" fill="#F1F2F2"/>
<path d="M156.241 318.94L157.482 318.19L159.872 316.72L161.062 315.98L163.131 314.7L164.382 313.91L166.038 312.91C166.199 312.811 166.392 312.771 166.581 312.796C166.771 312.822 166.945 312.912 167.072 313.05C168.324 314.46 172.586 317.9 181.969 314.13C182.073 314.085 182.186 314.063 182.301 314.063C182.415 314.063 182.528 314.087 182.632 314.132C182.737 314.177 182.83 314.243 182.906 314.326C182.983 314.408 183.04 314.505 183.076 314.61L186.676 325C186.676 325 148.4 325.49 144.262 325.93C145.679 325.33 151.069 322.09 156.241 318.94Z" fill="#3D3D7A"/>
<path d="M118.308 182.35L98.8076 132.08H154.318L173.808 182.35H118.308Z" fill="#ABB5BA"/>
<path d="M177.242 182.35H173.807L154.317 132.08L157.431 132.22L175.462 177.71L177.242 182.35Z" fill="#8495A0"/>
<path d="M176.165 182.35H212.838L212.745 179.18H175.41" fill="#8495A0"/>
<path d="M332.424 191.93H323.59V332.16H332.424V191.93Z" fill="#8495A0"/>
<path d="M284.487 191.93H275.652V332.16H284.487V191.93Z" fill="#ABB5BA"/>
<path d="M130.927 191.93H122.093V332.16H130.927V191.93Z" fill="#8495A0"/>
<path d="M83.0005 191.93H74.166V332.16H83.0005V191.93Z" fill="#ABB5BA"/>
<path d="M341.248 182.35H65.7033C63.3322 182.35 61.4102 184.208 61.4102 186.5V188.32C61.4102 190.612 63.3322 192.47 65.7033 192.47H341.248C343.619 192.47 345.541 190.612 345.541 188.32V186.5C345.541 184.208 343.619 182.35 341.248 182.35Z" fill="#141B56"/>
<path d="M108.076 137.37L109.028 139.81H120.087L119.135 137.37H108.076Z" fill="#8495A0"/>
<path d="M218.197 149.24L217.4 150.72L228.594 161.9V158.62L218.197 149.24Z" fill="#E8987C"/>
<path d="M446.579 330.36H-0.234375V340.22H446.579V330.36Z" fill="#A5B7C6"/>
<path d="M375.738 257.21C373.969 265.54 374.518 279.72 363.138 282C360.035 282.6 357.107 280.55 355.328 278.19C352.99 275.11 352.431 268.58 352.473 264.85C352.473 261.85 353.507 258.59 353.88 255.61C354.242 252.39 354.542 249.15 354.914 245.93C356.311 234.33 362.58 224.6 373.194 218.8C374.021 222.61 375.894 225.8 377.538 229.5C378.308 231.176 378.951 232.904 379.462 234.67C380.331 237.77 379.276 240.9 378.5 243.86C377.342 248.21 376.69 252.78 375.738 257.21Z" fill="url(#paint6_linear_0_385)"/>
<path d="M361.183 282.25C361.256 281.55 361.349 280.85 361.442 280.15C362.836 280.004 364.177 279.553 365.363 278.83C367.291 277.789 369.037 276.46 370.535 274.89C370.618 274.81 370.473 274.68 370.39 274.75C368.876 276.063 367.189 277.176 365.373 278.06C364.182 278.698 362.899 279.16 361.566 279.43C361.69 278.6 361.825 277.77 361.959 276.94C363.376 276.615 364.709 276.017 365.88 275.18C367.862 273.944 369.74 272.56 371.497 271.04C368.714 272.99 365.621 275.77 362.094 276.38C362.28 275.38 362.487 274.3 362.704 273.27C362.71 273.217 362.71 273.163 362.704 273.11C366.78 272.11 369.532 269.03 372.645 266.53C372.697 266.53 372.645 266.41 372.594 266.45C369.49 268.75 366.635 271.38 362.838 272.5C363.169 271.03 363.511 269.56 363.873 268.09C367.465 266.811 370.642 264.634 373.08 261.78C373.08 261.73 373.08 261.67 373.007 261.71C370.426 264.168 367.377 266.121 364.028 267.46C364.359 266.01 364.7 264.56 365.063 263.1C366.702 262.48 368.29 261.738 369.811 260.88C371.283 259.932 372.537 258.699 373.494 257.26C373.503 257.253 373.511 257.244 373.516 257.234C373.521 257.224 373.524 257.213 373.523 257.201C373.523 257.19 373.52 257.179 373.514 257.169C373.508 257.159 373.5 257.151 373.49 257.144C373.48 257.138 373.468 257.135 373.457 257.134C373.445 257.133 373.433 257.135 373.422 257.139C373.411 257.144 373.402 257.151 373.395 257.16C373.387 257.168 373.382 257.179 373.38 257.19C371.311 260.05 368.207 260.95 365.197 262.45C365.497 261.09 365.766 259.73 366.014 258.36C369.356 256.58 372.997 254.93 374.89 251.51C374.89 251.51 374.89 251.45 374.838 251.51C372.832 254.65 369.314 256 366.128 257.71C366.128 257.46 366.221 257.22 366.252 256.98C366.459 255.7 366.656 254.43 366.842 253.16C368.766 252.372 370.606 251.404 372.335 250.27C373.636 249.59 374.774 248.653 375.676 247.52C375.687 247.504 375.691 247.485 375.687 247.466C375.684 247.447 375.672 247.431 375.656 247.42C375.639 247.409 375.619 247.406 375.6 247.409C375.58 247.413 375.563 247.424 375.552 247.44C373.763 249.93 369.832 251.36 366.925 252.61C367.111 251.32 367.297 250.04 367.494 248.75C370.711 246.87 374.507 245.82 376.483 242.43C376.545 242.33 376.39 242.23 376.328 242.33C374.259 245.43 370.659 246.39 367.576 248.15C367.701 247.36 367.814 246.56 367.938 245.76C371.425 244.53 375.469 241.71 377.301 238.67C377.316 238.637 377.318 238.6 377.308 238.566C377.297 238.531 377.274 238.501 377.243 238.482C377.211 238.463 377.174 238.455 377.137 238.46C377.1 238.465 377.066 238.483 377.042 238.51C374.785 241.528 371.653 243.832 368.042 245.13C368.249 243.84 368.466 242.56 368.704 241.27C368.727 241.236 368.745 241.199 368.756 241.16C370.335 240.573 371.83 239.794 373.204 238.84C374.887 237.949 376.326 236.684 377.404 235.15C377.507 234.98 377.218 234.81 377.114 234.99C375.563 237.66 371.942 239.45 368.838 240.47C368.932 240 369.014 239.53 369.107 239.06C369.252 238.36 369.397 237.66 369.552 236.97C370.794 236.14 372.376 235.74 373.618 234.86C374.684 234.076 375.678 233.202 376.587 232.25C376.68 232.16 376.535 232.02 376.442 232.1C375.223 233.271 373.849 234.279 372.356 235.1C371.497 235.55 370.514 235.8 369.687 236.28C369.925 235.14 370.173 234 370.4 232.85H370.494C370.529 232.86 370.566 232.859 370.601 232.849C370.636 232.838 370.667 232.818 370.69 232.79C372.387 232.38 373.68 230.97 374.828 229.79C374.828 229.79 374.828 229.72 374.828 229.79C373.676 230.979 372.261 231.901 370.69 232.49H370.576C370.752 231.56 370.928 230.62 371.094 229.69C371.123 229.688 371.152 229.679 371.178 229.666C371.204 229.652 371.227 229.634 371.246 229.611C371.264 229.589 371.277 229.563 371.285 229.535C371.293 229.507 371.295 229.478 371.29 229.45C372.183 228.844 373.014 228.157 373.773 227.4C373.825 227.35 373.773 227.26 373.68 227.31C372.921 227.958 372.092 228.524 371.207 229C371.54 227.067 371.765 225.117 371.88 223.16C371.88 222.98 371.611 222.98 371.59 223.16C371.414 225.05 371.135 226.92 370.794 228.78C369.785 227.637 368.933 226.374 368.259 225.02C368.259 225.004 368.253 224.989 368.241 224.978C368.229 224.966 368.214 224.96 368.197 224.96C368.181 224.96 368.165 224.966 368.153 224.978C368.142 224.989 368.135 225.004 368.135 225.02C368.451 225.839 368.868 226.618 369.376 227.34C369.752 228.041 370.188 228.71 370.68 229.34C370.494 230.34 370.287 231.34 370.08 232.34C368.756 232.276 367.504 231.734 366.573 230.821C365.643 229.908 365.1 228.691 365.052 227.41C365.052 227.23 364.752 227.23 364.763 227.41C364.853 228.727 365.371 229.983 366.242 231C367.201 231.934 368.459 232.526 369.811 232.68C369.563 233.83 369.304 234.98 369.045 236.13C368.028 235.491 367.053 234.789 366.128 234.03C364.813 232.831 363.583 231.548 362.445 230.19C362.321 230.06 362.104 230.25 362.238 230.38C363.296 231.693 364.44 232.939 365.663 234.11C366.669 235.028 367.772 235.842 368.952 236.54V236.72C368.92 236.756 368.903 236.802 368.903 236.85C368.903 236.898 368.92 236.944 368.952 236.98C368.704 238.08 368.445 239.18 368.207 240.28C368.213 240.347 368.213 240.414 368.207 240.48C365.559 239.31 361.597 237.27 361.245 234.3C361.245 234.02 360.78 234.1 360.842 234.39C361.628 237.75 365.456 239.24 368.083 241.08C367.825 242.32 367.587 243.57 367.369 244.82C365.646 244.299 364.029 243.494 362.59 242.44C361.287 241.44 359.435 240.23 358.856 238.67C358.856 238.62 358.752 238.67 358.773 238.67C359.321 240.22 360.976 241.28 362.187 242.34C363.608 243.712 365.345 244.74 367.256 245.34C367.24 245.396 367.24 245.454 367.256 245.51C367.121 246.3 366.997 247.1 366.863 247.89C363.645 247.65 359.145 245.29 357.5 242.94C358.665 244.612 360.313 245.917 362.238 246.69C363.647 247.5 365.202 248.043 366.821 248.29L366.138 252.71C364.742 252.21 363.263 251.97 361.887 251.43C359.886 250.614 358.197 249.216 357.056 247.43C356.973 247.32 356.797 247.43 356.869 247.52C359.094 250.94 362.3 251.95 366.056 253.23C365.869 254.44 365.673 255.65 365.466 256.85C362.363 256.28 358.421 254.47 356.859 251.85C356.745 251.66 356.435 251.85 356.549 252.01C357.628 253.581 359.16 254.812 360.956 255.55C362.317 256.375 363.82 256.958 365.394 257.27C365.389 257.31 365.389 257.35 365.394 257.39C365.083 259.13 364.732 260.85 364.359 262.57C360.925 261.74 358.711 259.28 356.207 256.98C356.042 256.82 355.763 257.06 355.938 257.23C358.483 259.64 360.718 262.18 364.214 263.08C363.894 264.48 363.563 265.87 363.18 267.27C360.142 266.352 357.458 264.576 355.473 262.17C355.338 262 355.1 262.22 355.225 262.39C357.241 264.883 359.955 266.764 363.045 267.81C362.663 269.3 362.269 270.81 361.876 272.28C358.963 271.723 356.39 270.086 354.707 267.72C354.707 267.67 354.573 267.72 354.614 267.8C356.249 270.01 358.752 272.56 361.732 272.8L361.349 274.22C361.276 274.51 361.194 274.8 361.111 275.1C358.861 274.543 356.75 273.553 354.904 272.19C354.852 272.19 354.79 272.19 354.842 272.27C356.639 273.783 358.758 274.896 361.049 275.53C360.801 276.43 360.532 277.35 360.273 278.29C359.717 278.011 359.139 277.773 358.545 277.58C357.532 277.173 356.579 276.638 355.711 275.99C355.618 275.99 355.525 276.06 355.607 276.12C356.361 276.739 357.183 277.275 358.059 277.72C358.783 277.98 359.476 278.32 360.18 278.62C359.145 282.34 358.225 286.3 358.721 289.87C358.835 290.66 360.211 290.87 360.418 290.03C360.834 287.454 361.09 284.856 361.183 282.25Z" fill="#747DED"/>
<path d="M339.687 254.83C341.756 263.1 348.387 275.74 339.035 282.43C336.521 284.23 332.942 283.57 330.294 282.16C326.828 280.32 323.476 274.63 321.883 271.23C320.621 268.54 320.125 265.12 319.131 262.23C318.097 259.16 316.907 256.11 315.852 253.03C312.056 242 313.483 230.61 320.58 221C322.99 224.12 326.094 226.28 329.187 228.93C330.621 230.131 331.959 231.435 333.19 232.83C335.331 235.29 335.745 238.55 336.294 241.56C337.204 246 338.611 250.43 339.687 254.83Z" fill="url(#paint7_linear_0_385)"/>
<path d="M359.435 248.42C359.911 258.93 365.001 275.79 352.039 281.82C348.542 283.45 344.342 281.82 341.466 279.54C337.701 276.54 334.98 268.86 333.863 264.37C332.973 260.81 333.191 256.55 332.653 252.87C332.084 248.87 331.422 244.94 330.873 240.96C328.918 226.62 333.397 213.11 344.322 203.05C346.494 207.38 349.753 210.7 352.887 214.6C354.336 216.387 355.647 218.276 356.808 220.25C358.825 223.71 358.546 227.77 358.546 231.56C358.525 237.15 359.177 242.82 359.435 248.42Z" fill="url(#paint8_linear_0_385)"/>
<path d="M366.583 286.66L366.107 295.2L365.352 308.51L364.121 330.36H333.511L332.28 308.51L331.535 295.2L331.049 286.66H366.583Z" fill="#95A8B5"/>
<path d="M366.107 295.2L366.003 296.92L365.91 298.69L365.351 308.51H332.279L331.731 298.69L331.627 296.92L331.534 295.2H366.107Z" fill="#A5B7C6"/>
<path d="M366.004 296.92L365.911 298.69H331.731L331.628 296.92H366.004Z" fill="#95A8B5"/>
</g>
<defs>
<radialGradient id="paint0_radial_0_385" cx="0" cy="0" r="1" gradientUnits="userSpaceOnUse" gradientTransform="translate(256.09 112.38) scale(13.3759 12.93)">
<stop stop-color="#FFC8AF"/>
<stop offset="1" stop-color="#FFBB9C"/>
</radialGradient>
<radialGradient id="paint1_radial_0_385" cx="0" cy="0" r="1" gradientUnits="userSpaceOnUse" gradientTransform="translate(12008.5 5431.66) rotate(-11.7565) scale(754.193 921.383)">
<stop stop-color="#FFC8AF"/>
<stop offset="1" stop-color="#FFBB9C"/>
</radialGradient>
<radialGradient id="paint2_radial_0_385" cx="0" cy="0" r="1" gradientUnits="userSpaceOnUse" gradientTransform="translate(4655.92 6225.54) scale(144.321 124.308)">
<stop stop-color="#FFC8AF"/>
<stop offset="1" stop-color="#FFBB9C"/>
</radialGradient>
<radialGradient id="paint3_radial_0_385" cx="0" cy="0" r="1" gradientUnits="userSpaceOnUse" gradientTransform="translate(3271.34 5943.61) scale(115.746 107.152)">
<stop stop-color="#FFC8AF"/>
<stop offset="1" stop-color="#FFBB9C"/>
</radialGradient>
<radialGradient id="paint4_radial_0_385" cx="0" cy="0" r="1" gradientUnits="userSpaceOnUse" gradientTransform="translate(6674.76 2677.75) scale(1104.73 414.4)">
<stop stop-color="#FFC8AF"/>
<stop offset="1" stop-color="#FFBB9C"/>
</radialGradient>
<radialGradient id="paint5_radial_0_385" cx="0" cy="0" r="1" gradientUnits="userSpaceOnUse" gradientTransform="translate(17157.5 5891.51) scale(2883.8 947.289)">
<stop stop-color="#FFC8AF"/>
<stop offset="1" stop-color="#FFBB9C"/>
</radialGradient>
<linearGradient id="paint6_linear_0_385" x1="364.238" y1="219.19" x2="364.297" y2="282.261" gradientUnits="userSpaceOnUse">
<stop stop-color="#606BF1"/>
<stop offset="1" stop-color="#58479F"/>
</linearGradient>
<linearGradient id="paint7_linear_0_385" x1="7373.74" y1="-15312.7" x2="7527.38" y2="-12767.9" gradientUnits="userSpaceOnUse">
<stop stop-color="#606BF1"/>
<stop offset="1" stop-color="#58479F"/>
</linearGradient>
<linearGradient id="paint8_linear_0_385" x1="11677.5" y1="-11589.3" x2="10979.2" y2="-8301.7" gradientUnits="userSpaceOnUse">
<stop stop-color="#606BF1"/>
<stop offset="1" stop-color="#58479F"/>
</linearGradient>
<clipPath id="clip0_0_385">
<rect width="451" height="340" fill="white"/>
</clipPath>
</defs>
</svg>
