<svg width="476" height="344" viewBox="0 0 476 344" fill="none" xmlns="http://www.w3.org/2000/svg">
<g clip-path="url(#clip0_0_598)">
<path d="M416.75 341.618C416.75 341.618 451.866 349.928 469.153 312.265C491.579 263.404 460.103 216.986 405.801 213.642C327.489 208.822 370.891 84.0068 247.313 117.873C212.562 127.395 136.984 78.2372 92.4915 161.53C84.9262 175.692 62.3103 174.997 32.1792 199.159C-20.9731 241.781 -1.83879 342.07 42.9457 342.526C87.7298 342.981 416.75 341.618 416.75 341.618Z" fill="#DCD6FC"/>
<path d="M427.769 171.486H382.547V314.428H427.769V171.486Z" fill="#EBEBEB"/>
<path d="M466.162 171.512H427.769V314.402H466.162V171.512Z" fill="#E0E0E0"/>
<path d="M422.364 177.274H386.085V208.064H422.364V177.274Z" fill="#E0E0E0"/>
<path d="M422.364 211.554H386.085V242.344H422.364V211.554Z" fill="#E0E0E0"/>
<path d="M422.364 245.834H386.085V276.624H422.364V245.834Z" fill="#E0E0E0"/>
<path d="M422.364 280.114H386.085V310.904H422.364V280.114Z" fill="#E0E0E0"/>
<path d="M404.228 182.959C404.23 183.203 404.157 183.443 404.019 183.647C403.881 183.852 403.685 184.011 403.454 184.106C403.223 184.201 402.968 184.227 402.722 184.18C402.476 184.133 402.25 184.016 402.072 183.844C401.894 183.672 401.773 183.451 401.723 183.212C401.674 182.972 401.698 182.723 401.794 182.497C401.889 182.27 402.051 182.077 402.26 181.941C402.468 181.805 402.713 181.732 402.963 181.732C403.297 181.732 403.618 181.861 403.855 182.091C404.092 182.321 404.226 182.633 404.228 182.959Z" fill="#FAFAFA"/>
<path d="M404.228 217.662C404.23 217.907 404.157 218.146 404.019 218.351C403.881 218.555 403.685 218.715 403.454 218.809C403.223 218.904 402.968 218.93 402.722 218.883C402.476 218.837 402.25 218.72 402.072 218.547C401.894 218.375 401.773 218.155 401.723 217.915C401.674 217.675 401.698 217.426 401.794 217.2C401.889 216.974 402.051 216.78 402.26 216.644C402.468 216.508 402.713 216.435 402.963 216.435C403.297 216.435 403.618 216.564 403.855 216.794C404.092 217.024 404.226 217.336 404.228 217.662Z" fill="#FAFAFA"/>
<path d="M404.228 252.322C404.228 252.566 404.154 252.805 404.015 253.008C403.876 253.212 403.679 253.37 403.447 253.463C403.216 253.557 402.962 253.581 402.716 253.534C402.471 253.486 402.246 253.368 402.069 253.196C401.892 253.023 401.771 252.803 401.723 252.563C401.674 252.323 401.699 252.075 401.795 251.849C401.89 251.624 402.052 251.431 402.26 251.295C402.468 251.159 402.713 251.087 402.963 251.087C403.299 251.087 403.621 251.217 403.858 251.448C404.095 251.68 404.228 251.994 404.228 252.322Z" fill="#FAFAFA"/>
<path d="M404.228 286.999C404.23 287.244 404.157 287.484 404.019 287.688C403.881 287.892 403.685 288.052 403.454 288.147C403.223 288.242 402.968 288.267 402.722 288.221C402.476 288.174 402.25 288.057 402.072 287.884C401.894 287.712 401.773 287.492 401.723 287.252C401.674 287.012 401.698 286.763 401.794 286.537C401.889 286.311 402.051 286.117 402.26 285.981C402.468 285.845 402.713 285.772 402.963 285.772C403.297 285.772 403.618 285.901 403.855 286.131C404.092 286.361 404.226 286.673 404.228 286.999Z" fill="#FAFAFA"/>
<path d="M387.775 314.428H382.547V343.102H387.775V314.428Z" fill="#E0E0E0"/>
<path d="M427.591 314.428H422.363V343.102H427.591V314.428Z" fill="#E0E0E0"/>
<path d="M465.604 314.428H460.376V343.102H465.604V314.428Z" fill="#E0E0E0"/>
<path d="M236.237 156.221H138.132L145.377 87.9719H244.323L236.237 156.221Z" fill="#263238"/>
<path d="M231.239 156.221H133.134L140.388 87.9719H239.325L231.239 156.221Z" fill="#455A64"/>
<path d="M227.604 153.128H136.566L143.298 89.7948H235.105L227.604 153.128Z" fill="#F5F5F5"/>
<path d="M146.439 142.571C146.306 142.571 147.208 133.025 148.456 121.293C149.703 109.561 150.8 100.041 150.924 100.058C151.048 100.075 150.154 109.561 148.907 121.336C147.66 133.111 146.563 142.58 146.439 142.571Z" fill="#263238"/>
<path d="M163.007 102.175C159.969 102.474 156.907 102.474 153.869 102.175C156.907 101.875 159.969 101.875 163.007 102.175Z" fill="#263238"/>
<path d="M201.896 102.175C201.896 102.296 193.748 102.399 183.69 102.399C173.632 102.399 165.493 102.296 165.493 102.175C165.493 102.054 173.641 101.95 183.69 101.95C193.739 101.95 201.896 102.054 201.896 102.175Z" fill="#E8505B"/>
<path d="M161.937 124.679C158.896 124.979 155.831 124.979 152.79 124.679C155.831 124.38 158.896 124.38 161.937 124.679Z" fill="#263238"/>
<path d="M200.817 124.679C200.817 124.809 192.669 124.904 182.62 124.904C172.57 124.904 164.414 124.809 164.414 124.679C164.414 124.55 172.562 124.455 182.62 124.455C192.678 124.455 200.817 124.558 200.817 124.679Z" fill="#E8505B"/>
<path d="M188.414 135.055C188.414 135.176 180.267 135.28 170.217 135.28C160.168 135.28 152.012 135.176 152.012 135.055C152.012 134.934 160.159 134.83 170.217 134.83C180.276 134.83 188.414 134.934 188.414 135.055Z" fill="#E8505B"/>
<path d="M167.077 108.524C164.942 108.757 162.793 108.835 160.646 108.758C158.499 108.835 156.35 108.757 154.215 108.524C156.351 108.302 158.5 108.227 160.646 108.3C162.793 108.227 164.942 108.302 167.077 108.524Z" fill="#E8505B"/>
<path d="M166.714 117.846C164.578 118.068 162.429 118.143 160.283 118.071C158.136 118.143 155.987 118.068 153.852 117.846C155.987 117.619 158.136 117.544 160.283 117.621C162.429 117.544 164.579 117.619 166.714 117.846Z" fill="#E8505B"/>
<path d="M177.586 131.159C175.45 131.381 173.301 131.456 171.155 131.383C169.008 131.456 166.859 131.381 164.724 131.159C166.859 130.931 169.008 130.856 171.155 130.934C173.301 130.856 175.451 130.932 177.586 131.159Z" fill="#E8505B"/>
<path d="M213.812 108.524C213.812 108.654 206.461 108.758 197.393 108.758C188.326 108.758 180.966 108.654 180.966 108.524C180.966 108.395 188.317 108.3 197.393 108.3C206.47 108.3 213.812 108.403 213.812 108.524Z" fill="#263238"/>
<path d="M203.674 118.381C203.674 118.511 196.323 118.606 187.256 118.606C178.188 118.606 170.828 118.511 170.828 118.381C170.828 118.252 178.179 118.157 187.256 118.157C196.332 118.157 203.674 118.261 203.674 118.381Z" fill="#263238"/>
<path d="M214.98 131.159C214.98 131.28 207.629 131.383 198.561 131.383C189.494 131.383 182.116 131.271 182.116 131.159C182.116 131.046 189.467 130.934 198.544 130.934C207.62 130.934 214.98 131.029 214.98 131.159Z" fill="#263238"/>
<path d="M184.991 142.571C184.991 142.692 177.631 142.796 168.563 142.796C159.496 142.796 152.136 142.692 152.136 142.571C152.136 142.45 159.496 142.346 168.563 142.346C177.631 142.346 184.991 142.441 184.991 142.571Z" fill="#263238"/>
<path d="M221.314 142.571C221.314 142.692 213.963 142.796 204.895 142.796C195.828 142.796 188.468 142.692 188.468 142.571C188.468 142.45 195.819 142.346 204.895 142.346C213.972 142.346 221.314 142.441 221.314 142.571Z" fill="#263238"/>
<path d="M184.982 146.277C184.982 146.407 177.631 146.502 168.563 146.502C159.496 146.502 152.136 146.407 152.136 146.277C152.136 146.148 159.487 146.052 168.563 146.052C177.64 146.052 184.982 146.156 184.982 146.277Z" fill="#263238"/>
<path d="M186.584 111.202C186.584 111.323 179.232 111.427 170.165 111.427C161.097 111.427 153.737 111.323 153.737 111.202C153.737 111.081 161.089 110.978 170.165 110.978C179.241 110.978 186.584 111.081 186.584 111.202Z" fill="#263238"/>
<path d="M177.825 108.568C175.012 108.867 172.173 108.867 169.359 108.568C172.172 108.257 175.012 108.257 177.825 108.568Z" fill="#455A64"/>
<path d="M160.885 127.738C158.074 128.037 155.238 128.037 152.428 127.738C155.238 127.438 158.074 127.438 160.885 127.738Z" fill="#455A64"/>
<path d="M160.654 131.159C157.844 131.458 155.008 131.458 152.197 131.159C155.008 130.859 157.844 130.859 160.654 131.159Z" fill="#455A64"/>
<path d="M233.964 96.5679C233.964 96.6888 213.493 96.7925 188.237 96.7925C162.981 96.7925 142.511 96.6888 142.511 96.5679C142.511 96.4469 162.981 96.3346 188.237 96.3346C213.493 96.3346 233.964 96.4383 233.964 96.5679Z" fill="#263238"/>
<path d="M149.765 93.5441C149.765 93.7546 149.701 93.9604 149.581 94.1353C149.461 94.3103 149.291 94.4464 149.091 94.5266C148.892 94.6068 148.673 94.6273 148.461 94.5856C148.25 94.5439 148.056 94.4418 147.904 94.2924C147.753 94.1429 147.65 93.9527 147.609 93.746C147.568 93.5393 147.591 93.3254 147.674 93.1314C147.758 92.9374 147.899 92.7721 148.079 92.6563C148.259 92.5406 148.47 92.4798 148.686 92.4815C148.828 92.4815 148.969 92.509 149.101 92.5625C149.232 92.616 149.352 92.6944 149.452 92.7932C149.552 92.892 149.632 93.0092 149.685 93.1381C149.739 93.267 149.766 93.405 149.765 93.5441Z" fill="white"/>
<path d="M154.418 93.5441C154.418 93.7546 154.354 93.9604 154.234 94.1353C154.114 94.3103 153.944 94.4464 153.745 94.5266C153.545 94.6068 153.326 94.6273 153.115 94.5856C152.903 94.5439 152.71 94.4418 152.558 94.2924C152.406 94.1429 152.303 93.9527 152.262 93.746C152.221 93.5393 152.244 93.3254 152.328 93.1314C152.411 92.9374 152.552 92.7721 152.732 92.6563C152.912 92.5406 153.124 92.4798 153.339 92.4815C153.482 92.4815 153.623 92.509 153.754 92.5625C153.886 92.616 154.005 92.6944 154.105 92.7932C154.206 92.892 154.285 93.0092 154.339 93.1381C154.392 93.267 154.42 93.405 154.418 93.5441Z" fill="white"/>
<path d="M159.116 93.5441C159.116 93.7546 159.052 93.9604 158.932 94.1353C158.812 94.3103 158.641 94.4464 158.442 94.5266C158.243 94.6068 158.023 94.6273 157.812 94.5856C157.601 94.5439 157.407 94.4418 157.255 94.2924C157.103 94.1429 157 93.9527 156.959 93.746C156.918 93.5393 156.941 93.3254 157.025 93.1314C157.109 92.9374 157.249 92.7721 157.429 92.6563C157.61 92.5406 157.821 92.4798 158.036 92.4815C158.179 92.4815 158.32 92.509 158.451 92.5625C158.583 92.616 158.702 92.6944 158.803 92.7932C158.903 92.892 158.982 93.0092 159.036 93.1381C159.09 93.267 159.117 93.405 159.116 93.5441Z" fill="white"/>
<path d="M365.119 158.285H261.918L269.543 86.4946H373.62L365.119 158.285Z" fill="#263238"/>
<path d="M359.865 158.285H256.664L264.29 86.4946H368.375L359.865 158.285Z" fill="#455A64"/>
<path d="M356.043 155.037H260.272L267.35 88.4211H363.933L356.043 155.037Z" fill="#EBEBEB"/>
<path d="M270.712 142.925C270.588 142.925 271.544 132.887 272.844 120.541C274.144 108.196 275.312 98.192 275.436 98.2093C275.56 98.2265 274.604 108.239 273.304 120.593C272.004 132.947 270.836 142.934 270.712 142.925Z" fill="#263238"/>
<path d="M288.147 100.438C284.949 100.738 281.729 100.738 278.531 100.438C281.729 100.127 284.95 100.127 288.147 100.438Z" fill="#263238"/>
<path d="M329.052 100.438C329.052 100.559 320.48 100.663 309.9 100.663C299.32 100.663 290.757 100.559 290.757 100.438C290.757 100.317 299.329 100.205 309.9 100.205C320.472 100.205 329.052 100.309 329.052 100.438Z" fill="#E8505B"/>
<path d="M287.015 124.109C283.817 124.409 280.597 124.409 277.399 124.109C280.597 123.81 283.817 123.81 287.015 124.109Z" fill="#263238"/>
<path d="M327.921 124.109C327.921 124.23 319.34 124.334 308.768 124.334C298.197 124.334 289.625 124.23 289.625 124.109C289.625 123.988 298.197 123.885 308.768 123.885C319.34 123.885 327.921 123.988 327.921 124.109Z" fill="#E8505B"/>
<path d="M314.872 135.02C314.872 135.15 306.3 135.245 295.728 135.245C285.157 135.245 276.576 135.15 276.576 135.02C276.576 134.891 285.148 134.796 295.728 134.796C306.309 134.796 314.872 134.899 314.872 135.02Z" fill="#E8505B"/>
<path d="M292.385 107.082C287.882 107.381 283.363 107.381 278.859 107.082C283.363 106.782 287.882 106.782 292.385 107.082Z" fill="#E8505B"/>
<path d="M292.04 116.913C287.537 117.224 283.017 117.224 278.514 116.913C283.017 116.613 287.536 116.613 292.04 116.913Z" fill="#E8505B"/>
<path d="M303.478 130.925C298.975 131.225 294.456 131.225 289.952 130.925C294.456 130.626 298.975 130.626 303.478 130.925Z" fill="#E8505B"/>
<path d="M341.588 107.082C341.588 107.211 333.856 107.306 324.311 107.306C314.766 107.306 307.034 107.211 307.034 107.082C307.034 106.952 314.766 106.857 324.311 106.857C333.856 106.857 341.588 106.995 341.588 107.082Z" fill="#263238"/>
<path d="M330.929 117.448C330.929 117.578 323.188 117.673 313.652 117.673C304.116 117.673 296.375 117.578 296.375 117.448C296.375 117.319 304.107 117.224 313.652 117.224C323.197 117.224 330.929 117.362 330.929 117.448Z" fill="#263238"/>
<path d="M342.817 130.926C342.817 131.046 335.077 131.15 325.54 131.15C316.004 131.15 308.264 131.046 308.264 130.926C308.264 130.805 315.995 130.701 325.54 130.701C335.086 130.701 342.817 130.796 342.817 130.926Z" fill="#263238"/>
<path d="M311.271 142.925C311.271 143.046 303.54 143.15 293.995 143.15C284.449 143.15 276.718 143.046 276.718 142.925C276.718 142.804 284.458 142.701 293.995 142.701C303.531 142.701 311.271 142.804 311.271 142.925Z" fill="#263238"/>
<path d="M349.479 142.925C349.479 143.046 341.739 143.15 332.203 143.15C322.666 143.15 314.926 143.046 314.926 142.925C314.926 142.804 322.657 142.701 332.203 142.701C341.748 142.701 349.479 142.804 349.479 142.925Z" fill="#263238"/>
<path d="M311.271 146.821C311.271 146.942 303.54 147.046 293.995 147.046C284.449 147.046 276.718 146.942 276.718 146.821C276.718 146.7 284.449 146.597 293.995 146.597C303.54 146.597 311.271 146.709 311.271 146.821Z" fill="#263238"/>
<path d="M312.943 109.933C312.943 110.053 305.212 110.157 295.666 110.157C286.121 110.157 278.39 110.053 278.39 109.933C278.39 109.812 286.121 109.708 295.666 109.708C305.212 109.708 312.943 109.812 312.943 109.933Z" fill="#263238"/>
<path d="M303.726 107.151C300.767 107.45 297.785 107.45 294.826 107.151C297.785 106.851 300.767 106.851 303.726 107.151Z" fill="#455A64"/>
<path d="M285.883 127.323C282.924 127.622 279.942 127.622 276.983 127.323C279.942 127.024 282.924 127.024 285.883 127.323Z" fill="#455A64"/>
<path d="M285.671 130.926C282.712 131.225 279.73 131.225 276.771 130.926C279.73 130.626 282.712 130.626 285.671 130.926Z" fill="#455A64"/>
<path d="M362.784 94.5291C362.784 94.6586 341.252 94.7537 314.686 94.7537C288.121 94.7537 266.589 94.6586 266.589 94.5291C266.589 94.3995 288.121 94.3044 314.686 94.3044C341.252 94.3044 362.784 94.4081 362.784 94.5291Z" fill="#263238"/>
<path d="M274.215 91.3585C274.215 91.5789 274.148 91.7944 274.023 91.9777C273.897 92.1609 273.719 92.3038 273.51 92.3881C273.302 92.4725 273.073 92.4945 272.851 92.4515C272.63 92.4085 272.426 92.3024 272.267 92.1465C272.107 91.9907 271.999 91.7921 271.955 91.5759C271.911 91.3597 271.933 91.1357 272.019 90.932C272.106 90.7284 272.252 90.5543 272.44 90.4319C272.627 90.3094 272.848 90.2441 273.074 90.2441C273.224 90.2429 273.373 90.2709 273.512 90.3265C273.651 90.3821 273.777 90.4642 273.883 90.5679C273.99 90.6716 274.074 90.7949 274.13 90.9307C274.187 91.0664 274.216 91.2118 274.215 91.3585Z" fill="white"/>
<path d="M279.107 91.3584C279.107 91.5789 279.04 91.7943 278.914 91.9776C278.789 92.1609 278.611 92.3037 278.402 92.3881C278.194 92.4724 277.964 92.4945 277.743 92.4515C277.521 92.4085 277.318 92.3023 277.159 92.1465C276.999 91.9906 276.89 91.792 276.846 91.5759C276.802 91.3597 276.825 91.1356 276.911 90.932C276.998 90.7283 277.144 90.5543 277.331 90.4318C277.519 90.3094 277.74 90.244 277.965 90.244C278.116 90.2428 278.265 90.2709 278.404 90.3265C278.543 90.3821 278.669 90.4641 278.775 90.5678C278.881 90.6716 278.965 90.7949 279.022 90.9306C279.079 91.0663 279.108 91.2118 279.107 91.3584Z" fill="white"/>
<path d="M284.008 91.3585C284.008 91.5789 283.941 91.7944 283.816 91.9777C283.69 92.1609 283.512 92.3038 283.303 92.3881C283.095 92.4725 282.866 92.4945 282.644 92.4515C282.423 92.4085 282.219 92.3024 282.06 92.1465C281.9 91.9907 281.792 91.7921 281.748 91.5759C281.703 91.3597 281.726 91.1357 281.812 90.932C281.899 90.7284 282.045 90.5543 282.233 90.4319C282.42 90.3094 282.641 90.2441 282.867 90.2441C283.017 90.2429 283.166 90.2709 283.305 90.3265C283.444 90.3821 283.57 90.4642 283.676 90.5679C283.783 90.6716 283.867 90.7949 283.923 90.9307C283.98 91.0664 284.009 91.2118 284.008 91.3585Z" fill="white"/>
<path d="M306.238 73.3028H207.682L214.971 4.74292H314.35L306.238 73.3028Z" fill="#263238"/>
<path d="M301.214 73.3028H202.666L209.947 4.74292H309.335L301.214 73.3028Z" fill="#455A64"/>
<path d="M297.56 70.1926H206.116L212.875 6.58301H305.097L297.56 70.1926Z" fill="#FAFAFA"/>
<path d="M216.166 59.5666C216.042 59.5666 216.953 49.9772 218.2 38.1935C219.448 26.4097 220.553 16.8463 220.686 16.8635C220.819 16.8808 219.899 26.4443 218.651 38.2367C217.404 50.029 216.298 59.5666 216.166 59.5666Z" fill="#263238"/>
<path d="M232.823 18.9629C229.77 19.2624 226.694 19.2624 223.641 18.9629C226.694 18.6634 229.77 18.6634 232.823 18.9629Z" fill="#263238"/>
<path d="M271.879 18.9629C271.879 19.0838 263.696 19.1875 253.594 19.1875C243.491 19.1875 235.309 19.0838 235.309 18.9629C235.309 18.8419 243.491 18.7383 253.594 18.7383C263.696 18.7383 271.879 18.816 271.879 18.9629Z" fill="#E8505B"/>
<path d="M231.734 41.5541C228.681 41.8536 225.605 41.8536 222.552 41.5541C225.605 41.2546 228.681 41.2546 231.734 41.5541Z" fill="#263238"/>
<path d="M270.8 41.5541C270.8 41.675 262.608 41.7787 252.515 41.7787C242.421 41.7787 234.229 41.675 234.229 41.5541C234.229 41.4331 242.412 41.3295 252.515 41.3295C262.617 41.3295 270.8 41.4245 270.8 41.5541Z" fill="#E8505B"/>
<path d="M258.344 51.9728C258.344 52.0937 250.152 52.1974 240.059 52.1974C229.965 52.1974 221.773 52.0937 221.773 51.9728C221.773 51.8518 229.956 51.7482 240.059 51.7482C250.161 51.7482 258.344 51.8518 258.344 51.9728Z" fill="#E8505B"/>
<path d="M236.866 25.3298C232.566 25.6293 228.25 25.6293 223.95 25.3298C228.25 25.0304 232.566 25.0304 236.866 25.3298Z" fill="#E8505B"/>
<path d="M236.539 34.686C232.239 34.9855 227.923 34.9855 223.623 34.686C227.923 34.3866 232.239 34.3866 236.539 34.686Z" fill="#E8505B"/>
<path d="M247.455 48.0593C243.155 48.3588 238.839 48.3588 234.539 48.0593C238.839 47.7598 243.155 47.7598 247.455 48.0593Z" fill="#E8505B"/>
<path d="M283.848 25.3299C283.848 25.4508 276.462 25.5545 267.35 25.5545C258.238 25.5545 250.852 25.4508 250.852 25.3299C250.852 25.2089 258.229 25.1053 267.35 25.1053C276.47 25.1053 283.848 25.2003 283.848 25.3299Z" fill="#263238"/>
<path d="M273.667 35.2302C273.667 35.3512 266.28 35.4548 257.168 35.4548C248.057 35.4548 240.67 35.3512 240.67 35.2302C240.67 35.1093 248.057 35.0056 257.168 35.0056C266.28 35.0056 273.667 35.1006 273.667 35.2302Z" fill="#263238"/>
<path d="M285.025 48.0593C285.025 48.1803 277.638 48.284 268.527 48.284C259.415 48.284 252.028 48.1803 252.028 48.0593C252.028 47.9384 259.415 47.8347 268.527 47.8347C277.638 47.8347 285.025 47.9297 285.025 48.0593Z" fill="#263238"/>
<path d="M254.894 59.5667C254.894 59.6876 247.507 59.7913 238.396 59.7913C229.284 59.7913 221.924 59.6444 221.924 59.5667C221.924 59.4889 229.31 59.342 238.422 59.342C247.534 59.342 254.894 59.3939 254.894 59.5667Z" fill="#263238"/>
<path d="M291.385 59.5666C291.385 59.6875 283.999 59.7912 274.887 59.7912C265.775 59.7912 258.389 59.6875 258.389 59.5666C258.389 59.4456 265.775 59.342 274.887 59.342C283.999 59.342 291.385 59.3938 291.385 59.5666Z" fill="#263238"/>
<path d="M254.894 63.2468C254.894 63.3764 247.508 63.4715 238.396 63.4715C229.284 63.4715 221.897 63.3764 221.897 63.2468C221.897 63.1172 229.284 63.0222 238.396 63.0222C247.508 63.0222 254.894 63.1259 254.894 63.2468Z" fill="#263238"/>
<path d="M256.496 28.0166C256.496 28.1376 249.109 28.2412 239.997 28.2412C230.886 28.2412 223.499 28.1376 223.499 28.0166C223.499 27.8957 230.886 27.792 239.997 27.792C249.109 27.792 256.496 27.887 256.496 28.0166Z" fill="#263238"/>
<path d="M247.703 25.3644C244.877 25.6639 242.027 25.6639 239.201 25.3644C242.027 25.0649 244.877 25.0649 247.703 25.3644Z" fill="#455A64"/>
<path d="M230.656 44.621C227.83 44.9205 224.98 44.9205 222.154 44.621C224.98 44.3215 227.83 44.3215 230.656 44.621Z" fill="#455A64"/>
<path d="M230.461 48.0593C227.636 48.3588 224.785 48.3588 221.96 48.0593C224.785 47.7598 227.636 47.7598 230.461 48.0593Z" fill="#455A64"/>
<path d="M304.089 13.3042C304.089 13.4338 283.53 13.5375 258.168 13.5375C232.805 13.5375 212.193 13.4338 212.193 13.3042C212.193 13.1746 232.752 13.0796 258.132 13.0796C283.512 13.0796 304.089 13.1833 304.089 13.3042Z" fill="#263238"/>
<path d="M218.421 11.3346C219.022 11.3346 219.509 10.8588 219.509 10.2719C219.509 9.68508 219.022 9.20934 218.421 9.20934C217.82 9.20934 217.333 9.68508 217.333 10.2719C217.333 10.8588 217.82 11.3346 218.421 11.3346Z" fill="white"/>
<path d="M223.101 11.3346C223.702 11.3346 224.189 10.8588 224.189 10.272C224.189 9.6851 223.702 9.20935 223.101 9.20935C222.5 9.20935 222.013 9.6851 222.013 10.272C222.013 10.8588 222.5 11.3346 223.101 11.3346Z" fill="white"/>
<path d="M227.772 11.3346C228.373 11.3346 228.86 10.8588 228.86 10.272C228.86 9.6851 228.373 9.20935 227.772 9.20935C227.171 9.20935 226.684 9.6851 226.684 10.272C226.684 10.8588 227.171 11.3346 227.772 11.3346Z" fill="white"/>
<path d="M139.282 332.294H131.604V342.523H139.282V332.294Z" fill="#2D3A41"/>
<path d="M180.444 212.936H248.569V209.697H180.444V212.936Z" fill="#2D3A41"/>
<path d="M259.123 212.936L271.897 166.173H218.704L207.133 212.936H259.123Z" fill="#2D3A41"/>
<path d="M210.317 209.394H257.84L268.906 168.333H221.136L210.317 209.394Z" fill="#F5F5F5"/>
<path d="M222.322 176.289L219.376 187.918H250.886L254.239 176.289H222.322Z" fill="#E0E0E0"/>
<path d="M247.579 174.751C247.579 174.881 242.059 174.976 235.238 174.976C228.418 174.976 222.897 174.881 222.897 174.751C222.897 174.622 228.418 174.527 235.238 174.527C242.059 174.527 247.579 174.631 247.579 174.751Z" fill="#455A64"/>
<path d="M233.238 178.509C229.928 178.809 226.596 178.809 223.286 178.509C226.596 178.21 229.928 178.21 233.238 178.509Z" fill="#2D3A41"/>
<path d="M241.218 178.328C239.07 178.628 236.89 178.628 234.742 178.328C236.89 178.029 239.07 178.029 241.218 178.328Z" fill="#2D3A41"/>
<path d="M250.232 180.617C250.232 180.747 244.137 180.851 236.617 180.851C229.098 180.851 223.003 180.747 223.003 180.617C223.003 180.488 229.098 180.393 236.617 180.393C244.137 180.393 250.232 180.514 250.232 180.617Z" fill="#455A64"/>
<path d="M231.266 182.544C228.326 182.845 225.361 182.845 222.42 182.544C225.361 182.243 228.326 182.243 231.266 182.544Z" fill="#E8505B"/>
<path d="M247.79 185.3C247.79 185.421 242.138 185.524 235.167 185.524C228.196 185.524 222.534 185.421 222.534 185.3C222.534 185.179 228.187 185.075 235.167 185.075C242.146 185.075 247.79 185.17 247.79 185.3Z" fill="#455A64"/>
<path d="M229.205 191.252C225.968 191.55 222.71 191.55 219.474 191.252C222.71 190.955 225.968 190.955 229.205 191.252Z" fill="#455A64"/>
<path d="M237.556 191.295C236.458 191.505 235.337 191.571 234.221 191.494C233.105 191.561 231.985 191.473 230.895 191.235C231.992 191.026 233.114 190.959 234.23 191.036C235.345 190.97 236.465 191.057 237.556 191.295Z" fill="#2D3A41"/>
<path d="M242.27 191.071C242.27 191.2 241.633 191.295 240.855 191.295C240.076 191.295 239.448 191.2 239.448 191.071C239.448 190.941 240.085 190.846 240.855 190.846C241.624 190.846 242.27 190.95 242.27 191.071Z" fill="#2D3A41"/>
<path d="M222.729 193.637C222.729 193.766 222.03 193.861 221.172 193.861C220.314 193.861 219.624 193.766 219.624 193.637C219.624 193.507 220.323 193.412 221.172 193.412C222.021 193.412 222.729 193.516 222.729 193.637Z" fill="#E8505B"/>
<path d="M232.018 193.637C229.556 193.936 227.066 193.936 224.605 193.637C227.066 193.337 229.556 193.337 232.018 193.637Z" fill="#2D3A41"/>
<path d="M254.169 193.36C254.169 193.49 249.746 193.585 244.27 193.585C238.794 193.585 234.362 193.49 234.362 193.36C234.362 193.231 238.785 193.135 244.27 193.135C249.755 193.135 254.169 193.239 254.169 193.36Z" fill="#455A64"/>
<path d="M222.251 196.116C222.251 196.237 221.543 196.341 220.659 196.341C219.774 196.341 219.066 196.237 219.066 196.116C219.066 195.995 219.774 195.891 220.659 195.891C221.543 195.891 222.251 195.986 222.251 196.116Z" fill="#2D3A41"/>
<path d="M227.134 196.064C226.522 196.287 225.864 196.364 225.215 196.289C224.563 196.363 223.902 196.286 223.286 196.064C223.903 195.847 224.563 195.77 225.215 195.84C225.864 195.77 226.521 195.846 227.134 196.064Z" fill="#2D3A41"/>
<path d="M241.687 195.84C237.532 196.139 233.36 196.139 229.205 195.84C233.36 195.54 237.532 195.54 241.687 195.84Z" fill="#455A64"/>
<path d="M233.99 200.15C231.479 200.373 228.956 200.448 226.436 200.375C223.915 200.448 221.392 200.373 218.881 200.15C221.392 199.923 223.915 199.848 226.436 199.926C228.956 199.848 231.479 199.923 233.99 200.15Z" fill="#455A64"/>
<path d="M242.81 199.96C240.538 200.26 238.235 200.26 235.963 199.96C238.235 199.661 240.538 199.661 242.81 199.96Z" fill="#E8505B"/>
<path d="M255.911 199.96C252.131 200.26 248.333 200.26 244.553 199.96C248.333 199.661 252.131 199.661 255.911 199.96Z" fill="#2D3A41"/>
<path d="M252.886 174.57C252.886 174.7 252.356 174.795 251.71 174.795C251.064 174.795 250.533 174.7 250.533 174.57C250.533 174.44 251.064 174.345 251.71 174.345C252.356 174.345 252.886 174.466 252.886 174.57Z" fill="#2D3A41"/>
<path d="M228.921 173.015C227.213 173.315 225.463 173.315 223.755 173.015C225.463 172.716 227.213 172.716 228.921 173.015Z" fill="#E8505B"/>
<path d="M268.111 171.287H220.341L221.146 168.333H268.916L268.111 171.287Z" fill="#EBEBEB"/>
<path d="M223.154 170.337C223.442 170.337 223.676 170.109 223.676 169.827C223.676 169.546 223.442 169.318 223.154 169.318C222.865 169.318 222.632 169.546 222.632 169.827C222.632 170.109 222.865 170.337 223.154 170.337Z" fill="#FAFAFA"/>
<path d="M224.95 170.337C225.238 170.337 225.471 170.109 225.471 169.827C225.471 169.546 225.238 169.318 224.95 169.318C224.661 169.318 224.428 169.546 224.428 169.827C224.428 170.109 224.661 170.337 224.95 170.337Z" fill="#FAFAFA"/>
<path d="M226.746 170.337C227.034 170.337 227.267 170.109 227.267 169.827C227.267 169.546 227.034 169.318 226.746 169.318C226.457 169.318 226.224 169.546 226.224 169.827C226.224 170.109 226.457 170.337 226.746 170.337Z" fill="#FAFAFA"/>
<path d="M326.329 217.29H213.061V281.833H326.329V217.29Z" fill="#2D3A41"/>
<path d="M264.661 217.29H213.061V281.833H264.661V217.29Z" fill="#455A64"/>
<path d="M259.406 239.208C259.393 239.099 259.393 238.989 259.406 238.88V237.938C259.406 237.074 259.406 235.89 259.362 234.353C259.362 231.234 259.309 226.776 259.274 221.282L259.442 221.446L217.935 221.506L218.165 221.282V225.938C218.165 227.476 218.165 229.005 218.165 230.5C218.165 233.497 218.165 236.409 218.165 239.191L217.953 238.983L247.685 239.078L256.319 239.139H258.637H259.247H259.459H259.274H258.69H256.416L247.827 239.191L217.953 239.294H217.731V239.078C217.731 236.296 217.731 233.385 217.731 230.387V221.299L217.961 221.074L259.468 221.135H259.636V221.299C259.592 226.837 259.566 231.329 259.539 234.465C259.539 235.985 259.539 237.178 259.539 238.016V238.931C259.415 239.113 259.406 239.26 259.406 239.208Z" fill="#2D3A41"/>
<path d="M240.413 230.249C240.298 229.759 240.018 229.321 239.617 229.005C239.402 228.858 239.153 228.765 238.893 228.733C238.632 228.701 238.367 228.733 238.122 228.824C237.827 228.935 237.573 229.13 237.393 229.384C237.213 229.639 237.116 229.94 237.114 230.249C237.118 230.558 237.216 230.858 237.396 231.112C237.575 231.366 237.828 231.561 238.122 231.675C238.369 231.762 238.633 231.791 238.893 231.758C239.153 231.725 239.402 231.631 239.617 231.484C240.014 231.166 240.294 230.729 240.413 230.24C240.413 230.24 240.493 230.396 240.413 230.681C240.342 231.095 240.119 231.47 239.785 231.735C239.532 231.937 239.23 232.072 238.908 232.128C238.586 232.184 238.254 232.159 237.945 232.055C237.558 231.925 237.222 231.68 236.984 231.355C236.746 231.03 236.618 230.64 236.618 230.24C236.618 229.841 236.746 229.451 236.984 229.126C237.222 228.8 237.558 228.556 237.945 228.426C238.254 228.321 238.584 228.294 238.906 228.349C239.228 228.403 239.531 228.537 239.785 228.737C240.119 229.002 240.342 229.377 240.413 229.791C240.502 230.094 240.44 230.249 240.413 230.249Z" fill="#2D3A41"/>
<path d="M259.406 258.948C259.393 258.836 259.393 258.723 259.406 258.611V257.67C259.406 256.806 259.406 255.622 259.361 254.084C259.361 250.974 259.308 246.516 259.273 241.013L259.441 241.177L217.934 241.247L218.164 241.022V245.678C218.164 247.225 218.164 248.745 218.164 250.249C218.164 253.246 218.164 256.158 218.164 258.939L217.952 258.724L247.684 258.827L256.318 258.888H258.636H259.246H259.459H259.273H258.689H256.415L247.826 258.948L217.952 259.052H217.731V258.836C217.731 256.054 217.731 253.143 217.731 250.145V241.031C217.678 241.031 218.164 240.599 217.961 240.797L259.467 240.866H259.636V240.987C259.591 246.534 259.565 251.026 259.538 254.162C259.538 255.683 259.538 256.866 259.538 257.713V258.62C259.414 258.853 259.406 258.957 259.406 258.948Z" fill="#2D3A41"/>
<path d="M240.413 249.981C240.289 249.502 240.01 249.074 239.617 248.763C239.381 248.598 239.104 248.5 238.815 248.479C238.526 248.458 238.237 248.515 237.979 248.643C237.721 248.771 237.504 248.966 237.351 249.207C237.198 249.447 237.116 249.724 237.114 250.007C237.116 250.316 237.213 250.617 237.393 250.871C237.573 251.126 237.827 251.321 238.122 251.432C238.367 251.523 238.632 251.554 238.893 251.523C239.153 251.491 239.402 251.398 239.617 251.251C240.016 250.933 240.296 250.496 240.413 250.007C240.413 250.007 240.493 250.162 240.413 250.447C240.342 250.861 240.119 251.236 239.785 251.501C239.532 251.703 239.23 251.839 238.908 251.894C238.586 251.95 238.254 251.925 237.945 251.821C237.558 251.691 237.222 251.447 236.984 251.121C236.746 250.796 236.618 250.406 236.618 250.007C236.618 249.607 236.746 249.217 236.984 248.892C237.222 248.567 237.558 248.322 237.945 248.192C238.254 248.088 238.586 248.063 238.908 248.119C239.23 248.175 239.532 248.31 239.785 248.512C240.119 248.777 240.342 249.152 240.413 249.566C240.502 249.825 240.44 249.981 240.413 249.981Z" fill="#2D3A41"/>
<path d="M259.406 278.68C259.393 278.571 259.393 278.461 259.406 278.352V277.41C259.406 276.546 259.406 275.362 259.362 273.825C259.362 270.706 259.309 266.248 259.274 260.754L259.442 260.918L217.935 260.978L218.165 260.754V265.41C218.165 266.948 218.165 268.477 218.165 269.972C218.165 272.969 218.165 275.881 218.165 278.663L217.953 278.455L247.685 278.55L256.319 278.611H258.637H259.247H259.459H259.274H258.69H256.416L247.827 278.663L217.953 278.766H217.731V278.55C217.731 275.768 217.731 272.857 217.731 269.859V260.771L217.961 260.546L259.468 260.607H259.636V260.771C259.592 266.309 259.566 270.801 259.539 273.937C259.539 275.457 259.539 276.65 259.539 277.488V278.403C259.415 278.585 259.406 278.688 259.406 278.68Z" fill="#2D3A41"/>
<path d="M240.413 269.721C240.298 269.231 240.018 268.793 239.617 268.477C239.402 268.33 239.153 268.237 238.893 268.205C238.632 268.173 238.367 268.205 238.122 268.296C237.827 268.407 237.573 268.602 237.393 268.857C237.213 269.111 237.116 269.412 237.114 269.721C237.116 270.004 237.198 270.281 237.351 270.521C237.504 270.762 237.721 270.957 237.979 271.085C238.237 271.213 238.526 271.27 238.815 271.249C239.104 271.228 239.381 271.13 239.617 270.965C240.014 270.647 240.294 270.21 240.413 269.721C240.413 269.721 240.493 269.877 240.413 270.162C240.342 270.576 240.119 270.951 239.785 271.216C239.532 271.418 239.23 271.553 238.908 271.609C238.586 271.665 238.254 271.64 237.945 271.535C237.558 271.406 237.222 271.161 236.984 270.836C236.746 270.511 236.618 270.121 236.618 269.721C236.618 269.321 236.746 268.932 236.984 268.606C237.222 268.281 237.558 268.037 237.945 267.907C238.254 267.802 238.584 267.775 238.906 267.829C239.228 267.884 239.531 268.017 239.785 268.218C240.119 268.483 240.342 268.858 240.413 269.272C240.502 269.566 240.44 269.721 240.413 269.721Z" fill="#2D3A41"/>
<path d="M137.627 334.367L61.9297 334.316V217.29H137.627V334.367Z" fill="#2D3A41"/>
<path d="M330.442 212.789H58.2764V218.923H330.442V212.789Z" fill="#2D3A41"/>
<path d="M70.3691 218.923H61.9297V343.067H70.3691V218.923Z" fill="#2D3A41"/>
<path d="M326.328 218.923H317.889V343.102H326.328V218.923Z" fill="#2D3A41"/>
<path d="M273.1 218.923H264.66V343.102H273.1V218.923Z" fill="#2D3A41"/>
<path d="M96.545 212.789C96.545 212.91 88.4329 213.014 78.4278 213.014C68.4226 213.014 60.3105 212.91 60.3105 212.789C60.3105 212.668 68.4226 212.565 78.4278 212.565C88.4329 212.565 96.545 212.66 96.545 212.789Z" fill="#455A64"/>
<path d="M176.126 337.02L176.339 328.147L159.31 327.646L158.858 340.605L159.911 340.7C164.6 341.097 183.796 342.376 186.954 341.564C190.493 340.631 176.126 337.02 176.126 337.02Z" fill="#E8505B"/>
<g opacity="0.4">
<path opacity="0.4" d="M183.133 339.032C183.133 339.032 188.166 340.605 187.503 341.408C186.839 342.212 167.404 341.616 158.858 340.631V340.259L181.531 341.123C181.531 341.123 182.115 339.041 183.133 339.032Z" fill="white"/>
</g>
<path d="M158.629 340.242H158.921L159.805 340.32L162.893 340.544C165.502 340.717 169.085 340.899 173.101 341.028C177.118 341.158 180.709 341.184 183.328 341.175H186.424H187.309H187.6H187.309H186.424H183.328C180.718 341.175 177.135 341.089 173.11 340.968C169.085 340.847 165.511 340.683 162.902 340.544L159.805 340.389H158.921L158.629 340.242Z" fill="#2D3A41"/>
<path d="M181.549 341.382C181.701 340.885 181.912 340.406 182.177 339.957C182.498 339.545 182.863 339.169 183.266 338.834C182.749 339.04 182.309 339.393 182.003 339.848C181.696 340.303 181.538 340.838 181.549 341.382Z" fill="#2D3A41"/>
<path d="M176.605 338.747C176.649 338.747 176.905 338.497 177.162 338.125C177.418 337.754 177.595 337.417 177.551 337.391C177.507 337.365 177.25 337.633 176.994 338.013C176.737 338.393 176.56 338.713 176.605 338.747Z" fill="#2D3A41"/>
<path d="M175.251 337.996C175.251 337.996 175.561 337.866 175.861 337.616C176.162 337.365 176.374 337.132 176.339 337.089C176.304 337.046 176.029 337.218 175.729 337.469C175.428 337.719 175.216 337.953 175.251 337.996Z" fill="#2D3A41"/>
<path d="M174.429 336.398C174.711 336.503 175.012 336.55 175.313 336.536C175.61 336.58 175.913 336.556 176.198 336.467C175.916 336.362 175.615 336.315 175.313 336.328C174.827 336.311 174.429 336.337 174.429 336.398Z" fill="#2D3A41"/>
<path d="M174.154 335.283C174.444 335.478 174.785 335.586 175.136 335.594C175.481 335.66 175.838 335.624 176.162 335.491C175.831 335.424 175.493 335.392 175.154 335.396C174.826 335.322 174.491 335.284 174.154 335.283Z" fill="#2D3A41"/>
<path d="M177.232 337.313C177.593 337.373 177.96 337.373 178.32 337.313C178.718 337.275 179.112 337.202 179.497 337.097C179.73 337.038 179.955 336.954 180.169 336.847C180.302 336.78 180.404 336.665 180.452 336.527C180.473 336.449 180.47 336.366 180.444 336.289C180.417 336.212 180.368 336.145 180.302 336.095C179.891 335.883 179.417 335.815 178.96 335.905C178.504 335.995 178.094 336.236 177.799 336.588C177.624 336.796 177.495 337.037 177.418 337.296C177.399 337.39 177.399 337.487 177.418 337.581C177.545 337.266 177.724 336.975 177.949 336.717C178.202 336.444 178.531 336.249 178.896 336.156C179.332 336.03 179.8 336.074 180.205 336.277C180.373 336.406 180.293 336.605 180.099 336.717C179.9 336.813 179.692 336.891 179.479 336.951C179.106 337.063 178.724 337.15 178.338 337.21C177.692 337.287 177.232 337.279 177.232 337.313Z" fill="#2D3A41"/>
<path d="M177.506 337.374C177.648 337.155 177.701 336.894 177.657 336.639C177.634 336.356 177.539 336.083 177.383 335.845C177.296 335.684 177.17 335.548 177.015 335.448C176.861 335.349 176.683 335.289 176.498 335.274C176.386 335.293 176.286 335.355 176.219 335.445C176.153 335.536 176.126 335.648 176.144 335.758C176.166 335.93 176.227 336.095 176.321 336.242C176.454 336.482 176.621 336.703 176.816 336.899C176.981 337.095 177.19 337.252 177.427 337.356C177.427 337.356 177.215 337.158 176.923 336.804C176.755 336.603 176.61 336.386 176.489 336.156C176.348 335.922 176.25 335.516 176.533 335.473C176.816 335.43 177.073 335.732 177.232 335.948C177.382 336.16 177.482 336.402 177.524 336.657C177.544 336.896 177.538 337.136 177.506 337.374Z" fill="#2D3A41"/>
<path d="M159.115 335.698C159.115 335.741 159.611 335.698 160.371 335.784C161.373 335.918 162.314 336.328 163.085 336.966C163.856 337.604 164.425 338.444 164.724 339.387C164.839 339.782 164.933 340.183 165.007 340.588C165.03 340.476 165.03 340.362 165.007 340.251C164.977 339.959 164.924 339.67 164.848 339.387C164.573 338.399 163.999 337.516 163.199 336.854C162.4 336.192 161.414 335.783 160.371 335.681C160.06 335.65 159.745 335.65 159.434 335.681C159.327 335.674 159.22 335.68 159.115 335.698Z" fill="#2D3A41"/>
<path d="M161.097 328.83C160.948 329.962 160.862 331.101 160.84 332.242C160.759 333.392 160.744 334.546 160.796 335.698C160.946 334.566 161.031 333.427 161.053 332.285C161.139 331.136 161.154 329.982 161.097 328.83Z" fill="#2D3A41"/>
<path d="M167.228 339.119C168.035 339.331 168.868 339.439 169.704 339.438C170.538 339.501 171.376 339.461 172.199 339.318C172.199 339.257 171.085 339.318 169.713 339.24C168.342 339.162 167.236 339.067 167.228 339.119Z" fill="#2D3A41"/>
<path d="M163.893 339.015C163.893 339.015 163.972 339.249 164.078 339.499C164.185 339.75 164.238 339.983 164.3 339.974C164.361 339.966 164.397 339.715 164.3 339.43C164.202 339.145 163.928 338.981 163.893 339.015Z" fill="#2D3A41"/>
<path d="M162.654 337.452C162.654 337.452 162.716 337.668 162.884 337.849C163.052 338.03 163.229 338.143 163.274 338.099C163.318 338.056 163.212 337.892 163.035 337.711C162.858 337.529 162.725 337.417 162.654 337.452Z" fill="#2D3A41"/>
<path d="M160.885 336.7C160.885 336.76 161.124 336.76 161.371 336.855C161.619 336.95 161.796 337.08 161.84 337.045C161.884 337.011 161.752 336.778 161.442 336.665C161.132 336.553 160.885 336.648 160.885 336.7Z" fill="#2D3A41"/>
<path d="M159.629 336.328C159.629 336.38 159.709 336.467 159.841 336.527C159.974 336.588 160.115 336.588 160.133 336.527C160.151 336.467 160.062 336.38 159.921 336.328C159.779 336.277 159.655 336.277 159.629 336.328Z" fill="#2D3A41"/>
<g opacity="0.3">
<path opacity="0.3" d="M159.151 335.257L176.171 335.49L176.207 333.486L159.054 334.203L159.151 335.257Z" fill="black"/>
</g>
<path d="M202.984 338.402V329.521L185.946 329.46L185.849 342.419L186.901 342.488C191.599 342.756 210.786 343.542 213.962 342.626C217.448 341.633 202.984 338.402 202.984 338.402Z" fill="#E8505B"/>
<g opacity="0.4">
<path opacity="0.4" d="M210.043 340.225C210.043 340.225 215.112 341.676 214.467 342.488C213.821 343.3 194.386 343.222 185.813 342.488V342.117L208.495 342.402C208.495 342.402 209.053 340.268 210.043 340.225Z" fill="white"/>
</g>
<path d="M185.584 342.065H185.876L186.716 342.117L189.813 342.264C192.422 342.367 196.005 342.462 200.03 342.48C204.055 342.497 207.638 342.48 210.256 342.367L213.353 342.255L214.193 342.203H214.485H213.353L210.256 342.246C207.602 342.246 204.02 342.324 200.03 342.307C196.04 342.29 192.431 342.212 189.813 342.151L186.716 342.065H185.584Z" fill="#2D3A41"/>
<path d="M208.531 342.626C208.664 342.124 208.86 341.639 209.115 341.184C209.422 340.759 209.778 340.371 210.176 340.026C209.644 340.215 209.203 340.591 208.938 341.08C208.608 341.527 208.463 342.079 208.531 342.626Z" fill="#2D3A41"/>
<path d="M203.515 340.112C203.559 340.112 203.798 339.853 204.054 339.473C204.311 339.093 204.461 338.765 204.417 338.73C204.373 338.696 204.125 338.989 203.877 339.369C203.63 339.749 203.462 340.078 203.515 340.112Z" fill="#2D3A41"/>
<path d="M202.135 339.395C202.135 339.395 202.444 339.257 202.736 339.007C203.028 338.756 203.24 338.506 203.205 338.462C203.17 338.419 202.895 338.601 202.604 338.851C202.312 339.102 202.099 339.352 202.135 339.395Z" fill="#2D3A41"/>
<path d="M201.268 337.823C201.551 337.921 201.853 337.959 202.152 337.935C202.45 337.97 202.752 337.941 203.037 337.849C203.037 337.788 202.648 337.737 202.152 337.737C201.657 337.737 201.268 337.745 201.268 337.823Z" fill="#2D3A41"/>
<path d="M200.977 336.709C201.27 336.898 201.615 336.997 201.967 336.994C202.315 337.061 202.675 337.016 202.994 336.864C202.66 336.814 202.323 336.791 201.985 336.795C201.652 336.737 201.315 336.708 200.977 336.709Z" fill="#2D3A41"/>
<path d="M204.099 338.661C204.458 338.727 204.827 338.727 205.187 338.661C205.584 338.618 205.975 338.534 206.354 338.41C206.589 338.351 206.814 338.264 207.027 338.151C207.158 338.076 207.256 337.956 207.301 337.814C207.317 337.735 207.31 337.654 207.28 337.579C207.25 337.504 207.199 337.439 207.133 337.391C206.716 337.189 206.24 337.134 205.787 337.237C205.334 337.339 204.931 337.592 204.647 337.953C204.482 338.165 204.359 338.405 204.284 338.661C204.261 338.758 204.261 338.858 204.284 338.955C204.402 338.641 204.572 338.349 204.789 338.091C205.037 337.81 205.362 337.603 205.726 337.495C206.156 337.357 206.623 337.391 207.027 337.59C207.204 337.719 207.133 337.918 206.938 338.03C206.745 338.135 206.54 338.219 206.328 338.281C205.958 338.402 205.579 338.497 205.196 338.566C204.514 338.609 204.099 338.609 204.099 338.661Z" fill="#2D3A41"/>
<path d="M204.382 338.722C204.511 338.495 204.554 338.233 204.506 337.979C204.476 337.697 204.376 337.427 204.214 337.192C204.124 337.038 203.996 336.908 203.841 336.813C203.687 336.718 203.511 336.661 203.33 336.648C203.274 336.659 203.221 336.679 203.174 336.71C203.127 336.74 203.087 336.78 203.056 336.826C203.024 336.871 203.003 336.923 202.992 336.977C202.981 337.031 202.982 337.087 202.993 337.141C203.019 337.31 203.082 337.473 203.179 337.616C203.321 337.852 203.493 338.07 203.692 338.264C204.028 338.592 204.303 338.722 204.312 338.696C204.32 338.67 204.099 338.506 203.798 338.169C203.625 337.967 203.471 337.75 203.338 337.521C203.188 337.296 203.091 336.89 203.338 336.847C203.586 336.804 203.887 337.089 204.055 337.296C204.21 337.504 204.316 337.743 204.365 337.996C204.391 338.237 204.397 338.48 204.382 338.722Z" fill="#2D3A41"/>
<path d="M185.946 337.521C185.946 337.521 186.433 337.477 187.202 337.573C188.205 337.686 189.156 338.072 189.945 338.687C190.728 339.309 191.319 340.132 191.652 341.063C191.909 341.771 191.935 342.255 191.971 342.246C191.988 342.135 191.988 342.021 191.971 341.909C191.938 341.617 191.878 341.328 191.794 341.045C191.492 340.066 190.893 339.198 190.077 338.557C189.261 337.915 188.265 337.53 187.22 337.452C186.908 337.423 186.594 337.423 186.282 337.452C186.061 337.477 185.946 337.503 185.946 337.521Z" fill="#2D3A41"/>
<path d="M187.742 330.601C187.619 331.749 187.566 332.903 187.583 334.056C187.523 335.208 187.538 336.362 187.627 337.512C187.745 336.364 187.798 335.21 187.786 334.056C187.846 332.905 187.832 331.751 187.742 330.601Z" fill="#2D3A41"/>
<path d="M194.146 340.734C194.961 340.923 195.796 341.007 196.632 340.985C197.469 341.026 198.307 340.962 199.127 340.795C199.127 340.743 198.003 340.795 196.632 340.795C195.261 340.795 194.155 340.674 194.146 340.734Z" fill="#2D3A41"/>
<path d="M190.803 340.709C190.803 340.752 190.9 340.942 191.006 341.192C191.112 341.443 191.183 341.668 191.245 341.659C191.307 341.65 191.333 341.4 191.201 341.115C191.068 340.83 190.847 340.674 190.803 340.709Z" fill="#2D3A41"/>
<path d="M189.555 339.179C189.511 339.179 189.626 339.387 189.803 339.568C189.98 339.75 190.148 339.853 190.192 339.81C190.237 339.767 190.122 339.603 189.945 339.421C189.768 339.24 189.6 339.136 189.555 339.179Z" fill="#2D3A41"/>
<path d="M187.76 338.471C187.76 338.531 187.999 338.531 188.246 338.618C188.494 338.704 188.68 338.834 188.724 338.799C188.768 338.765 188.627 338.531 188.317 338.428C188.007 338.324 187.742 338.419 187.76 338.471Z" fill="#2D3A41"/>
<path d="M186.477 338.134C186.477 338.186 186.556 338.272 186.698 338.333C186.839 338.393 186.972 338.384 186.99 338.333C187.007 338.281 186.91 338.194 186.769 338.143C186.627 338.091 186.538 338.082 186.477 338.134Z" fill="#2D3A41"/>
<g opacity="0.3">
<path opacity="0.3" d="M185.973 337.071L202.984 336.873L202.975 334.868L185.84 336.017L185.973 337.071Z" fill="black"/>
</g>
<path d="M165.37 186.38L172.191 206.431C174.031 211.848 178.878 212.781 184.726 212.781H222.668V204.461L188.008 199.632L179.745 179.019L165.37 186.38Z" fill="#FFBE9D"/>
<path d="M226.842 202.742L229.85 201.351C229.85 201.351 233.097 195.226 233.84 195.477C234.583 195.727 234.804 197.524 233.504 200.332L237.502 199.217C237.502 199.217 246.172 203.131 245.791 203.658C245.411 204.185 244.694 205.438 242.81 204.522C240.926 203.606 238.44 202.466 238.44 202.466L233.769 203.77L239.793 204.522L245.464 209.55C245.464 209.55 243.597 210.915 241.996 209.472L227.276 212.556L222.667 212.815V204.496L226.842 202.742Z" fill="#FFBE9D"/>
<path d="M241.996 209.446C241.934 209.446 241.66 209.057 241.111 208.496C240.799 208.174 240.438 207.9 240.041 207.684C239.542 207.45 239.001 207.312 238.449 207.278C236.953 207.178 235.471 206.932 234.025 206.543C235.524 206.494 237.023 206.592 238.502 206.837C239.121 206.874 239.725 207.042 240.271 207.33C240.696 207.581 241.071 207.906 241.377 208.288C241.685 208.614 241.898 209.013 241.996 209.446Z" fill="#EB996E"/>
<path d="M239.697 210.016C239.635 210.016 239.59 209.723 239.183 209.636C238.777 209.55 238.086 209.481 237.414 209.412C236.548 209.398 235.684 209.314 234.831 209.161C235.683 208.871 236.598 208.802 237.485 208.962C238.114 209.016 238.734 209.14 239.334 209.334C239.439 209.372 239.533 209.433 239.61 209.512C239.687 209.592 239.744 209.687 239.776 209.792C239.776 209.947 239.723 210.025 239.697 210.016Z" fill="#EB996E"/>
<path d="M133.338 103.902L131.276 144.662L149.146 146.303L150.137 136.454C150.137 136.454 156.435 137.975 158.346 132.282C159.576 128.645 160.664 100.153 160.664 100.153L133.338 103.902Z" fill="#FFBE9D"/>
<path d="M162.203 104.87C162.698 108.688 157.24 110.917 157.24 110.917L156.285 119.945C155.43 119.886 154.573 119.886 153.719 119.945C154.179 115.712 148.588 116.541 148.022 119.427C147.456 122.312 150.676 124.057 150.676 124.057C148.447 127.401 147.536 129.172 144.369 132.308C140.936 135.703 139.061 135.979 135.522 135.876L131.621 135.703C131.621 135.703 130.223 132.446 129.206 124.748C128.719 121.051 125.756 116.196 126.605 110.183C128.994 93.0862 145.766 94.8918 145.766 94.8918C154.533 95.0732 161.053 96.0235 162.203 104.87Z" fill="#2D3A41"/>
<path d="M149.385 95.3324C153.171 95.4274 157.099 95.7212 160.425 97.4922C163.751 99.2632 166.317 102.918 165.635 106.555L163.742 106.892L162.964 105.527C162.964 106.252 162.964 106.978 162.964 107.704L159.638 108.611C159.137 105.837 158.137 103.173 156.683 100.74" fill="#2D3A41"/>
<path d="M134.044 114.088C133.913 113.891 133.814 113.675 133.753 113.449C133.538 112.844 133.378 112.223 133.275 111.591C132.915 109.494 133.065 107.344 133.712 105.314C134.359 103.284 135.485 101.43 136.999 99.9024C137.445 99.4369 137.934 99.0119 138.459 98.6325C138.642 98.4756 138.852 98.35 139.078 98.261C139.122 98.3215 138.308 98.9176 137.238 100.11C135.847 101.663 134.802 103.481 134.168 105.449C133.56 107.424 133.373 109.5 133.62 111.548C133.788 113.129 134.124 114.062 134.044 114.088Z" fill="#455A64"/>
<path d="M137.566 112.662C137.223 112.005 136.987 111.3 136.867 110.572C136.475 108.831 136.358 107.042 136.522 105.267C136.676 103.486 137.105 101.739 137.796 100.084C138.045 99.3847 138.407 98.7286 138.867 98.14C137.914 100.429 137.281 102.832 136.982 105.285C136.839 107.758 137.035 110.24 137.566 112.662Z" fill="#455A64"/>
<path d="M160.381 106.339C160.292 106.339 160.142 105.285 159.417 103.747C158.485 101.719 156.991 99.9864 155.105 98.7438C153.218 97.5012 151.013 96.7984 148.739 96.7146C146.97 96.6368 145.917 96.896 145.899 96.8183C146.133 96.7034 146.384 96.6274 146.642 96.5937C147.336 96.4595 148.041 96.3958 148.748 96.4036C151.109 96.4003 153.417 97.0894 155.373 98.3817C157.329 99.674 158.842 101.51 159.717 103.652C159.984 104.289 160.183 104.952 160.31 105.63C160.374 105.861 160.397 106.1 160.381 106.339Z" fill="#455A64"/>
<path d="M134.602 92.0322C135.601 92.2386 136.503 92.7609 137.167 93.5182C137.943 94.1677 138.473 95.0531 138.671 96.0321C138.547 96.084 137.972 94.9263 136.84 93.8292C135.708 92.732 134.54 92.1618 134.602 92.0322Z" fill="#2D3A41"/>
<path d="M138.769 92.0495C138.902 92.0927 138.627 93.0084 138.68 94.1402C138.733 95.2719 139.052 96.1531 138.928 96.2135C138.431 95.6423 138.177 94.9061 138.22 94.1574C138.115 93.4118 138.311 92.6554 138.769 92.0495Z" fill="#455A64"/>
<path d="M162.158 182.008L165.069 191.658L183.593 183.477C182.929 181.455 179.86 172.454 174.004 158.164C172.401 154.247 169.791 150.799 166.428 148.153C163.064 145.506 159.059 143.751 154.798 143.055C148.958 142.014 143.041 141.436 137.106 141.327C126.72 141.439 111.451 147.78 109.381 157.741C107.807 165.326 109.319 178.726 109.319 195.002L110.673 226.102L163.892 227.83L162.158 182.008Z" fill="#FF8578"/>
<g opacity="0.3">
<path opacity="0.3" d="M109.346 187.814C115.821 189.11 122.465 187.814 129.064 187.425C133.063 187.192 137.503 186.769 140.67 189.153C143.183 191.054 144.209 194.259 144.917 197.282C147.677 208.798 148.172 216.522 148.791 228.331L116.759 230.232L109.346 187.814Z" fill="black"/>
</g>
<path d="M172.447 155.184C172.447 155.314 158.47 155.409 141.237 155.409C124.004 155.409 110.036 155.314 110.036 155.184C110.036 155.054 124.004 154.959 141.237 154.959C158.47 154.959 172.447 155.063 172.447 155.184Z" fill="#FAFAFA"/>
<path d="M176.331 163.918C176.331 164.039 161.133 164.143 142.405 164.143C123.677 164.143 108.479 164.039 108.479 163.918C108.479 163.797 123.66 163.693 142.405 163.693C161.15 163.693 176.331 163.797 176.331 163.918Z" fill="#FAFAFA"/>
<path d="M181.231 174.872C181.231 175.002 165.025 175.097 145.032 175.097C125.039 175.097 108.833 175.002 108.833 174.872C108.833 174.743 125.039 174.648 145.032 174.648C165.025 174.648 181.231 174.752 181.231 174.872Z" fill="#FAFAFA"/>
<path d="M161.769 186.691C161.769 186.812 156.7 186.915 150.464 186.915C144.227 186.915 139.149 186.812 139.149 186.691C139.149 186.57 144.21 186.466 150.464 186.466C156.718 186.466 161.769 186.561 161.769 186.691Z" fill="#FAFAFA"/>
<path d="M162.805 199.52C162.805 199.641 157.497 199.701 150.968 199.649C144.44 199.598 139.132 199.459 139.132 199.33C139.132 199.2 144.44 199.148 150.968 199.2C157.497 199.252 162.805 199.373 162.805 199.52Z" fill="#FAFAFA"/>
<path d="M163.317 209.93C163.011 209.984 162.699 209.999 162.388 209.973L159.849 209.921C157.709 209.878 154.754 209.818 151.49 209.818C148.225 209.818 145.297 209.869 143.13 209.913L140.591 209.965C140.28 210.004 139.965 210.004 139.653 209.965C139.955 209.878 140.268 209.832 140.582 209.826C141.175 209.766 142.042 209.705 143.112 209.645C145.253 209.515 148.217 209.412 151.49 209.412C154.763 209.412 157.726 209.524 159.858 209.654C160.929 209.714 161.796 209.783 162.397 209.844C162.706 209.836 163.015 209.865 163.317 209.93Z" fill="#FAFAFA"/>
<path d="M163.149 218.362C163.149 218.483 157.93 218.586 151.489 218.586C145.049 218.586 139.839 218.483 139.839 218.362C139.839 218.241 145.049 218.137 151.489 218.137C157.93 218.137 163.149 218.232 163.149 218.362Z" fill="#FAFAFA"/>
<path d="M164.733 146.623C164.733 146.752 154.489 146.847 141.856 146.847C129.224 146.847 118.971 146.752 118.971 146.623C118.971 146.493 129.215 146.398 141.856 146.398C154.497 146.398 164.733 146.502 164.733 146.623Z" fill="#FAFAFA"/>
<path d="M163.538 148.247C163.538 148.299 163.007 148.325 162.123 148.662C160.895 149.187 159.835 150.026 159.053 151.089C157.925 152.686 157.289 154.566 157.222 156.506C157.154 158.892 157.344 161.278 157.788 163.624C158.532 167.923 159.525 172.178 160.76 176.367C161.194 177.931 161.557 179.218 161.831 180.194C161.98 180.658 162.095 181.131 162.176 181.611C161.964 181.172 161.792 180.715 161.663 180.246C161.362 179.382 160.937 178.06 160.442 176.453C159.126 172.271 158.091 168.008 157.346 163.694C156.902 161.312 156.724 158.89 156.815 156.471C156.907 154.463 157.602 152.525 158.814 150.899C159.643 149.808 160.776 148.975 162.079 148.497C162.432 148.38 162.796 148.299 163.167 148.256C163.289 148.235 163.415 148.232 163.538 148.247Z" fill="#2D3A41"/>
<path d="M183.001 181.006C182.176 181.569 181.303 182.06 180.391 182.475C178.746 183.339 176.437 184.419 173.854 185.559C171.271 186.699 168.9 187.65 167.166 188.298C166.244 188.687 165.292 189.001 164.317 189.239C165.193 188.762 166.104 188.35 167.042 188.004C168.741 187.278 171.094 186.276 173.668 185.153C176.242 184.03 178.56 182.95 180.241 182.19C181.132 181.735 182.054 181.339 183.001 181.006Z" fill="#2D3A41"/>
<path d="M127.101 226.612L190.688 228.806C195.649 228.98 200.343 231.045 203.763 234.56C207.183 238.074 209.057 242.757 208.982 247.605L206.328 336.294L181.762 335.499L183.593 252.46L127.092 251.009L127.101 226.612Z" fill="#2D3A41"/>
<path d="M100.827 226.612L164.423 228.806C169.385 228.98 174.079 231.045 177.499 234.56C180.919 238.074 182.792 242.757 182.717 247.605L180.063 336.294L155.17 334.367L157.346 252.46L100.845 251.009L100.827 226.612Z" fill="#2D3A41"/>
<path d="M148.42 258.827H142.166V332.009H148.42V258.827Z" fill="#455A64"/>
<path d="M89.6807 187.797V241.67C89.6807 245.063 91.061 248.318 93.518 250.717C95.975 253.116 99.3074 254.464 102.782 254.464H139.521V187.797C139.521 187.048 139.37 186.306 139.076 185.615C138.783 184.923 138.353 184.294 137.811 183.765C137.269 183.235 136.625 182.815 135.917 182.529C135.208 182.242 134.449 182.095 133.682 182.095H95.5193C94.7526 182.095 93.9933 182.242 93.285 182.529C92.5766 182.815 91.933 183.235 91.3908 183.765C90.8486 184.294 90.4186 184.923 90.1252 185.615C89.8317 186.306 89.6807 187.048 89.6807 187.797Z" fill="#455A64"/>
<path d="M188.954 258.827H99.5C99.5 256.307 100.525 253.89 102.35 252.108C104.175 250.325 106.65 249.324 109.231 249.324H179.267C181.848 249.324 184.323 250.325 186.148 252.108C187.973 253.89 188.998 256.307 188.998 258.827H188.954Z" fill="#455A64"/>
<path d="M139.521 248.089C139.532 248.227 139.532 248.365 139.521 248.503C139.514 248.899 139.463 249.293 139.37 249.678C139.075 250.898 138.423 252.008 137.493 252.871C136.563 253.735 135.396 254.316 134.133 254.542C132.958 254.665 131.776 254.708 130.595 254.672H122.554C116.848 254.672 111.681 254.672 107.948 254.62L103.525 254.559L102.322 254.516C102.18 254.514 102.037 254.5 101.897 254.473C102.035 254.435 102.179 254.417 102.322 254.421L103.525 254.378L107.948 254.3C111.681 254.257 116.848 254.231 122.554 254.223H130.586C131.745 254.268 132.907 254.242 134.063 254.145C135.042 253.982 135.969 253.597 136.77 253.022C137.952 252.17 138.804 250.952 139.185 249.566C139.494 248.659 139.468 248.089 139.521 248.089Z" fill="#2D3A41"/>
<path d="M150.782 259.017C148.961 259.245 147.123 259.32 145.288 259.242C143.457 259.32 141.622 259.244 139.804 259.017C141.623 258.795 143.457 258.72 145.288 258.793C147.123 258.72 148.96 258.795 150.782 259.017Z" fill="#2D3A41"/>
<path d="M177.993 254.931C177.73 254.085 177.547 253.218 177.444 252.339C177.144 250.68 176.746 248.27 176.268 245.298C175.79 242.326 175.463 238.724 173.782 235.156C172.901 233.3 171.787 231.559 170.465 229.973C169.019 228.29 167.34 226.813 165.475 225.584C163.618 224.341 161.578 223.383 159.425 222.742C157.419 222.117 155.336 221.765 153.232 221.696C149.189 221.61 145.492 221.627 142.413 221.567C139.335 221.506 136.831 221.48 135.106 221.428C134.218 221.449 133.329 221.388 132.452 221.247C133.33 221.113 134.218 221.055 135.106 221.074C136.831 221.022 139.326 220.971 142.413 220.936C145.5 220.902 149.154 220.824 153.259 220.876C157.795 220.98 162.205 222.356 165.962 224.841C167.902 226.112 169.642 227.651 171.128 229.411C172.496 231.064 173.64 232.881 174.534 234.819C174.737 235.277 174.906 235.752 175.091 236.21L175.357 236.901C175.419 237.134 175.489 237.368 175.551 237.601C175.684 238.059 175.817 238.517 175.941 238.966C176.064 239.415 176.109 239.873 176.197 240.314C176.507 242.085 176.675 243.709 176.887 245.212C177.276 248.192 177.586 250.62 177.772 252.287C177.927 253.16 178.001 254.045 177.993 254.931Z" fill="#455A64"/>
<path d="M172.65 338.609H171.766C171.83 335.156 171.189 331.725 169.881 328.517C168.572 325.308 166.622 322.387 164.145 319.922C161.667 317.458 158.711 315.501 155.45 314.165C152.189 312.828 148.688 312.14 145.152 312.14C141.615 312.14 138.114 312.828 134.853 314.165C131.592 315.501 128.636 317.458 126.159 319.922C123.681 322.387 121.731 325.308 120.422 328.517C119.114 331.725 118.473 335.156 118.537 338.609H117.653C117.587 335.042 118.25 331.498 119.603 328.184C120.955 324.87 122.97 321.852 125.53 319.306C128.09 316.761 131.144 314.739 134.513 313.359C137.882 311.979 141.498 311.269 145.152 311.269C148.805 311.269 152.422 311.979 155.79 313.359C159.159 314.739 162.213 316.761 164.773 319.306C167.333 321.852 169.348 324.87 170.7 328.184C172.053 331.498 172.716 335.042 172.65 338.609Z" fill="#455A64"/>
<path d="M122.217 339.974C122.217 340.771 121.976 341.549 121.523 342.211C121.07 342.873 120.426 343.389 119.673 343.694C118.919 343.998 118.09 344.078 117.291 343.923C116.491 343.767 115.757 343.384 115.18 342.821C114.604 342.258 114.211 341.541 114.052 340.76C113.893 339.979 113.974 339.169 114.286 338.434C114.598 337.698 115.127 337.069 115.805 336.627C116.483 336.185 117.28 335.948 118.095 335.948C118.637 335.947 119.173 336.051 119.674 336.253C120.175 336.455 120.63 336.751 121.013 337.125C121.396 337.499 121.699 337.943 121.906 338.432C122.113 338.921 122.219 339.445 122.217 339.974Z" fill="#2D3A41"/>
<path d="M176.534 339.421C176.534 340.218 176.292 340.996 175.839 341.658C175.386 342.32 174.742 342.836 173.989 343.141C173.236 343.445 172.407 343.525 171.607 343.37C170.807 343.214 170.073 342.831 169.496 342.268C168.92 341.705 168.527 340.988 168.368 340.207C168.209 339.426 168.291 338.616 168.603 337.881C168.915 337.145 169.443 336.516 170.121 336.074C170.799 335.632 171.596 335.395 172.411 335.395C173.505 335.395 174.553 335.82 175.326 336.575C176.099 337.33 176.534 338.354 176.534 339.421Z" fill="#2D3A41"/>
<path d="M172.385 332.009C172.385 332.139 160.416 332.242 145.66 332.242C130.905 332.242 118.936 332.139 118.936 332.009C118.936 331.879 130.896 331.784 145.66 331.784C160.425 331.784 172.385 331.888 172.385 332.009Z" fill="#455A64"/>
<path d="M81.0913 163.901C81.7437 164.304 82.3068 164.83 82.7474 165.449C83.188 166.067 83.4972 166.766 83.6567 167.503C83.9593 168.989 83.9109 170.522 83.5152 171.987C82.8429 174.821 80.8613 177.533 78.7382 179.624C76.5178 177.231 76.3851 173.482 76.4382 171.572C76.5266 168.557 78.5701 163.158 81.0913 163.901Z" fill="#58479F"/>
<path d="M81.0558 184.704C80.9888 183.866 81.1489 183.026 81.5201 182.267C81.8912 181.509 82.4603 180.86 83.17 180.384C83.8912 179.92 84.6997 179.6 85.5486 179.442C86.3974 179.285 87.2698 179.294 88.1151 179.469C88.5117 179.509 88.8945 179.634 89.2367 179.834C89.579 180.034 89.8724 180.304 90.0967 180.626C90.2529 180.958 90.3155 181.324 90.2782 181.687C90.2409 182.05 90.1049 182.396 89.8844 182.691C89.4278 183.28 88.8163 183.736 88.1151 184.013C85.8062 185.084 83.3735 185.741 81.0381 184.721" fill="#58479F"/>
<path d="M77.3223 191.028C77.4449 190.394 77.6347 189.774 77.8884 189.179C78.1357 188.517 78.4655 187.887 78.8704 187.304C79.333 186.576 79.8473 185.88 80.4096 185.222C81.4441 184.01 82.7689 183.066 84.2666 182.475C84.7223 182.311 85.1934 182.193 85.6732 182.121C85.8489 182.092 86.0283 182.092 86.204 182.121C86.204 182.181 85.4609 182.259 84.3551 182.717C82.931 183.352 81.6705 184.291 80.6662 185.464C80.1113 186.11 79.5973 186.788 79.1269 187.494C78.7218 188.057 78.3779 188.659 78.1007 189.291C77.8839 189.887 77.6238 190.468 77.3223 191.028Z" fill="#263238"/>
<path d="M79.9053 168.143C79.9383 168.467 79.9383 168.794 79.9053 169.119C79.9053 169.741 79.8168 170.648 79.7372 171.762C79.5691 174 79.2949 177.084 78.9234 180.488C78.5518 183.892 78.1095 186.95 77.7468 189.127C77.561 190.233 77.4106 191.123 77.2868 191.719C77.2411 192.041 77.1672 192.359 77.0656 192.669C77.0627 192.342 77.0923 192.015 77.1541 191.693C77.2514 191.019 77.3664 190.129 77.5079 189.101C77.8087 186.881 78.2068 183.814 78.5872 180.41C78.9676 177.006 79.2595 173.991 79.4718 171.711C79.5868 170.639 79.6841 169.749 79.7549 169.067C79.782 168.756 79.8322 168.447 79.9053 168.143Z" fill="#263238"/>
<path d="M77.1813 185.386C76.84 183.638 76.0781 181.994 74.9584 180.589C73.8387 179.185 72.3932 178.06 70.7411 177.309C69.8565 176.937 68.8038 176.704 68.1315 177.309C67.4592 177.913 67.6361 179.036 67.9899 179.857C68.761 181.59 70.0406 183.06 71.6671 184.083C73.2936 185.105 75.194 185.634 77.1282 185.602" fill="#58479F"/>
<path d="M71.3867 179.883C71.5541 179.934 71.7123 180.009 71.8556 180.108C73.6439 181.111 75.2008 182.464 76.4291 184.082C76.9127 184.798 77.2742 185.585 77.4995 186.414C77.6742 187.092 77.7545 187.789 77.7384 188.488C77.726 188.955 77.6697 189.421 77.5703 189.879C77.5472 190.051 77.4995 190.22 77.4287 190.38C77.358 190.38 77.5172 189.645 77.4995 188.488C77.4823 187.814 77.3843 187.144 77.2076 186.492C76.9706 185.701 76.6127 184.95 76.146 184.263C75.2525 183.028 74.1624 181.94 72.9171 181.041C72.383 180.686 71.8719 180.3 71.3867 179.883Z" fill="#263238"/>
<path d="M76.8889 212.789C73.9554 212.787 71.1428 211.648 69.0693 209.621C66.9958 207.594 65.8311 204.847 65.8311 201.982V191.183H87.9468V201.982C87.9468 204.847 86.7821 207.594 84.7086 209.621C82.6351 211.648 79.8225 212.787 76.8889 212.789Z" fill="#263238"/>
<path d="M87.9557 196.496C87.8664 196.607 87.7656 196.708 87.6549 196.799L86.7702 197.602L83.3998 200.384L83.3202 200.444L83.2229 200.392L76.8447 196.652H77.0305L71.0238 200.384L70.9354 200.444L70.8469 200.375L67.1757 197.567L66.1672 196.773C66.0423 196.683 65.9294 196.579 65.8311 196.462C65.9752 196.519 66.1094 196.598 66.2291 196.695C66.5122 196.894 66.8661 197.144 67.2907 197.429L71.0327 200.142H70.8557L76.7916 196.323L76.8889 196.263L76.9862 196.315L83.3644 200.133H83.1875L86.611 197.429L87.5753 196.686C87.823 196.565 87.9468 196.479 87.9557 196.496Z" fill="#E0E0E0"/>
<path d="M87.9554 194.336C87.8662 194.447 87.7654 194.548 87.6547 194.639L86.77 195.442L83.435 198.25L83.3554 198.31L83.258 198.258L76.8445 194.492H77.0303L71.059 198.267L70.9705 198.328L70.8821 198.258L67.2109 195.451L66.2024 194.656C66.0775 194.566 65.9645 194.462 65.8662 194.345C66.0103 194.402 66.1446 194.481 66.2643 194.578L67.3259 195.313L71.0678 198.025H70.8909L76.8268 194.207L76.9241 194.146L77.0214 194.198L83.3996 198.017H83.2227L86.6462 195.313L87.6104 194.57C87.8227 194.405 87.9466 194.336 87.9554 194.336Z" fill="#E0E0E0"/>
<path d="M87.9559 198.656C87.9559 198.656 87.8586 198.777 87.6551 198.967L86.7705 199.762L83.4354 202.569L83.3558 202.639L83.2585 202.578L76.8449 198.855H77.0307L71.0595 202.63L70.971 202.69L70.8825 202.63C69.4052 201.49 68.1579 200.539 67.2113 199.822L66.2028 199.019C65.9728 198.829 65.8578 198.725 65.8667 198.708C66.0085 198.77 66.1422 198.848 66.2648 198.941C66.5478 199.148 66.9017 199.39 67.3263 199.684L71.0683 202.388H70.8914L76.8273 198.57L76.9246 198.509L77.0219 198.57L83.4001 202.379H83.2231L86.6467 199.667L87.6109 198.932C87.713 198.826 87.829 198.733 87.9559 198.656Z" fill="#E0E0E0"/>
<path d="M374.576 238.154C369.994 238.88 367.941 244.374 368.384 248.892C368.826 253.411 370.693 257.834 370.153 262.335C369.507 268.062 365.075 272.9 364.562 278.637C363.952 285.401 368.853 291.405 370.312 298.04C371.029 301.271 370.931 304.692 372.161 307.768C373.211 310.387 375.158 312.57 377.671 313.944C380.185 315.318 383.108 315.799 385.944 315.304C388.779 314.808 391.351 313.368 393.22 311.228C395.09 309.088 396.142 306.382 396.196 303.569C396.294 298.386 393.012 293.487 393.41 288.304C393.702 284.477 396.002 280.848 395.515 277.073C394.923 272.537 390.623 269.298 389.102 264.978C387.58 260.659 389.049 255.89 388.518 251.346C387.58 243.199 382.954 237.523 374.585 238.171" fill="#58479F"/>
<path d="M379.866 259.043C379.915 259.282 379.945 259.525 379.954 259.769C379.954 260.279 380.043 260.97 380.104 261.851C380.228 263.691 380.396 266.3 380.609 269.497C381.024 275.959 381.608 284.883 382.325 294.731C383.041 304.58 383.731 313.504 384.245 319.957C384.492 323.154 384.696 325.754 384.846 327.603C384.908 328.467 384.952 329.167 384.988 329.676C385.009 329.921 385.009 330.166 384.988 330.411C384.988 330.411 384.943 330.16 384.881 329.685C384.82 329.21 384.749 328.484 384.651 327.612C384.475 325.772 384.227 323.171 383.917 319.983C383.324 313.53 382.573 304.623 381.865 294.766C381.157 284.909 380.635 275.984 380.273 269.497C380.122 266.291 379.998 263.691 379.91 261.842C379.91 260.978 379.857 260.27 379.839 259.752C379.826 259.515 379.835 259.278 379.866 259.043Z" fill="#263238"/>
<path d="M372.754 320.251H392.118V334.134C392.116 336.541 391.136 338.848 389.392 340.549C387.649 342.25 385.285 343.205 382.821 343.205C380.443 343.206 378.154 342.316 376.428 340.719C374.701 339.121 373.668 336.938 373.541 334.618L372.754 320.251Z" fill="#263238"/>
<path d="M274.683 137.223L320.861 162.199L319.118 165.378L273.356 139.936L274.683 137.223Z" fill="#58479F"/>
<path d="M272.41 134.865L274.533 131.694L275.772 132.437L273.87 135.634L272.41 134.865Z" fill="#E8505B"/>
<path d="M315.615 158.251L317.986 159.581L310.254 207.77L306.592 207.813L315.615 158.251Z" fill="#58479F"/>
<path d="M295.95 212.789C295.95 212.789 301.585 207.226 309.122 207.606C311.276 207.683 313.394 208.175 315.352 209.055C317.311 209.934 319.072 211.183 320.534 212.729L295.95 212.789Z" fill="#58479F"/>
<path d="M272.454 156.713L254.169 146.398L259.477 137.474C260.169 136.301 261.092 135.273 262.192 134.449C263.291 133.624 264.547 133.019 265.886 132.669C267.225 132.318 268.621 132.229 269.996 132.405C271.37 132.582 272.696 133.022 273.896 133.699C276.32 135.066 278.088 137.318 278.813 139.958C279.538 142.599 279.16 145.412 277.762 147.78L272.454 156.713Z" fill="#58479F"/>
</g>
<defs>
<clipPath id="clip0_0_598">
<rect width="476" height="344" fill="white"/>
</clipPath>
</defs>
</svg>
