<svg width="417" height="417" viewBox="0 0 417 417" fill="none" xmlns="http://www.w3.org/2000/svg">
<g clip-path="url(#clip0_0_841)">
<path d="M399.157 281.92C357.186 380.022 246.397 422.156 159.591 414.975C135.89 413.013 88.2027 409.066 50.9672 373.855C-20.5349 306.232 -9.52647 164.883 58.9263 81.6643C67.7417 70.9482 128.759 -0.853796 223.845 0.106965C293.462 0.811126 342.326 40.1367 348.266 45.036C355.772 51.2242 372.327 65.931 387.247 89.2638C422.303 144.085 425.384 220.617 399.157 281.92Z" fill="url(#paint0_linear_0_841)"/>
<path d="M400.328 98.7507H164.63V296.256H400.328V98.7507Z" fill="url(#paint1_linear_0_841)"/>
<path d="M408.505 73.1264L156.299 74.7122C152.878 74.7346 150.056 77.2379 150.056 80.3037V117.933C150.056 120.885 152.719 123.304 156.011 123.317L408.507 124.906C412.251 124.93 415.405 122.391 415.405 119.237V78.8074C415.405 75.6416 412.256 73.1025 408.505 73.1264Z" fill="url(#paint2_linear_0_841)"/>
<path d="M408.39 73.1264L156.008 74.7137C152.716 74.7346 150.05 77.1454 150.05 80.0978L415.175 78.7969C415.175 75.6416 412.135 73.1025 408.39 73.1264Z" fill="url(#paint3_linear_0_841)"/>
<path d="M156.008 123.317L408.39 124.906C412.135 124.93 415.175 122.391 415.175 119.237L150.05 117.936C150.05 120.885 152.716 123.296 156.008 123.317Z" fill="url(#paint4_linear_0_841)"/>
<path d="M408.708 135.874L156.308 135.351C152.779 135.351 149.859 137.897 149.822 141.055L149.338 179.898C149.301 182.952 152.024 185.452 155.43 185.482L408.696 187.696C412.338 187.727 415.409 185.189 415.409 182.027V141.59C415.405 138.44 412.342 135.882 408.708 135.874Z" fill="url(#paint5_linear_0_841)"/>
<path d="M408.592 135.874L156.019 135.349C152.62 135.349 149.838 137.802 149.801 140.844L415.181 141.59C415.175 138.44 412.226 135.882 408.592 135.874Z" fill="url(#paint6_linear_0_841)"/>
<path d="M155.422 185.482L408.577 187.696C412.22 187.727 415.175 185.189 415.175 182.027L149.325 179.898C149.286 182.952 152.016 185.452 155.422 185.482Z" fill="url(#paint7_linear_0_841)"/>
<path d="M408.815 198.759H156.653C153.007 198.759 150.056 201.445 150.056 204.727V244.943C150.056 248.098 152.89 250.523 156.408 250.523H408.815C412.327 250.523 415.405 248.098 415.405 244.943V204.506C415.405 201.349 412.327 198.759 408.815 198.759Z" fill="url(#paint8_linear_0_841)"/>
<path d="M408.815 198.759H156.408C152.896 198.759 150.05 201.272 150.05 204.288H415.175C415.175 201.272 412.327 198.759 408.815 198.759Z" fill="url(#paint9_linear_0_841)"/>
<path d="M156.408 250.523H408.815C412.327 250.523 415.175 248.01 415.175 244.995H150.05C150.05 248.016 152.896 250.523 156.408 250.523Z" fill="url(#paint10_linear_0_841)"/>
<path d="M409.082 262.663L156.778 261.676C153.065 261.661 150.056 264.307 150.056 267.585V307.804C150.056 310.958 152.951 313.517 156.526 313.517L408.95 313.614C412.4 313.614 415.202 311.106 415.215 308.009L415.327 268.301C415.327 265.201 412.536 262.677 409.082 262.663Z" fill="url(#paint11_linear_0_841)"/>
<path d="M409.082 262.663L156.526 261.674C152.945 261.661 150.05 264.21 150.05 267.366L415.318 268.301C415.327 265.201 412.536 262.677 409.082 262.663Z" fill="url(#paint12_linear_0_841)"/>
<path d="M156.523 313.517L408.947 313.614C412.397 313.614 415.201 311.106 415.212 308.009L150.056 307.804C150.05 310.958 152.948 313.517 156.523 313.517Z" fill="url(#paint13_linear_0_841)"/>
<g opacity="0.3">
<path opacity="0.3" d="M279.839 78.3375C279.425 78.2652 279.053 78.0424 278.793 77.7119C278.533 77.3815 278.405 76.9667 278.432 76.5473C278.561 74.6273 278.774 72.6864 279.066 70.7753C279.1 70.5543 279.177 70.3421 279.293 70.1508C279.408 69.9595 279.561 69.7929 279.741 69.6605C279.921 69.528 280.125 69.4324 280.342 69.3789C280.559 69.3255 280.785 69.3153 281.006 69.349H281.037C281.477 69.4248 281.87 69.6706 282.131 70.0334C282.392 70.3963 282.499 70.847 282.431 71.2885C282.152 73.1041 281.949 74.9495 281.826 76.7726C281.796 77.2232 281.588 77.6433 281.248 77.9407C280.908 78.2381 280.464 78.3883 280.014 78.3584C279.957 78.354 279.897 78.3465 279.839 78.3375ZM282.474 63.7381C282.407 63.7263 282.342 63.7108 282.277 63.6919C281.844 63.5627 281.48 63.2671 281.265 62.8699C281.05 62.4728 281.001 62.0065 281.13 61.5734C281.68 59.722 282.323 57.8751 283.018 56.0864C283.183 55.666 283.508 55.3283 283.922 55.1475C284.336 54.9668 284.804 54.9578 285.225 55.1226C285.645 55.2874 285.983 55.6125 286.164 56.0263C286.344 56.4401 286.353 56.9087 286.189 57.3291C285.52 59.0313 284.918 60.7842 284.398 62.5506C284.278 62.9495 284.016 63.2905 283.661 63.5093C283.307 63.7281 282.884 63.8095 282.474 63.7381ZM288.258 50.0816C287.989 50.0351 287.735 49.9246 287.518 49.7596C287.301 49.5945 287.126 49.3797 287.009 49.1332C286.892 48.8867 286.836 48.6157 286.846 48.3431C286.855 48.0704 286.93 47.804 287.064 47.5663C288.01 45.888 289.043 44.2275 290.13 42.6432C290.253 42.4513 290.413 42.286 290.601 42.1572C290.789 42.0284 291.001 41.9386 291.225 41.8931C291.448 41.8477 291.678 41.8476 291.902 41.8927C292.125 41.9379 292.337 42.0274 292.526 42.156C292.714 42.2846 292.874 42.4496 292.997 42.6414C293.121 42.8331 293.204 43.0476 293.243 43.2722C293.282 43.4968 293.275 43.727 293.224 43.949C293.172 44.171 293.076 44.3803 292.942 44.5647C291.908 46.076 290.93 47.6514 290.03 49.2462C289.857 49.5509 289.593 49.7946 289.276 49.9442C288.959 50.0937 288.603 50.1417 288.258 50.0816ZM296.952 38.0587C296.633 38.004 296.336 37.8585 296.098 37.6395C295.932 37.4889 295.798 37.3073 295.703 37.1049C295.608 36.9026 295.554 36.6835 295.543 36.4602C295.533 36.2369 295.567 36.0137 295.643 35.8034C295.719 35.5931 295.835 35.3998 295.986 35.2346C297.285 33.8083 298.662 32.4224 300.078 31.1125C300.242 30.9607 300.434 30.8427 300.644 30.7652C300.854 30.6878 301.077 30.6524 301.301 30.6612C301.524 30.6699 301.744 30.7225 301.947 30.8161C302.15 30.9097 302.332 31.0423 302.484 31.2065C302.636 31.3707 302.754 31.5632 302.832 31.773C302.909 31.9827 302.944 32.2057 302.936 32.4292C302.927 32.6526 302.874 32.8722 302.781 33.0753C302.687 33.2784 302.554 33.4611 302.39 33.6129C301.048 34.8556 299.738 36.1729 298.504 37.529C298.311 37.7409 298.067 37.9006 297.796 37.9932C297.525 38.0857 297.235 38.1083 296.952 38.0587ZM308.11 28.278C307.778 28.22 307.47 28.0647 307.226 27.8317C306.982 27.5987 306.813 27.2985 306.74 26.9692C306.667 26.6399 306.693 26.2963 306.815 25.9819C306.937 25.6675 307.15 25.3965 307.427 25.2033C309.007 24.1038 310.655 23.0565 312.328 22.0912C312.521 21.9795 312.735 21.9069 312.957 21.8778C313.178 21.8486 313.404 21.8634 313.62 21.9213C313.836 21.9792 314.038 22.0791 314.215 22.2153C314.393 22.3514 314.542 22.5212 314.653 22.7148C314.765 22.9085 314.838 23.1223 314.867 23.344C314.896 23.5657 314.881 23.7909 314.823 24.0069C314.765 24.2229 314.665 24.4253 314.529 24.6027C314.393 24.7801 314.223 24.9289 314.03 25.0406C312.441 25.9567 310.873 26.9532 309.372 27.9975C309.005 28.2541 308.551 28.355 308.11 28.278ZM321.152 21.2095C320.787 21.1465 320.453 20.9664 320.2 20.6966C319.947 20.4267 319.788 20.0818 319.748 19.7139C319.709 19.346 319.79 18.9751 319.979 18.6574C320.169 18.3397 320.457 18.0923 320.8 17.9528C322.59 17.2277 324.427 16.5713 326.268 16.0014C326.483 15.9279 326.711 15.8983 326.939 15.9145C327.166 15.9307 327.388 15.9923 327.591 16.0957C327.794 16.199 327.974 16.3421 328.121 16.5163C328.267 16.6906 328.378 16.8925 328.445 17.1102C328.513 17.3278 328.536 17.5568 328.513 17.7835C328.49 18.0102 328.422 18.2301 328.313 18.43C328.204 18.63 328.056 18.8061 327.877 18.9478C327.699 19.0896 327.494 19.1941 327.275 19.2552C325.525 19.7967 323.778 20.4203 322.08 21.1081C321.786 21.2288 321.465 21.264 321.152 21.2095ZM383.33 27.8439C383.091 27.8021 382.863 27.7095 382.663 27.5723C381.15 26.543 379.573 25.5658 377.974 24.6677C377.779 24.5583 377.608 24.4115 377.469 24.2358C377.331 24.0601 377.229 23.859 377.168 23.6437C377.108 23.4285 377.091 23.2035 377.117 22.9815C377.144 22.7596 377.213 22.545 377.323 22.3501C377.432 22.1551 377.579 21.9837 377.755 21.8454C377.93 21.7072 378.132 21.6049 378.347 21.5445C378.562 21.484 378.787 21.4665 379.009 21.493C379.231 21.5195 379.446 21.5894 379.64 21.6989C381.325 22.6447 382.987 23.6726 384.58 24.7572C384.902 24.9763 385.139 25.299 385.251 25.6716C385.364 26.0441 385.346 26.444 385.2 26.8047C385.054 27.1655 384.789 27.4654 384.448 27.6544C384.108 27.8435 383.713 27.9103 383.33 27.8439ZM335.425 17.2084C335.028 17.1391 334.669 16.9317 334.41 16.6228C334.152 16.3139 334.012 15.9235 334.014 15.5209C334.016 15.1183 334.161 14.7295 334.422 14.4234C334.684 14.1173 335.045 13.9137 335.443 13.8487C337.345 13.5399 339.284 13.3101 341.207 13.1654C341.433 13.1433 341.661 13.1665 341.878 13.2337C342.095 13.301 342.296 13.4109 342.47 13.5569C342.643 13.703 342.786 13.8823 342.89 14.0844C342.993 14.2864 343.055 14.5071 343.072 14.7334C343.089 14.9598 343.061 15.1872 342.989 15.4024C342.916 15.6177 342.802 15.8163 342.652 15.9867C342.502 16.1571 342.32 16.2958 342.115 16.3946C341.911 16.4935 341.689 16.5505 341.462 16.5624C339.636 16.6996 337.795 16.9174 335.989 17.2098C335.802 17.2407 335.611 17.2402 335.425 17.2084ZM370.203 20.938C370.09 20.9185 369.98 20.8875 369.873 20.8455C368.168 20.1802 366.411 19.5804 364.652 19.0553C364.432 18.9964 364.227 18.8942 364.047 18.7547C363.868 18.6152 363.718 18.4412 363.607 18.2429C363.496 18.0446 363.425 17.8261 363.4 17.6002C363.374 17.3744 363.394 17.1457 363.459 16.9277C363.523 16.7096 363.63 16.5067 363.774 16.3308C363.918 16.1548 364.096 16.0095 364.297 15.9033C364.498 15.7971 364.718 15.7322 364.945 15.7124C365.171 15.6926 365.399 15.7184 365.615 15.7881C367.467 16.3356 369.315 16.9667 371.11 17.6664C371.502 17.8204 371.824 18.1143 372.012 18.4915C372.2 18.8686 372.242 19.3021 372.129 19.7082C372.016 20.1143 371.757 20.4642 371.401 20.6903C371.045 20.9163 370.619 21.0024 370.203 20.932V20.938ZM350.236 16.5027C349.808 16.4259 349.426 16.1887 349.167 15.8395C348.909 15.4903 348.794 15.0555 348.845 14.624C348.896 14.1926 349.111 13.7971 349.444 13.5185C349.778 13.2399 350.205 13.0991 350.639 13.1251C352.56 13.2504 354.503 13.4593 356.411 13.7487H356.446C356.667 13.7846 356.879 13.8635 357.069 13.9811C357.259 14.0987 357.424 14.2526 357.555 14.434C357.686 14.6154 357.779 14.8208 357.831 15.0384C357.882 15.256 357.89 15.4816 357.854 15.7023C357.818 15.923 357.739 16.1345 357.622 16.3247C357.504 16.5148 357.35 16.68 357.169 16.8107C356.987 16.9414 356.782 17.0351 356.564 17.0864C356.347 17.1378 356.121 17.1457 355.9 17.1099C354.088 16.8354 352.242 16.637 350.418 16.5131C350.358 16.5146 350.297 16.5072 350.237 16.4967L350.236 16.5027Z" fill="#91B3FA"/>
<path opacity="0.3" d="M392.563 35.439C392.225 35.3796 391.913 35.2188 391.668 34.978C391.044 34.3619 390.395 33.7473 389.742 33.1535C389.576 33.003 389.442 32.8215 389.347 32.6191C389.252 32.4168 389.197 32.1977 389.186 31.9743C389.176 31.7509 389.209 31.5277 389.285 31.3172C389.361 31.1068 389.477 30.9133 389.628 30.7479C389.778 30.5824 389.96 30.4482 390.162 30.353C390.364 30.2577 390.583 30.2032 390.807 30.1926C391.03 30.182 391.253 30.2155 391.464 30.2912C391.674 30.3669 391.868 30.4833 392.033 30.6337C392.721 31.2588 393.403 31.9048 394.061 32.5538C394.32 32.8086 394.491 33.1397 394.548 33.4987C394.606 33.8576 394.547 34.2255 394.38 34.5485C394.213 34.8716 393.947 35.1327 393.622 35.2937C393.296 35.4548 392.927 35.5073 392.569 35.4435L392.563 35.439Z" fill="#91B3FA"/>
</g>
<g opacity="0.3">
<path opacity="0.3" d="M412.342 83.4426C411.943 83.3732 411.582 83.164 411.323 82.8527C411.065 82.5413 410.925 82.1481 410.93 81.7434C410.941 80.8661 410.93 79.9725 410.908 79.0908C410.895 78.6394 411.062 78.2012 411.372 77.8728C411.682 77.5443 412.109 77.3525 412.561 77.3394C413.012 77.3263 413.451 77.4932 413.779 77.8032C414.107 78.1131 414.299 78.5409 414.312 78.9924C414.339 79.9218 414.347 80.8617 414.336 81.7851C414.334 82.0089 414.287 82.2299 414.199 82.4356C414.11 82.6412 413.983 82.8275 413.823 82.9838C413.662 83.14 413.473 83.2632 413.265 83.3463C413.057 83.4294 412.835 83.4707 412.612 83.468C412.521 83.4664 412.431 83.4579 412.342 83.4426Z" fill="#91B3FA"/>
<path opacity="0.3" d="M334.79 148.04C334.018 147.908 333.246 147.761 332.472 147.6C332.034 147.504 331.652 147.239 331.408 146.862C331.165 146.486 331.079 146.029 331.171 145.59C331.262 145.151 331.522 144.765 331.896 144.517C332.269 144.269 332.726 144.178 333.166 144.265C334.956 144.635 336.746 144.933 338.523 145.151C338.971 145.206 339.379 145.437 339.657 145.792C339.936 146.148 340.061 146.6 340.006 147.048C339.951 147.497 339.72 147.905 339.364 148.183C339.008 148.461 338.556 148.586 338.108 148.531C337.009 148.397 335.893 148.231 334.79 148.04ZM323.816 145.173C323.721 145.157 323.627 145.133 323.536 145.1C321.745 144.466 319.955 143.748 318.234 142.968C318.03 142.876 317.846 142.745 317.693 142.582C317.54 142.419 317.421 142.227 317.342 142.018C317.182 141.595 317.197 141.127 317.383 140.715C317.569 140.304 317.911 139.983 318.333 139.824C318.756 139.664 319.224 139.679 319.636 139.865C321.277 140.611 322.97 141.287 324.672 141.891C325.074 142.033 325.408 142.322 325.607 142.698C325.807 143.075 325.858 143.513 325.751 143.925C325.643 144.338 325.384 144.695 325.026 144.926C324.668 145.157 324.236 145.245 323.816 145.173ZM347.061 149.004C346.641 148.933 346.264 148.708 346.002 148.373C345.741 148.037 345.614 147.616 345.648 147.192C345.681 146.768 345.872 146.371 346.183 146.081C346.494 145.791 346.903 145.628 347.328 145.624C349.127 145.597 350.949 145.492 352.745 145.313C352.971 145.285 353.2 145.302 353.419 145.363C353.638 145.425 353.842 145.53 354.02 145.672C354.198 145.813 354.346 145.989 354.454 146.189C354.563 146.389 354.631 146.609 354.653 146.835C354.676 147.061 354.653 147.29 354.586 147.507C354.518 147.725 354.408 147.926 354.262 148.1C354.115 148.275 353.935 148.418 353.733 148.521C353.53 148.624 353.309 148.686 353.082 148.703C351.192 148.891 349.272 149.001 347.379 149.03C347.272 149.031 347.166 149.023 347.061 149.004ZM310.673 138.812C310.454 138.773 310.245 138.693 310.057 138.575C308.45 137.563 306.867 136.47 305.353 135.327C305.174 135.192 305.024 135.024 304.911 134.831C304.797 134.638 304.723 134.425 304.692 134.203C304.661 133.982 304.674 133.757 304.73 133.54C304.786 133.324 304.885 133.121 305.019 132.942C305.154 132.764 305.323 132.613 305.515 132.5C305.708 132.387 305.921 132.312 306.143 132.281C306.364 132.25 306.589 132.263 306.806 132.32C307.022 132.376 307.226 132.474 307.404 132.609C308.842 133.695 310.345 134.732 311.871 135.692C312.203 135.903 312.452 136.222 312.576 136.595C312.7 136.968 312.691 137.373 312.55 137.74C312.41 138.108 312.146 138.415 311.805 138.61C311.464 138.806 311.065 138.877 310.677 138.812H310.673ZM361.53 147.166C361.145 147.099 360.794 146.901 360.537 146.605C360.28 146.31 360.133 145.935 360.12 145.543C360.107 145.152 360.229 144.768 360.467 144.456C360.704 144.145 361.041 143.924 361.422 143.832C363.169 143.411 364.923 142.908 366.643 142.34C366.855 142.27 367.079 142.241 367.302 142.257C367.525 142.274 367.743 142.333 367.943 142.434C368.143 142.534 368.321 142.672 368.467 142.841C368.614 143.01 368.725 143.206 368.796 143.419C368.866 143.631 368.894 143.855 368.878 144.078C368.862 144.301 368.803 144.519 368.702 144.718C368.602 144.918 368.464 145.097 368.295 145.243C368.126 145.389 367.929 145.501 367.717 145.571C365.914 146.168 364.067 146.701 362.226 147.144C361.998 147.199 361.762 147.207 361.532 147.166H361.53ZM375.256 142.203C374.902 142.141 374.576 141.969 374.326 141.711C374.075 141.454 373.913 141.123 373.861 140.768C373.81 140.412 373.873 140.049 374.04 139.731C374.207 139.413 374.471 139.156 374.793 138.997C376.412 138.2 378.016 137.327 379.567 136.401C379.954 136.168 380.418 136.099 380.856 136.209C381.294 136.318 381.671 136.597 381.903 136.984C382.136 137.371 382.205 137.835 382.096 138.273C381.986 138.711 381.707 139.088 381.32 139.321C379.694 140.296 378.007 141.215 376.304 142.052C375.981 142.215 375.614 142.27 375.257 142.209L375.256 142.203ZM387.57 134.366C387.246 134.31 386.946 134.162 386.705 133.94C386.464 133.718 386.293 133.431 386.211 133.113C386.129 132.796 386.141 132.461 386.244 132.15C386.348 131.839 386.539 131.565 386.795 131.36C388.202 130.229 389.578 129.028 390.883 127.788C391.044 127.632 391.235 127.508 391.445 127.426C391.654 127.343 391.878 127.303 392.103 127.307C392.328 127.312 392.55 127.361 392.756 127.452C392.962 127.543 393.148 127.673 393.303 127.837C393.458 128 393.579 128.192 393.659 128.402C393.74 128.613 393.777 128.837 393.77 129.062C393.763 129.287 393.712 129.508 393.619 129.713C393.526 129.918 393.393 130.103 393.228 130.256C391.856 131.561 390.409 132.826 388.927 134.015C388.739 134.169 388.52 134.28 388.286 134.341C388.051 134.403 387.806 134.413 387.567 134.372L387.57 134.366ZM397.881 124.03C397.59 123.98 397.316 123.855 397.087 123.667C396.859 123.479 396.683 123.235 396.578 122.958C396.472 122.681 396.441 122.382 396.486 122.089C396.532 121.797 396.653 121.521 396.837 121.29C397.963 119.88 399.042 118.408 400.041 116.91C400.166 116.724 400.325 116.564 400.511 116.439C400.697 116.315 400.906 116.228 401.125 116.185C401.345 116.141 401.571 116.141 401.79 116.184C402.01 116.228 402.219 116.314 402.405 116.438C402.591 116.562 402.751 116.722 402.875 116.908C402.999 117.094 403.086 117.303 403.13 117.522C403.174 117.742 403.174 117.968 403.13 118.187C403.087 118.407 403 118.615 402.876 118.801C401.823 120.38 400.687 121.934 399.501 123.416C399.312 123.657 399.062 123.842 398.776 123.953C398.49 124.063 398.18 124.094 397.878 124.042L397.881 124.03ZM405.675 111.679C405.415 111.634 405.169 111.529 404.956 111.373C404.744 111.217 404.57 111.013 404.45 110.778C404.329 110.544 404.265 110.284 404.262 110.02C404.259 109.756 404.317 109.495 404.432 109.258C405.217 107.638 405.943 105.964 406.591 104.281C406.671 104.072 406.792 103.881 406.946 103.719C407.1 103.557 407.284 103.427 407.488 103.336C407.693 103.245 407.913 103.195 408.137 103.19C408.36 103.184 408.583 103.222 408.791 103.302C409 103.383 409.191 103.503 409.353 103.657C409.515 103.811 409.645 103.996 409.736 104.2C409.827 104.404 409.877 104.625 409.883 104.848C409.889 105.072 409.85 105.294 409.77 105.503C409.088 107.275 408.323 109.039 407.496 110.744C407.336 111.078 407.071 111.35 406.742 111.52C406.412 111.69 406.037 111.748 405.672 111.685L405.675 111.679ZM410.561 97.9272C410.526 97.9212 410.492 97.9138 410.458 97.9048C410.24 97.8534 410.035 97.7596 409.854 97.6289C409.672 97.4981 409.518 97.3329 409.401 97.1427C409.283 96.9525 409.205 96.741 409.169 96.5203C409.133 96.2996 409.141 96.074 409.193 95.8565C409.491 94.5645 409.767 93.2487 409.992 91.9418C410.074 91.4704 410.15 90.9975 410.222 90.526C410.255 90.3046 410.332 90.092 410.447 89.9002C410.563 89.7084 410.715 89.5413 410.895 89.4084C411.075 89.2755 411.28 89.1794 411.497 89.1257C411.714 89.072 411.94 89.0617 412.161 89.0953C412.384 89.126 412.598 89.2009 412.791 89.3157C412.984 89.4304 413.152 89.5826 413.286 89.7634C413.419 89.9441 413.515 90.1497 413.567 90.3681C413.62 90.5864 413.628 90.8131 413.592 91.0348C413.518 91.5321 413.438 92.0293 413.352 92.5266C413.115 93.9006 412.831 95.2851 412.509 96.6442C412.41 97.0679 412.153 97.4378 411.79 97.6778C411.427 97.9178 410.986 98.0097 410.558 97.9347L410.561 97.9272Z" fill="#91B3FA"/>
<path opacity="0.3" d="M299.224 129.682C298.88 129.622 298.562 129.457 298.314 129.21C297.661 128.56 297.009 127.882 296.375 127.198C296.068 126.866 295.906 126.426 295.924 125.975C295.942 125.523 296.139 125.098 296.47 124.791C296.802 124.485 297.242 124.323 297.693 124.341C298.145 124.358 298.57 124.555 298.877 124.887C299.473 125.537 300.096 126.18 300.715 126.798C300.971 127.053 301.14 127.384 301.196 127.741C301.252 128.099 301.192 128.465 301.026 128.787C300.86 129.108 300.595 129.368 300.271 129.529C299.947 129.69 299.58 129.743 299.223 129.682H299.224Z" fill="#91B3FA"/>
</g>
<path d="M304.853 110.615C304.934 110.76 305.059 110.875 305.209 110.946C305.359 111.016 305.527 111.038 305.69 111.008L315.219 109.262C318.322 112.641 321.955 115.491 325.975 117.7L326.555 127.363C326.565 127.528 326.626 127.687 326.73 127.816C326.834 127.944 326.976 128.038 327.136 128.082L338.325 131.206C338.484 131.25 338.654 131.244 338.809 131.187C338.965 131.131 339.099 131.027 339.193 130.891L344.692 122.925C349.277 123.117 353.863 122.56 358.268 121.275L365.515 127.703C365.639 127.813 365.795 127.881 365.959 127.899C366.124 127.916 366.29 127.882 366.434 127.8L376.557 122.095C376.701 122.014 376.816 121.89 376.887 121.74C376.957 121.59 376.979 121.421 376.949 121.258L375.204 111.73C378.582 108.627 381.431 104.994 383.64 100.973L393.304 100.393C393.47 100.384 393.628 100.322 393.757 100.218C393.886 100.114 393.979 99.9725 394.024 99.8128L397.146 88.6238C397.191 88.4641 397.184 88.2944 397.128 88.1384C397.072 87.9825 396.968 87.8481 396.831 87.754L388.865 82.255C389.059 77.6706 388.505 73.0851 387.224 68.6791L393.651 61.4316C393.761 61.3077 393.829 61.1526 393.847 60.9879C393.865 60.8231 393.83 60.6569 393.749 60.5126L388.043 50.3903C387.961 50.2461 387.837 50.1308 387.688 50.0605C387.538 49.9901 387.37 49.9683 387.207 49.9979L377.679 51.7449C374.576 48.366 370.943 45.5159 366.922 43.3069L366.333 33.6351C366.323 33.4698 366.262 33.3117 366.158 33.1829C366.054 33.054 365.912 32.9607 365.753 32.9161L354.564 29.7936C354.404 29.7489 354.235 29.7552 354.079 29.8117C353.923 29.8681 353.789 29.9719 353.695 30.1084L348.195 38.0749C343.61 37.8828 339.025 38.4396 334.619 39.7234L327.368 33.301C327.244 33.1912 327.089 33.1228 326.925 33.1052C326.76 33.0875 326.594 33.1215 326.449 33.2025L316.329 38.9089C316.184 38.9903 316.069 39.1146 315.999 39.2646C315.928 39.4146 315.907 39.5828 315.936 39.7458L317.682 49.2729C314.303 52.376 311.453 56.0091 309.244 60.0292L299.581 60.6096C299.416 60.6195 299.258 60.6808 299.129 60.7848C299 60.8888 298.907 61.0304 298.862 61.1899L295.739 72.3789C295.695 72.5382 295.701 72.7075 295.757 72.8631C295.813 73.0188 295.917 73.153 296.053 73.2471L304.021 78.7476C303.826 83.3321 304.38 87.9177 305.662 92.3236L299.247 99.5756C299.137 99.6994 299.068 99.8545 299.05 100.019C299.033 100.184 299.067 100.35 299.148 100.495L304.853 110.615Z" fill="#91B3FA"/>
<path d="M344.447 92.0073C341.466 91.4924 338.801 89.8415 337.012 87.4018C335.223 84.9621 334.449 81.9237 334.854 78.9256C335.259 75.9274 336.811 73.2032 339.184 71.3258C341.556 69.4484 344.564 68.5641 347.575 68.8589C350.586 69.1536 353.365 70.6045 355.329 72.9064C357.292 75.2083 358.286 78.1818 358.102 81.2016C357.918 84.2213 356.57 87.0521 354.342 89.0985C352.114 91.1449 349.178 92.2475 346.154 92.1744C345.582 92.1599 345.011 92.1041 344.447 92.0073ZM347.989 71.6777C347.552 71.6028 347.11 71.5594 346.667 71.5479C344.359 71.4939 342.12 72.3367 340.421 73.8991C338.721 75.4615 337.694 77.6219 337.554 79.9262C337.414 82.2306 338.173 84.4994 339.671 86.2559C341.169 88.0124 343.289 89.1199 345.587 89.3455C347.884 89.5711 350.18 88.8973 351.991 87.4657C353.802 86.0341 354.988 83.9562 355.299 81.6687C355.61 79.3812 355.022 77.0622 353.659 75.199C352.296 73.3359 350.263 72.0736 347.989 71.6777Z" fill="#BDD0FB"/>
<path d="M341.808 108.676C340.838 108.508 339.877 108.292 338.929 108.027C338.63 107.944 338.332 107.854 338.034 107.761C336.569 107.301 335.142 106.726 333.768 106.04L333.713 106.012L333.555 105.931L333.248 105.771C333.121 105.704 333.018 105.599 332.954 105.47C332.891 105.341 332.87 105.195 332.894 105.054C332.906 104.983 332.93 104.915 332.963 104.851C333.004 104.772 333.061 104.702 333.13 104.645C333.199 104.588 333.278 104.544 333.363 104.518C333.449 104.492 333.538 104.482 333.627 104.49C333.716 104.499 333.803 104.524 333.882 104.566C337.706 106.577 341.953 107.655 346.273 107.711C350.594 107.767 354.867 106.8 358.742 104.888C362.617 102.977 365.985 100.175 368.57 96.7124C371.156 93.2498 372.885 89.2246 373.616 84.9658C374.754 78.2938 373.379 71.4369 369.756 65.7197C366.133 60.0026 360.52 55.8311 354.001 54.0111C339.466 49.9562 324.353 58.4792 320.3 73.007C320.051 73.9002 319.846 74.8054 319.688 75.7192C319.006 79.6666 319.2 83.7158 320.258 87.5795C320.286 87.667 320.295 87.7591 320.286 87.8503C320.277 87.9415 320.25 88.03 320.206 88.1105C320.162 88.1909 320.102 88.2617 320.031 88.3186C319.959 88.3754 319.876 88.4172 319.788 88.4414C319.699 88.4655 319.607 88.4717 319.516 88.4593C319.425 88.447 319.338 88.4165 319.259 88.3696C319.18 88.3227 319.112 88.2604 319.057 88.1864C319.003 88.1124 318.965 88.0283 318.944 87.9391C317.577 82.9294 317.592 77.6433 318.987 72.6415C323.243 57.3872 339.12 48.4434 354.368 52.6982C361.211 54.6102 367.102 58.9901 370.905 64.9919C374.707 70.9938 376.15 78.1917 374.956 85.1955C374.788 86.1671 374.571 87.1296 374.305 88.0793C372.394 94.9234 368.014 100.816 362.011 104.619C356.008 108.421 348.808 109.863 341.804 108.667L341.808 108.676Z" fill="#BDD0FB"/>
<g opacity="0.3">
<path opacity="0.3" d="M214.932 112.658C214.708 112.62 214.502 112.51 214.346 112.344C214.19 112.179 214.092 111.967 214.067 111.74C213.966 110.854 213.888 109.95 213.84 109.055C213.825 108.776 213.921 108.503 214.107 108.296C214.294 108.088 214.555 107.963 214.833 107.947C215.112 107.932 215.385 108.028 215.593 108.214C215.8 108.401 215.926 108.662 215.941 108.94C215.987 109.791 216.059 110.651 216.157 111.497C216.178 111.66 216.159 111.825 216.104 111.98C216.048 112.134 215.957 112.273 215.838 112.386C215.719 112.498 215.574 112.581 215.417 112.628C215.26 112.674 215.094 112.683 214.932 112.653V112.658Z" fill="#91B3FA"/>
<path opacity="0.3" d="M214.751 104.569C214.494 104.526 214.263 104.388 214.102 104.183C213.941 103.978 213.863 103.72 213.883 103.46C213.99 101.92 214.175 100.387 214.438 98.8654C214.493 98.5477 214.553 98.2284 214.614 97.9091C214.675 97.6397 214.837 97.4039 215.066 97.2493C215.295 97.0947 215.575 97.033 215.848 97.0767C216.121 97.1298 216.363 97.2894 216.519 97.5205C216.675 97.7516 216.733 98.0352 216.68 98.309C216.62 98.6153 216.564 98.9206 216.512 99.225C216.261 100.675 216.083 102.137 215.98 103.605C215.971 103.743 215.934 103.878 215.873 104.001C215.811 104.125 215.726 104.235 215.622 104.326C215.518 104.417 215.397 104.486 215.266 104.53C215.135 104.574 214.996 104.592 214.859 104.582L214.751 104.569ZM216.84 93.8498C216.789 93.8409 216.739 93.829 216.691 93.814C216.425 93.7276 216.205 93.5394 216.078 93.2907C215.951 93.042 215.929 92.7532 216.015 92.4877C216.592 90.7114 217.278 88.9721 218.068 87.2796C218.186 87.0268 218.4 86.8315 218.663 86.7366C218.926 86.6418 219.216 86.6552 219.468 86.7739C219.721 86.8926 219.917 87.1068 220.011 87.3696C220.106 87.6323 220.093 87.9219 219.974 88.1747C219.22 89.7891 218.566 91.4482 218.015 93.1426C217.936 93.3817 217.774 93.5845 217.559 93.7143C217.343 93.844 217.088 93.8921 216.84 93.8498ZM221.464 83.9572C221.329 83.9318 221.2 83.8812 221.084 83.808C220.848 83.6589 220.681 83.4224 220.619 83.1503C220.558 82.8783 220.606 82.5928 220.754 82.3565C221.75 80.7754 222.843 79.2573 224.026 77.8107C224.113 77.7038 224.221 77.6151 224.343 77.5497C224.464 77.4843 224.598 77.4435 224.735 77.4297C224.873 77.4158 225.011 77.4291 225.144 77.4689C225.276 77.5087 225.399 77.5742 225.506 77.6616C225.613 77.7489 225.702 77.8565 225.767 77.9782C225.832 78.0999 225.873 78.2332 225.887 78.3706C225.901 78.5081 225.888 78.6469 225.848 78.7791C225.808 78.9114 225.743 79.0345 225.655 79.1415C224.527 80.5213 223.485 81.9697 222.536 83.4783C222.425 83.6555 222.263 83.7957 222.072 83.8809C221.881 83.9662 221.669 83.9928 221.463 83.9572H221.464ZM228.381 75.5028C228.189 75.4711 228.009 75.3863 227.863 75.2581C227.717 75.1299 227.609 74.9633 227.552 74.7772C227.495 74.591 227.492 74.3927 227.542 74.2046C227.592 74.0165 227.693 73.8461 227.835 73.7126C229.188 72.4241 230.619 71.2199 232.119 70.1068C232.23 70.0246 232.356 69.965 232.49 69.9316C232.624 69.8981 232.764 69.8914 232.9 69.9118C233.037 69.9321 233.168 69.9792 233.287 70.0503C233.405 70.1214 233.508 70.2151 233.59 70.3261C233.673 70.437 233.732 70.5631 233.766 70.6971C233.799 70.8311 233.806 70.9704 233.785 71.107C233.765 71.2436 233.718 71.3748 233.647 71.4932C233.576 71.6116 233.482 71.7149 233.371 71.797C231.941 72.8562 230.576 74.0021 229.286 75.2283C229.168 75.3424 229.023 75.4267 228.866 75.4744C228.708 75.5221 228.541 75.5319 228.379 75.5028H228.381ZM237.15 68.9923C236.933 68.9596 236.733 68.8596 236.576 68.7064C236.419 68.5533 236.315 68.3549 236.277 68.1391C236.24 67.9234 236.271 67.7012 236.366 67.5042C236.462 67.3071 236.617 67.1451 236.81 67.041C238.434 66.1208 240.113 65.3002 241.837 64.5839C241.965 64.5309 242.101 64.5035 242.239 64.5033C242.377 64.503 242.514 64.53 242.641 64.5825C242.769 64.6351 242.885 64.7123 242.982 64.8097C243.08 64.907 243.158 65.0227 243.211 65.15C243.264 65.2774 243.291 65.4139 243.291 65.5518C243.291 65.6898 243.265 65.8264 243.212 65.9539C243.159 66.0814 243.082 66.1974 242.985 66.2951C242.888 66.3927 242.772 66.4703 242.645 66.5233C240.999 67.2066 239.397 67.9898 237.847 68.8685C237.636 68.9896 237.39 69.0334 237.15 68.9923ZM247.232 64.8151C246.991 64.7818 246.769 64.6654 246.605 64.486C246.44 64.3065 246.344 64.0753 246.332 63.8322C246.32 63.5892 246.393 63.3496 246.539 63.1548C246.685 62.96 246.894 62.8222 247.131 62.7653C248.93 62.267 250.758 61.8809 252.606 61.6091C252.743 61.5895 252.882 61.5971 253.017 61.6315C253.151 61.6659 253.277 61.7264 253.388 61.8095C253.499 61.8926 253.592 61.9967 253.663 62.1159C253.733 62.2351 253.78 62.3671 253.799 62.5042C253.819 62.6414 253.811 62.781 253.777 62.9152C253.742 63.0494 253.682 63.1755 253.599 63.2863C253.516 63.3972 253.412 63.4905 253.292 63.5611C253.173 63.6317 253.041 63.6781 252.904 63.6977C251.142 63.9569 249.399 64.3251 247.683 64.8002C247.535 64.8379 247.381 64.843 247.232 64.8151ZM258.029 63.2263C257.752 63.2055 257.494 63.0756 257.313 62.865C257.132 62.6545 257.042 62.3806 257.063 62.1037C257.083 61.8267 257.213 61.5693 257.424 61.3881C257.634 61.207 257.908 61.1169 258.185 61.1377C260.053 61.0971 261.921 61.1713 263.78 61.36C264.044 61.4036 264.281 61.5463 264.444 61.759C264.606 61.9716 264.682 62.2382 264.654 62.5045C264.627 62.7708 264.5 63.0166 264.297 63.1921C264.095 63.3675 263.834 63.4592 263.566 63.4486C261.794 63.2681 260.012 63.1968 258.231 63.2352C258.164 63.2386 258.096 63.2351 258.029 63.2248V63.2263ZM274.141 65.8758C274.079 65.8663 274.019 65.8502 273.96 65.8281C272.503 65.3018 271.019 64.8536 269.514 64.4854C269.286 64.4287 269.067 64.375 268.836 64.3243C268.564 64.262 268.328 64.0945 268.179 63.8585C268.031 63.6224 267.982 63.3372 268.043 63.0652C268.073 62.93 268.129 62.802 268.209 62.6888C268.288 62.5755 268.389 62.4791 268.506 62.4053C268.623 62.3314 268.754 62.2816 268.89 62.2586C269.027 62.2356 269.166 62.24 269.301 62.2715C269.541 62.3267 269.78 62.3834 270.019 62.443C271.595 62.829 273.15 63.2986 274.676 63.8499C274.945 63.9209 275.174 64.0957 275.314 64.3357C275.453 64.5758 275.492 64.8614 275.421 65.1299C275.35 65.3984 275.175 65.6276 274.935 65.7672C274.695 65.9068 274.409 65.9454 274.141 65.8743V65.8758Z" fill="#91B3FA"/>
</g>
<g opacity="0.3">
<path opacity="0.3" d="M252.079 151.427C251.943 151.404 251.813 151.355 251.695 151.282C251.578 151.209 251.476 151.114 251.396 151.001C251.316 150.889 251.258 150.762 251.227 150.627C251.196 150.493 251.191 150.353 251.214 150.217C251.237 150.081 251.286 149.95 251.359 149.833C251.432 149.716 251.527 149.614 251.64 149.534C251.752 149.453 251.879 149.396 252.014 149.365C252.148 149.334 252.288 149.329 252.424 149.352C254.152 149.628 255.896 149.799 257.645 149.863C257.784 149.869 257.919 149.901 258.045 149.958C258.171 150.016 258.284 150.098 258.378 150.199C258.472 150.3 258.545 150.419 258.593 150.549C258.641 150.678 258.663 150.816 258.658 150.954C258.653 151.092 258.621 151.228 258.563 151.354C258.506 151.479 258.424 151.592 258.323 151.686C258.222 151.78 258.103 151.854 257.973 151.902C257.844 151.95 257.706 151.972 257.568 151.967C255.732 151.898 253.902 151.718 252.088 151.428L252.079 151.427ZM246.825 150.26C246.788 150.254 246.751 150.246 246.714 150.235C244.948 149.731 243.212 149.121 241.518 148.409C241.261 148.301 241.057 148.095 240.952 147.836C240.847 147.578 240.848 147.288 240.957 147.031C241.065 146.774 241.271 146.57 241.529 146.465C241.788 146.36 242.077 146.361 242.334 146.469C243.951 147.149 245.606 147.731 247.292 148.213C247.563 148.275 247.799 148.443 247.947 148.678C248.095 148.914 248.144 149.199 248.082 149.47C248.02 149.742 247.853 149.978 247.617 150.126C247.381 150.274 247.096 150.322 246.825 150.26ZM262.81 151.822C262.533 151.81 262.272 151.689 262.085 151.485C261.897 151.281 261.799 151.01 261.811 150.733C261.823 150.456 261.944 150.195 262.148 150.008C262.352 149.82 262.623 149.722 262.9 149.734C264.646 149.583 266.382 149.327 268.097 148.967C268.37 148.91 268.655 148.963 268.888 149.116C269.122 149.269 269.285 149.508 269.342 149.781C269.4 150.054 269.346 150.338 269.193 150.572C269.041 150.805 268.802 150.968 268.529 151.026C266.73 151.403 264.911 151.671 263.08 151.83C262.99 151.839 262.9 151.836 262.81 151.822ZM236.923 146.088C236.803 146.067 236.687 146.025 236.58 145.964C234.986 145.048 233.448 144.036 231.976 142.934C231.866 142.851 231.773 142.747 231.702 142.628C231.632 142.509 231.586 142.378 231.566 142.241C231.547 142.104 231.554 141.965 231.589 141.831C231.623 141.698 231.683 141.572 231.766 141.461C231.849 141.351 231.953 141.258 232.072 141.187C232.19 141.117 232.322 141.071 232.459 141.051C232.595 141.032 232.735 141.039 232.868 141.074C233.002 141.108 233.128 141.168 233.238 141.251C234.641 142.302 236.106 143.266 237.626 144.139C237.852 144.255 238.027 144.449 238.12 144.686C238.213 144.922 238.217 145.183 238.131 145.422C238.044 145.661 237.875 145.86 237.652 145.982C237.43 146.105 237.171 146.142 236.923 146.088ZM273.325 149.613C273.09 149.58 272.873 149.467 272.711 149.294C272.548 149.121 272.449 148.898 272.43 148.661C272.412 148.425 272.474 148.189 272.607 147.992C272.741 147.796 272.937 147.651 273.164 147.581C274.822 147.015 276.445 146.349 278.023 145.588C278.274 145.467 278.563 145.45 278.827 145.542C279.09 145.634 279.306 145.827 279.427 146.078C279.549 146.329 279.565 146.618 279.473 146.882C279.381 147.145 279.189 147.361 278.937 147.482C277.282 148.28 275.581 148.978 273.843 149.571C273.674 149.629 273.494 149.643 273.319 149.613H273.325ZM282.997 144.946C282.785 144.914 282.589 144.817 282.434 144.67C282.28 144.522 282.174 144.331 282.131 144.121C282.089 143.912 282.112 143.694 282.197 143.498C282.282 143.302 282.425 143.137 282.607 143.025C284.082 142.077 285.499 141.043 286.85 139.926C286.957 139.838 287.079 139.772 287.211 139.731C287.343 139.69 287.482 139.676 287.62 139.689C287.757 139.702 287.891 139.741 288.013 139.806C288.135 139.871 288.243 139.959 288.332 140.065C288.42 140.171 288.486 140.294 288.527 140.426C288.568 140.558 288.582 140.697 288.569 140.834C288.556 140.972 288.516 141.106 288.452 141.228C288.387 141.35 288.299 141.458 288.193 141.546C286.777 142.717 285.292 143.802 283.746 144.796C283.522 144.94 283.252 144.994 282.991 144.946H282.997ZM291.274 138.097C291.086 138.064 290.911 137.981 290.768 137.857C290.624 137.733 290.516 137.572 290.456 137.391C290.396 137.211 290.387 137.017 290.428 136.832C290.469 136.646 290.56 136.475 290.69 136.337C291.896 135.064 293.023 133.719 294.065 132.309C294.231 132.084 294.479 131.935 294.755 131.894C295.031 131.853 295.312 131.923 295.537 132.089C295.761 132.255 295.91 132.503 295.951 132.779C295.993 133.055 295.923 133.336 295.757 133.56C294.663 135.038 293.481 136.448 292.216 137.782C292.096 137.91 291.947 138.005 291.78 138.06C291.614 138.115 291.437 138.128 291.265 138.097H291.274Z" fill="#91B3FA"/>
<path opacity="0.3" d="M228.29 139.611C228.083 139.575 227.891 139.478 227.74 139.332C227.092 138.709 226.458 138.063 225.858 137.412C225.765 137.311 225.692 137.192 225.644 137.062C225.596 136.933 225.574 136.795 225.58 136.657C225.585 136.519 225.618 136.383 225.676 136.258C225.734 136.132 225.816 136.02 225.917 135.926C226.019 135.832 226.138 135.759 226.267 135.711C226.397 135.664 226.535 135.642 226.673 135.647C226.811 135.653 226.946 135.685 227.072 135.743C227.197 135.801 227.31 135.883 227.404 135.985C227.975 136.605 228.579 137.221 229.194 137.817C229.355 137.973 229.461 138.177 229.497 138.398C229.534 138.619 229.499 138.846 229.398 139.046C229.296 139.246 229.134 139.408 228.934 139.509C228.734 139.61 228.507 139.644 228.286 139.607L228.29 139.611Z" fill="#91B3FA"/>
</g>
<path d="M231.466 126.371C231.52 126.468 231.603 126.545 231.703 126.592C231.804 126.639 231.916 126.654 232.025 126.634L238.402 125.465C240.478 127.726 242.908 129.634 245.598 131.112L245.986 137.578C245.993 137.688 246.034 137.794 246.104 137.88C246.174 137.966 246.269 138.029 246.376 138.058L253.863 140.147C253.97 140.177 254.084 140.173 254.188 140.135C254.292 140.097 254.382 140.028 254.445 139.937L258.126 134.606C261.193 134.734 264.26 134.361 267.207 133.502L272.057 137.803C272.139 137.877 272.243 137.923 272.353 137.935C272.464 137.946 272.575 137.923 272.671 137.869L279.444 134.051C279.541 133.997 279.618 133.914 279.665 133.813C279.712 133.713 279.727 133.601 279.707 133.492L278.539 127.115C280.8 125.039 282.708 122.608 284.186 119.917L290.651 119.529C290.762 119.523 290.867 119.482 290.954 119.412C291.04 119.343 291.102 119.248 291.132 119.141L293.22 111.652C293.25 111.545 293.246 111.432 293.209 111.328C293.171 111.223 293.101 111.133 293.01 111.07L287.684 107.393C287.812 104.326 287.439 101.258 286.58 98.3105L290.881 93.4604C290.955 93.3776 291.001 93.2739 291.012 93.1636C291.024 93.0534 291.001 92.9423 290.947 92.8458L287.129 86.0727C287.074 85.9765 286.991 85.8996 286.891 85.8526C286.791 85.8056 286.678 85.7907 286.57 85.8101L280.193 86.9797C278.117 84.7183 275.686 82.811 272.995 81.333L272.607 74.8658C272.6 74.7554 272.559 74.6498 272.49 74.5637C272.42 74.4776 272.326 74.4153 272.219 74.3854L264.73 72.2968C264.623 72.2672 264.51 72.2715 264.406 72.3092C264.301 72.3469 264.211 72.4161 264.148 72.5072L260.469 77.8391C257.402 77.7103 254.334 78.0827 251.387 78.9416L246.538 74.6405C246.455 74.5673 246.351 74.5217 246.241 74.5099C246.13 74.4981 246.019 74.5208 245.922 74.5749L239.149 78.3941C239.053 78.4486 238.976 78.5317 238.929 78.632C238.882 78.7322 238.867 78.8446 238.887 78.9535L240.055 85.3297C237.794 87.4061 235.888 89.8369 234.409 92.5265L227.942 92.9144C227.832 92.9214 227.726 92.9627 227.64 93.0325C227.554 93.1023 227.492 93.1971 227.462 93.3038L225.373 100.791C225.343 100.898 225.348 101.012 225.385 101.116C225.423 101.22 225.492 101.31 225.584 101.373L230.915 105.054C230.787 108.121 231.159 111.188 232.018 114.135L227.711 118.983C227.638 119.066 227.592 119.17 227.58 119.28C227.568 119.39 227.591 119.501 227.645 119.598L231.466 126.371Z" fill="#91B3FA"/>
<path d="M257.925 114.06C255.889 113.708 254.07 112.58 252.849 110.913C251.628 109.247 251.101 107.172 251.378 105.125C251.655 103.078 252.715 101.218 254.335 99.9362C255.955 98.6545 258.009 98.0509 260.065 98.2523C262.121 98.4538 264.019 99.4445 265.36 101.016C266.7 102.588 267.379 104.618 267.254 106.68C267.129 108.742 266.209 110.675 264.687 112.073C263.166 113.471 261.163 114.224 259.097 114.175C258.704 114.165 258.312 114.126 257.925 114.06ZM260.297 100.456C260.014 100.408 259.728 100.379 259.441 100.371C257.889 100.332 256.385 100.912 255.261 101.982C254.136 103.052 253.483 104.525 253.445 106.077C253.406 107.629 253.986 109.133 255.056 110.257C256.126 111.381 257.599 112.035 259.151 112.073C260.628 112.11 262.065 111.586 263.172 110.607C264.279 109.629 264.975 108.267 265.12 106.797C265.265 105.326 264.849 103.855 263.954 102.679C263.059 101.503 261.753 100.709 260.297 100.456Z" fill="#BDD0FB"/>
<path d="M256.074 125.656C254.08 125.312 252.15 124.666 250.35 123.741L250.189 123.657C249.942 123.528 249.757 123.305 249.674 123.039C249.591 122.772 249.617 122.484 249.747 122.237C249.877 121.99 250.099 121.805 250.366 121.722C250.632 121.639 250.92 121.666 251.167 121.796C252.283 122.382 253.458 122.848 254.673 123.186L254.873 123.241C257.708 124.007 260.69 124.049 263.545 123.363C265.098 122.989 266.592 122.407 267.99 121.634L268.024 121.617L268.13 121.557C270.158 120.419 271.94 118.89 273.374 117.059C274.808 115.229 275.865 113.132 276.484 110.89C276.648 110.299 276.782 109.706 276.884 109.112C277.329 106.499 277.183 103.819 276.454 101.271C275.726 98.7223 274.435 96.3697 272.676 94.3866C270.918 92.4035 268.737 90.8403 266.294 89.8125C263.85 88.7847 261.208 88.3183 258.56 88.4479C255.913 88.5774 253.328 89.2996 250.997 90.561C248.666 91.8225 246.648 93.5911 245.091 95.7364C243.535 97.8818 242.48 100.349 242.004 102.957C241.528 105.564 241.643 108.245 242.341 110.802C242.378 110.935 242.388 111.074 242.371 111.211C242.353 111.348 242.309 111.481 242.241 111.601C242.173 111.721 242.081 111.826 241.972 111.911C241.863 111.996 241.738 112.058 241.605 112.095C241.472 112.131 241.333 112.141 241.196 112.124C241.059 112.107 240.926 112.063 240.806 111.994C240.686 111.926 240.581 111.835 240.496 111.726C240.411 111.616 240.349 111.492 240.312 111.358C239.546 108.56 239.405 105.627 239.899 102.768C240.014 102.109 240.162 101.452 240.347 100.805C241.711 95.9123 244.902 91.7302 249.26 89.1226C253.619 86.5149 258.813 85.6808 263.769 86.7925C268.725 87.9042 273.065 90.8768 275.893 95.0964C278.72 99.316 279.819 104.46 278.962 109.467C278.847 110.131 278.698 110.795 278.515 111.454C275.762 121.324 265.961 127.365 256.074 125.656Z" fill="#BDD0FB"/>
<path d="M25.0922 358.04C25.0973 359.541 25.6965 360.979 26.7589 362.04C27.8212 363.1 29.2602 363.697 30.7613 363.7H337.191C338.692 363.697 340.13 363.1 341.193 362.039C342.255 360.979 342.854 359.541 342.86 358.04L345.409 181.946C345.409 178.833 341.741 172.755 335.017 173.211L35.5368 165.462C33.6028 165.411 31.6786 165.754 29.8809 166.469C28.0833 167.184 26.4498 168.257 25.0794 169.623C23.7091 170.989 22.6306 172.619 21.9093 174.414C21.1881 176.209 20.8391 178.132 20.8837 180.066L25.0922 358.04Z" fill="url(#paint14_linear_0_841)"/>
<path d="M30.6866 352.608C30.6898 354.029 31.2556 355.39 32.2602 356.394C33.2648 357.399 34.6264 357.964 36.0469 357.967H329.795C331.216 357.964 332.578 357.398 333.583 356.393C334.588 355.388 335.153 354.026 335.155 352.605L337.562 192.747C337.278 183.126 328.845 179.669 323.732 179.874L36.7138 172.176C35.3543 172.14 34.0018 172.381 32.7384 172.885C31.4749 173.388 30.327 174.143 29.3643 175.103C28.4015 176.064 27.6441 177.21 27.1379 178.472C26.6318 179.734 26.3875 181.086 26.4199 182.446L30.6866 352.608Z" fill="url(#paint15_linear_0_841)"/>
<path d="M331.98 276.66H331.968C331.864 276.659 331.763 276.637 331.668 276.596C331.573 276.555 331.487 276.496 331.415 276.421C331.343 276.347 331.287 276.26 331.249 276.164C331.211 276.068 331.192 275.965 331.193 275.862L331.384 262.898C331.387 262.691 331.471 262.494 331.618 262.349C331.765 262.204 331.963 262.123 332.169 262.123H332.177C332.28 262.124 332.382 262.146 332.477 262.187C332.573 262.228 332.659 262.287 332.731 262.361C332.803 262.435 332.86 262.523 332.898 262.619C332.937 262.715 332.955 262.818 332.954 262.921L332.764 275.886C332.762 276.092 332.678 276.289 332.531 276.434C332.384 276.579 332.186 276.66 331.98 276.66Z" fill="#7D97F4"/>
<path d="M332.441 244.895C332.337 244.894 332.235 244.872 332.14 244.831C332.045 244.79 331.96 244.731 331.888 244.657C331.816 244.583 331.759 244.495 331.721 244.399C331.683 244.303 331.665 244.2 331.666 244.097L332.394 194.443C332.381 191.494 331.486 189.14 329.734 187.46C326.463 184.327 321.269 184.487 321.052 184.497L229.315 182.037C229.212 182.034 229.111 182.012 229.016 181.97C228.922 181.928 228.837 181.868 228.766 181.793C228.695 181.718 228.639 181.63 228.602 181.534C228.565 181.437 228.547 181.335 228.55 181.231C228.547 181.127 228.566 181.022 228.607 180.925C228.647 180.829 228.707 180.741 228.783 180.669C228.859 180.597 228.95 180.542 229.049 180.507C229.148 180.472 229.253 180.459 229.357 180.468L321.04 182.928C321.61 182.893 327.138 182.798 330.82 186.326C332.893 188.31 333.953 191.045 333.967 194.452L333.237 244.121C333.236 244.224 333.214 244.326 333.173 244.421C333.133 244.516 333.074 244.601 333 244.673C332.926 244.745 332.838 244.802 332.742 244.84C332.646 244.878 332.544 244.897 332.441 244.895Z" fill="#7D97F4"/>
<path d="M1.07675 378.317L360.652 378.317C361.118 378.317 361.495 377.94 361.495 377.474V363.688C361.495 363.223 361.118 362.845 360.652 362.845L1.07675 362.845C0.611237 362.845 0.233887 363.223 0.233887 363.688V377.474C0.233887 377.94 0.611237 378.317 1.07675 378.317Z" fill="url(#paint16_linear_0_841)"/>
<path d="M54.9609 227.326V233.823H149.817V227.326H54.9609Z" fill="#7D97F4"/>
<path d="M54.5137 183.902V190.399H149.369V183.902H54.5137Z" fill="#7D97F4"/>
<path d="M81.2549 195.018V201.515H149.652V195.018H81.2549Z" fill="#7D97F4"/>
<path d="M66.7813 194.499V200.996H76.6246V194.499H66.7813Z" fill="#7D97F4"/>
<path d="M81.1875 205.877V212.374H149.585V205.877H81.1875Z" fill="#7D97F4"/>
<path d="M66.7314 205.358V211.855H76.5748V205.358H66.7314Z" fill="#7D97F4"/>
<path d="M80.9356 216.721V223.218H149.333V216.721H80.9356Z" fill="#7D97F4"/>
<path d="M66.1465 216.201V222.698H75.9898V216.201H66.1465Z" fill="#7D97F4"/>
<path d="M54.5107 272.537V279.034H149.367V272.537H54.5107Z" fill="#7D97F4"/>
<path d="M80.8077 240.229V246.726H149.205V240.229H80.8077Z" fill="#7D97F4"/>
<path d="M66.3301 239.708V246.205H76.1734V239.708H66.3301Z" fill="#7D97F4"/>
<path d="M80.7393 251.089V257.586H149.137V251.089H80.7393Z" fill="#7D97F4"/>
<path d="M66.2822 250.569V257.066H76.1255V250.569H66.2822Z" fill="#7D97F4"/>
<path d="M80.4883 261.931V268.428H148.886V261.931H80.4883Z" fill="#7D97F4"/>
<path d="M65.6963 261.41V267.907H75.5396V261.41H65.6963Z" fill="#7D97F4"/>
<path d="M54.5107 317.688V324.185H149.367V317.688H54.5107Z" fill="#7D97F4"/>
<path d="M80.8077 285.381V291.879H149.205V285.381H80.8077Z" fill="#7D97F4"/>
<path d="M66.3301 284.859V291.356H76.1734V284.859H66.3301Z" fill="#7D97F4"/>
<path d="M80.7373 296.242V302.739H149.135V296.242H80.7373Z" fill="#7D97F4"/>
<path d="M66.2812 295.72V302.217H76.1246V295.72H66.2812Z" fill="#7D97F4"/>
<path d="M80.4863 307.084V313.581H148.884V307.084H80.4863Z" fill="#7D97F4"/>
<path d="M65.6963 306.562V313.059H75.5396V306.562H65.6963Z" fill="#7D97F4"/>
<path d="M81.2568 329.465V335.962H149.654V329.465H81.2568Z" fill="#7D97F4"/>
<path d="M66.7813 328.945V335.443H76.6246V328.945H66.7813Z" fill="#7D97F4"/>
<path d="M80.7148 340.325V346.822H149.112V340.325H80.7148Z" fill="#7D97F4"/>
<path d="M66.2587 339.806V346.303H76.1021V339.806H66.2587Z" fill="#7D97F4"/>
<path d="M221.891 308.194V314.779H290.167V308.194H221.891Z" fill="#7D97F4"/>
<path d="M194.116 297.188V303.773H304.892V297.188H194.116Z" fill="#7D97F4"/>
<path d="M229.542 286.196V292.781H318.339V286.196H229.542Z" fill="#7D97F4"/>
<path d="M229.544 275.193V281.78H280.179V275.193H229.544Z" fill="#7D97F4"/>
<path d="M230.719 264.179V270.764H319.406V264.179H230.719Z" fill="#7D97F4"/>
<path d="M222.784 253.188V259.774H297.727V253.188H222.784Z" fill="#7D97F4"/>
<path d="M194.119 242.165V248.75H274.134V242.165H194.119Z" fill="#7D97F4"/>
<path d="M229.835 231.167V237.754H321.125V231.167H229.835Z" fill="#7D97F4"/>
<path d="M229.836 220.165V226.75H322.258V220.165H229.836Z" fill="#7D97F4"/>
<path d="M230.719 209.161V215.746H321.767V209.161H230.719Z" fill="#7D97F4"/>
<path d="M214.238 198.157V204.742H288.826V198.157H214.238Z" fill="#7D97F4"/>
<path d="M167.443 230.891V237.476H186.784V230.891H167.443Z" fill="#7D97F4"/>
<path d="M167.443 242.21V248.795H186.784V242.21H167.443Z" fill="#7D97F4"/>
<path d="M167.443 253.065V259.65H186.784V253.065H167.443Z" fill="#7D97F4"/>
<path d="M167.441 264.109V270.694H186.782V264.109H167.441Z" fill="#7D97F4"/>
<path d="M167.443 275.426V282.011H186.784V275.426H167.443Z" fill="#7D97F4"/>
<path d="M167.441 286.283V292.868H186.782V286.283H167.441Z" fill="#7D97F4"/>
<path d="M168.424 297.103V303.688H187.764V297.103H168.424Z" fill="#7D97F4"/>
<path d="M168.425 308.422V315.007H187.765V308.422H168.425Z" fill="#7D97F4"/>
<path d="M168.424 319.277V325.862H187.764V319.277H168.424Z" fill="#7D97F4"/>
<path d="M168.425 330.351V336.936H187.765V330.351H168.425Z" fill="#7D97F4"/>
<path d="M168.425 341.67V348.255H187.765V341.67H168.425Z" fill="#7D97F4"/>
<path d="M167.441 220.162V226.747H186.782V220.162H167.441Z" fill="#7D97F4"/>
<path d="M167.441 209.165V215.75H186.782V209.165H167.441Z" fill="#7D97F4"/>
<path d="M167.443 198.155V204.74H186.784V198.155H167.443Z" fill="#7D97F4"/>
<path d="M167.441 187.153V193.738H186.782V187.153H167.441Z" fill="#7D97F4"/>
<path d="M194.145 187.162V193.748H286.895C286.895 190.111 283.911 187.162 280.221 187.162H194.145Z" fill="#7D97F4"/>
<path d="M230.426 342.102V348.687H323.957V342.102H230.426Z" fill="#7D97F4"/>
<path d="M230.426 330.765V337.351H322.258V330.765H230.426Z" fill="#7D97F4"/>
<path d="M230.441 319.954V326.539H288.84C288.84 322.902 286.959 319.953 284.638 319.953L230.441 319.954Z" fill="#7D97F4"/>
<path d="M158.69 182.649H158.585C158.092 182.649 157.692 183.048 157.692 183.541V352.236C157.692 352.729 158.092 353.129 158.585 353.129H158.69C159.183 353.129 159.583 352.729 159.583 352.236V183.541C159.583 183.048 159.183 182.649 158.69 182.649Z" fill="#7D97F4"/>
<path d="M292.504 271.438L408.686 395.413C409.839 396.642 410.725 398.097 411.288 399.685C411.852 401.274 412.081 402.962 411.961 404.643C411.841 406.324 411.375 407.963 410.592 409.455C409.808 410.947 408.724 412.261 407.409 413.315L406.496 414.047C405.325 414.984 403.981 415.679 402.541 416.094C401.101 416.509 399.593 416.635 398.104 416.465C396.615 416.295 395.174 415.832 393.865 415.103C392.556 414.374 391.403 413.393 390.474 412.217L284.571 278.206L292.504 271.438Z" fill="url(#paint17_linear_0_841)"/>
<path opacity="0.5" d="M313.144 242.732C332.455 204.601 316.631 157.748 277.8 138.082C238.969 118.416 191.836 133.385 172.525 171.515C153.213 209.645 169.037 256.499 207.868 276.164C246.699 295.83 293.832 280.862 313.144 242.732Z" fill="white"/>
<path d="M164.589 167.491C143.106 209.921 160.71 262.055 203.923 283.934C247.137 305.814 299.579 289.156 321.063 246.727C342.548 204.299 324.942 152.162 281.729 130.283C238.515 108.403 186.073 125.061 164.589 167.491ZM176.076 173.31C194.405 137.112 239.148 122.899 276.01 141.566C312.873 160.232 327.896 204.709 309.567 240.906C291.238 277.103 246.495 291.315 209.633 272.648C172.77 253.982 157.752 209.508 176.081 173.311L176.076 173.31Z" fill="url(#paint18_linear_0_841)"/>
<path d="M310.438 252.892C310.388 252.858 310.354 252.807 310.343 252.748C310.331 252.69 310.343 252.629 310.377 252.58C311.518 250.896 312.614 249.149 313.62 247.372C313.633 247.344 313.652 247.32 313.676 247.3C313.699 247.28 313.726 247.264 313.756 247.255C313.785 247.246 313.816 247.243 313.847 247.247C313.877 247.25 313.907 247.26 313.934 247.275C313.96 247.29 313.984 247.311 314.002 247.335C314.021 247.36 314.034 247.388 314.041 247.418C314.048 247.448 314.049 247.479 314.044 247.509C314.039 247.539 314.028 247.568 314.011 247.594C312.995 249.377 311.897 251.139 310.749 252.832C310.726 252.866 310.694 252.894 310.656 252.911C310.618 252.928 310.576 252.934 310.535 252.929C310.5 252.925 310.466 252.912 310.438 252.892ZM320.84 231.167C320.784 231.15 320.736 231.11 320.708 231.058C320.68 231.005 320.674 230.944 320.691 230.887C322.292 225.541 323.318 220.04 323.753 214.476C324.979 198.74 321.507 183.035 313.714 169.061C305.732 154.752 293.714 143.24 278.953 135.765C265.169 128.757 249.689 125.773 234.287 127.157C234.23 127.158 234.175 127.138 234.132 127.1C234.09 127.062 234.064 127.009 234.059 126.952C234.053 126.896 234.07 126.839 234.105 126.794C234.14 126.749 234.19 126.719 234.247 126.71C249.731 125.317 265.294 128.316 279.152 135.363C293.99 142.876 306.074 154.458 314.099 168.838C321.936 182.89 325.426 198.676 324.194 214.509C323.757 220.105 322.724 225.638 321.113 231.015C321.098 231.066 321.066 231.11 321.021 231.139C320.976 231.168 320.923 231.18 320.87 231.173L320.84 231.167Z" fill="#BDD0FB"/>
<path d="M396.79 412.429C401.791 413.075 405.256 411.749 407.084 408.486C408.95 405.163 408.41 400.928 405.741 397.946L392.016 382.617C391.975 382.578 391.921 382.555 391.864 382.554C391.808 382.553 391.753 382.573 391.71 382.611C391.668 382.649 391.641 382.701 391.636 382.757C391.63 382.814 391.646 382.87 391.68 382.915L405.405 398.243C407.942 401.077 408.467 405.105 406.693 408.264C404.94 411.385 401.591 412.633 396.687 411.96C396.658 411.957 396.628 411.958 396.599 411.966C396.57 411.974 396.544 411.987 396.52 412.005C396.496 412.023 396.477 412.045 396.462 412.071C396.447 412.097 396.437 412.125 396.433 412.154C396.429 412.184 396.431 412.214 396.439 412.242C396.447 412.271 396.46 412.298 396.478 412.321C396.496 412.345 396.518 412.365 396.544 412.38C396.57 412.394 396.598 412.404 396.627 412.408L396.79 412.429Z" fill="#BDD0FB"/>
<path d="M387.594 378.265C387.626 378.27 387.659 378.267 387.689 378.257C387.72 378.248 387.748 378.232 387.772 378.21C387.816 378.17 387.843 378.114 387.847 378.055C387.85 377.995 387.829 377.937 387.79 377.892L386.012 375.906C385.993 375.882 385.969 375.861 385.942 375.846C385.915 375.83 385.885 375.821 385.854 375.818C385.823 375.815 385.792 375.818 385.762 375.828C385.733 375.838 385.705 375.853 385.682 375.874C385.659 375.894 385.64 375.92 385.627 375.948C385.614 375.976 385.607 376.007 385.606 376.038C385.606 376.069 385.612 376.1 385.624 376.129C385.636 376.157 385.653 376.183 385.676 376.205L387.456 378.19C387.491 378.232 387.54 378.258 387.594 378.265Z" fill="#BDD0FB"/>
<path d="M149.101 86.5157C148.805 86.5073 148.525 86.385 148.318 86.1746C148.111 85.9641 147.993 85.6817 147.989 85.3864C147.876 79.0609 145.927 47.6556 118.608 41.0929C88.1951 33.7828 74.276 65.1 74.276 65.1C74.276 65.1 36.6452 50.4931 29.429 89.6293C5.83367 95.3625 -0.296396 126.56 15.0504 141.804C17.4754 144.221 20.7498 145.593 24.1732 145.626L171.941 146.969C174.063 146.981 176.131 146.3 177.831 145.028C179.53 143.757 180.767 141.965 181.355 139.926C185.971 124.157 192.021 87.5332 149.101 86.5157Z" fill="#91B3FA"/>
<path d="M145.724 87.1932C145.429 87.1844 145.149 87.0622 144.942 86.8521C144.736 86.642 144.618 86.3601 144.614 86.0654C144.493 79.9994 142.562 50.8782 116.834 44.7735C88.075 37.9512 74.9122 67.1933 74.9122 67.1933C74.9122 67.1933 39.3297 53.5472 32.506 90.0994C10.4084 95.4015 4.51109 124.03 18.4973 138.409C19.7054 139.653 21.1482 140.646 22.7422 141.33C24.3362 142.014 26.0498 142.375 27.7842 142.392L166.889 143.645C169.016 143.656 171.088 142.971 172.789 141.694C174.49 140.418 175.726 138.619 176.31 136.574C180.648 121.591 185.791 88.1585 145.724 87.1932Z" fill="#BDD0FB"/>
<path d="M7.40082 352.827C6.1387 354.695 1.12305 396.986 0.338333 412.597C0.325563 412.848 0.363947 413.098 0.451142 413.333C0.538338 413.568 0.672516 413.783 0.845488 413.964C1.01846 414.146 1.2266 414.29 1.4572 414.389C1.68781 414.487 1.93604 414.537 2.18675 414.537C2.62812 414.537 3.05496 414.379 3.39032 414.092C3.72568 413.805 3.94749 413.408 4.01578 412.972L13.1907 354.176L7.40082 352.827Z" fill="#7D97F4"/>
<path d="M47.7313 352.827C48.9935 354.695 54.0091 396.986 54.7953 412.597C54.8079 412.848 54.7693 413.098 54.6819 413.333C54.5946 413.568 54.4603 413.783 54.2872 413.965C54.1141 414.146 53.9058 414.29 53.6752 414.389C53.4445 414.487 53.1962 414.537 52.9454 414.537C52.504 414.537 52.0772 414.379 51.7418 414.092C51.4065 413.805 51.1847 413.408 51.1164 412.972L41.9414 354.176L47.7313 352.827Z" fill="#7D97F4"/>
<path d="M-0.187268 349.527V349.988C-0.217106 353.306 2.63981 356.027 6.2188 356.087L48.6281 356.809C52.1548 356.869 55.0953 354.321 55.2654 351.055L55.2877 350.633C55.4668 347.227 52.574 344.356 48.8966 344.291L6.46794 343.53C2.83376 343.466 -0.155939 346.162 -0.187268 349.527Z" fill="#7D97F4"/>
<path d="M82.3153 411.062C74.7769 411.062 71.4411 410.415 69.9492 409.825C70.0949 410.455 70.4498 411.017 70.9559 411.42C71.462 411.822 72.0895 412.041 72.736 412.041H99.4106C99.6102 412.041 99.807 411.994 99.9859 411.906C100.165 411.817 100.321 411.688 100.442 411.53C100.563 411.371 100.646 411.186 100.684 410.99C100.722 410.794 100.715 410.592 100.662 410.4C97.6203 410.647 91.1591 411.062 82.3153 411.062Z" fill="url(#paint19_linear_0_841)"/>
<path d="M100.657 410.403C100.615 410.241 100.54 410.088 100.438 409.955C98.4057 407.361 94.321 403.288 88.7742 403.366C80.6421 403.481 77.806 404.362 71.4865 403.415L69.9946 408.358C69.8508 408.836 69.8353 409.345 69.9499 409.832C71.4417 410.421 74.7775 411.068 82.3159 411.068C91.1597 411.062 97.621 410.648 100.657 410.403Z" fill="url(#paint20_linear_0_841)"/>
<path d="M73.3153 398.084L71.4863 404.308C71.4863 404.308 75.5412 406.154 79.1067 404.672L79.8064 399.279L73.3153 398.084Z" fill="url(#paint21_linear_0_841)"/>
<path d="M128.593 407.142C122.715 411.863 119.712 413.452 118.182 413.928C118.69 414.325 119.318 414.539 119.963 414.534C120.608 414.529 121.233 414.306 121.735 413.901L142.526 397.203C142.681 397.078 142.805 396.92 142.889 396.74C142.973 396.56 143.015 396.363 143.01 396.164C143.006 395.965 142.956 395.77 142.864 395.594C142.772 395.418 142.64 395.266 142.48 395.148C140.261 397.237 135.486 401.602 128.593 407.142Z" fill="url(#paint22_linear_0_841)"/>
<path d="M142.479 395.143C142.346 395.042 142.194 394.969 142.032 394.928C138.83 394.182 133.111 393.585 128.832 397.121C122.566 402.304 120.903 404.765 115.386 407.988L117.304 412.761C117.49 413.224 117.794 413.628 118.187 413.934C119.718 413.458 122.721 411.869 128.599 407.148C135.486 401.602 140.261 397.237 142.479 395.143Z" fill="url(#paint23_linear_0_841)"/>
<path d="M34.1677 327.17C34.1677 327.17 79.3026 330.855 88.5611 335.214C97.8196 339.573 81.0063 400.662 81.0063 400.662C81.0063 400.662 78.485 401.875 72.8756 400.131C72.8756 400.131 78.6282 355.05 74.3481 345.274L25.4775 337.28L34.1677 327.17Z" fill="url(#paint24_linear_0_841)"/>
<path d="M110.898 399.406C111.318 399.788 115.383 407.987 115.383 407.987C115.383 407.987 119.909 407.009 120.833 404.144L116.76 396.745L110.898 399.406Z" fill="url(#paint25_linear_0_841)"/>
<path d="M6.98241 326.787C6.98241 326.787 5.51143 330.325 5.5711 335.029C5.65465 341.534 10.8836 346.815 17.3807 347.136L70.7373 349.569C71.2853 349.594 71.8108 349.794 72.2363 350.14C72.6618 350.487 72.9647 350.96 73.1004 351.492C74.3536 356.342 80.4822 371.235 110.44 400.953C110.828 401.336 111.334 401.576 111.876 401.636C112.417 401.695 112.963 401.569 113.424 401.278L117.689 398.584C117.905 398.448 118.059 398.234 118.119 397.986C118.179 397.739 118.14 397.478 118.012 397.258L86.9494 344.212C85.3163 341.518 82.6914 339.573 79.6393 338.795L34.1627 327.17L6.98241 326.787Z" fill="url(#paint26_linear_0_841)"/>
<path d="M59.5651 243.921C59.5651 243.921 53.8497 254.027 48.0225 258.923L60.0679 265.637C60.0679 265.637 62.7815 254.937 68.9832 251.804L59.5651 243.921Z" fill="url(#paint27_linear_0_841)"/>
<path d="M6.02057 327.17C6.02057 327.17 20.426 330.681 34.1751 327.17C34.1751 327.17 53.4201 301.307 60.8571 294.269C60.8571 294.269 72.7294 313.003 99.1548 315.657L100.629 312.365C100.629 312.365 79.5934 302.668 73.1143 287.766C66.6351 272.863 64.0288 266.515 58.1374 262.622C54.4674 260.2 52.2699 258.546 51.1346 257.642C50.8326 257.4 50.4634 257.258 50.0774 257.233C49.6914 257.209 49.3073 257.304 48.9774 257.506C42.7205 261.316 13.3009 281.467 6.02057 327.17Z" fill="url(#paint28_linear_0_841)"/>
<path d="M52.9482 280.36C52.9482 280.36 55.5098 287.036 60.0674 292.98L52.9482 280.36Z" fill="url(#paint29_linear_0_841)"/>
<path d="M97.5576 310.645L100.532 309.851L109.564 307.763C110.102 307.638 110.66 307.622 111.204 307.714C111.749 307.806 112.27 308.004 112.737 308.298L120.503 313.184L99.0584 313.148L97.5576 310.645Z" fill="url(#paint30_linear_0_841)"/>
<path d="M68.6418 228.771C68.6418 228.771 74.1961 238.006 75.1598 243.11C76.1236 248.213 77.6706 251.403 71.8628 253.221C66.0549 255.04 60.6559 252.738 57.2679 247.975C57.2679 247.975 51.9777 240.643 52.5058 237.285C53.0339 233.927 68.6418 228.771 68.6418 228.771Z" fill="url(#paint31_linear_0_841)"/>
<path d="M58.8147 244.019L59.5606 243.921C59.5606 243.921 55.6281 237.977 58.2016 236.503C60.775 235.029 71.2643 231.41 73.0859 227.281C74.8418 223.299 72.2146 218.799 69.0474 217.861C68.9493 217.835 68.8449 217.846 68.7549 217.894C68.665 217.941 68.5963 218.02 68.5626 218.116L68.3776 218.617C68.3492 218.693 68.2989 218.759 68.2329 218.807C68.1669 218.854 68.0883 218.88 68.0072 218.882C67.9261 218.885 67.8461 218.863 67.7776 218.819C67.7091 218.776 67.6552 218.713 67.6227 218.638C67.5929 218.565 67.5421 218.501 67.4767 218.456C67.4113 218.411 67.3341 218.386 67.2546 218.385C67.1752 218.383 67.0971 218.405 67.0299 218.447C66.9627 218.49 66.9095 218.551 66.8768 218.623C66.3158 219.862 64.639 221.974 59.589 223.609C52.428 225.931 47.9748 229.538 48.5223 234.622C48.5305 234.694 48.5192 234.767 48.4896 234.834C48.4599 234.9 48.4131 234.958 48.3539 235C48.2947 235.042 48.2252 235.067 48.1528 235.074C48.0804 235.08 48.0076 235.067 47.942 235.035C47.3557 234.777 46.4695 234.737 45.4401 235.863C43.6499 237.822 45.0507 242.107 49.9426 245.138C49.9976 245.17 50.0443 245.215 50.0788 245.269C50.1132 245.322 50.1345 245.383 50.1409 245.447C50.1473 245.51 50.1386 245.574 50.1156 245.634C50.0925 245.693 50.0557 245.746 50.0082 245.789C49.2772 246.415 48.2478 247.812 51.5568 249.057C54.9433 250.331 56.7902 249.9 57.472 249.627C57.5608 249.592 57.6346 249.527 57.6804 249.444C57.7262 249.36 57.7412 249.263 57.7227 249.169L56.8544 244.713C56.8435 244.659 56.844 244.602 56.8557 244.548C56.8675 244.494 56.8903 244.442 56.9228 244.397C56.9552 244.352 56.9966 244.314 57.0444 244.285C57.0922 244.257 57.1453 244.238 57.2005 244.231L58.8147 244.019Z" fill="url(#paint32_linear_0_841)"/>
<path d="M59.1225 244.935C59.1225 244.935 56.6713 238.892 54.0979 241.016C51.5244 243.141 56.4848 247.836 58.7629 247.773L59.1225 244.935Z" fill="url(#paint33_linear_0_841)"/>
<path d="M89.2741 317.388C89.3085 317.388 89.3443 317.388 89.3786 317.388L135.191 317.343C135.734 317.343 136.254 317.128 136.638 316.744C137.022 316.36 137.238 315.839 137.238 315.296C137.238 314.754 137.022 314.233 136.638 313.849C136.254 313.465 135.734 313.25 135.191 313.25L89.3786 313.296C88.8461 313.298 88.3356 313.508 87.9555 313.881C87.5753 314.254 87.3554 314.76 87.3424 315.293C87.3294 315.825 87.5243 316.341 87.8858 316.732C88.2473 317.123 88.7469 317.358 89.2786 317.386L89.2741 317.388Z" fill="url(#paint34_linear_0_841)"/>
<path d="M152.932 272.523L152.886 272.617L133.611 314.177C133.492 314.422 133.423 314.688 133.407 314.96C133.392 315.231 133.432 315.503 133.523 315.759C133.614 316.016 133.755 316.251 133.939 316.452C134.122 316.653 134.343 316.816 134.59 316.93C134.837 317.045 135.104 317.109 135.376 317.119C135.648 317.129 135.919 317.085 136.174 316.989C136.428 316.893 136.661 316.747 136.859 316.56C137.056 316.373 137.214 316.148 137.324 315.899L156.6 274.339C156.831 273.853 156.862 273.297 156.686 272.789C156.51 272.281 156.142 271.863 155.66 271.624C155.179 271.386 154.622 271.347 154.112 271.515C153.602 271.683 153.178 272.045 152.932 272.523Z" fill="url(#paint35_linear_0_841)"/>
<path d="M109.672 320.831C109.472 321.659 90.3571 393.352 85.5041 411.526C85.3706 412.012 85.3507 412.522 85.4458 413.016C85.5409 413.511 85.7485 413.977 86.0525 414.378C86.3566 414.779 86.7489 415.105 87.1991 415.331C87.6493 415.556 88.1454 415.675 88.6489 415.678C89.3791 415.676 90.0873 415.428 90.6601 414.975C91.233 414.522 91.6374 413.891 91.8087 413.181L113.029 327.148L109.672 320.831Z" fill="#BDD0FB"/>
<path d="M120.139 320.831C120.341 321.659 139.456 393.352 144.308 411.526C144.441 412.012 144.461 412.522 144.366 413.016C144.271 413.511 144.063 413.977 143.759 414.378C143.455 414.779 143.063 415.105 142.613 415.331C142.162 415.556 141.666 415.675 141.163 415.678C140.433 415.675 139.725 415.428 139.152 414.975C138.579 414.522 138.175 413.891 138.003 413.181L116.784 327.148L120.139 320.831Z" fill="#BDD0FB"/>
<path d="M120.936 318.486H109.031V328.047C109.029 328.372 109.091 328.694 109.214 328.995C109.336 329.296 109.517 329.57 109.745 329.801C109.974 330.032 110.245 330.216 110.544 330.342C110.844 330.468 111.165 330.534 111.49 330.536H113.131V352.01C113.129 352.255 113.176 352.499 113.269 352.727C113.362 352.955 113.498 353.162 113.671 353.337C113.844 353.512 114.049 353.651 114.276 353.747C114.502 353.842 114.745 353.892 114.991 353.894C115.237 353.892 115.481 353.843 115.707 353.747C115.934 353.652 116.14 353.512 116.313 353.337C116.486 353.162 116.622 352.955 116.715 352.727C116.808 352.499 116.855 352.256 116.853 352.01V330.536H117.681C118.112 330.533 118.539 330.446 118.936 330.278C119.333 330.111 119.694 329.867 119.997 329.56C120.3 329.253 120.539 328.89 120.702 328.491C120.864 328.091 120.947 327.664 120.944 327.233L120.936 318.486Z" fill="#BDD0FB"/>
<path d="M79.7589 316.195H146.233C146.687 316.196 147.128 316.349 147.485 316.629C147.843 316.91 148.096 317.301 148.206 317.742L149.135 321.38C149.213 321.684 149.221 322.001 149.158 322.308C149.095 322.615 148.963 322.903 148.771 323.151C148.58 323.399 148.335 323.6 148.054 323.739C147.773 323.878 147.464 323.951 147.151 323.952L78.9413 323.555C78.6304 323.551 78.3245 323.476 78.0467 323.336C77.7689 323.196 77.5264 322.995 77.3374 322.749C77.1485 322.502 77.018 322.215 76.9557 321.91C76.8935 321.606 76.9011 321.291 76.978 320.989L77.7851 317.746C77.8942 317.305 78.1476 316.912 78.5052 316.631C78.8628 316.35 79.304 316.196 79.7589 316.195Z" fill="#BDD0FB"/>
</g>
<defs>
<linearGradient id="paint0_linear_0_841" x1="441.724" y1="469.798" x2="136.275" y2="140.108" gradientUnits="userSpaceOnUse">
<stop stop-color="#DAE3FE"/>
<stop offset="1" stop-color="#E9EFFD"/>
</linearGradient>
<linearGradient id="paint1_linear_0_841" x1="281.47" y1="30.9708" x2="280.466" y2="-134.872" gradientUnits="userSpaceOnUse">
<stop stop-color="#E1473D"/>
<stop offset="1" stop-color="#E9605A"/>
</linearGradient>
<linearGradient id="paint2_linear_0_841" x1="236.65" y1="-300.469" x2="265.798" y2="-48.1861" gradientUnits="userSpaceOnUse">
<stop stop-color="#FF928E"/>
<stop offset="1" stop-color="#FE7062"/>
</linearGradient>
<linearGradient id="paint3_linear_0_841" x1="367.674" y1="-125.591" x2="304.355" y2="26.6759" gradientUnits="userSpaceOnUse">
<stop stop-color="#FEBBBA"/>
<stop offset="1" stop-color="#FF928E"/>
</linearGradient>
<linearGradient id="paint4_linear_0_841" x1="755577" y1="-400.571" x2="755501" y2="7341.68" gradientUnits="userSpaceOnUse">
<stop stop-color="#FEBBBA"/>
<stop offset="1" stop-color="#FF928E"/>
</linearGradient>
<linearGradient id="paint5_linear_0_841" x1="531186" y1="-81142.3" x2="533224" y2="8512.11" gradientUnits="userSpaceOnUse">
<stop stop-color="#FF928E"/>
<stop offset="1" stop-color="#FE7062"/>
</linearGradient>
<linearGradient id="paint6_linear_0_841" x1="673383" y1="6500.67" x2="673337" y2="10513.2" gradientUnits="userSpaceOnUse">
<stop stop-color="#FEBBBA"/>
<stop offset="1" stop-color="#FF928E"/>
</linearGradient>
<linearGradient id="paint7_linear_0_841" x1="778505" y1="2756.91" x2="778330" y2="16662.9" gradientUnits="userSpaceOnUse">
<stop stop-color="#FEBBBA"/>
<stop offset="1" stop-color="#FF928E"/>
</linearGradient>
<linearGradient id="paint8_linear_0_841" x1="517406" y1="-79897.1" x2="519404" y2="8761.1" gradientUnits="userSpaceOnUse">
<stop stop-color="#FF928E"/>
<stop offset="1" stop-color="#FE7062"/>
</linearGradient>
<linearGradient id="paint9_linear_0_841" x1="773958" y1="2927.16" x2="773861" y2="13943.5" gradientUnits="userSpaceOnUse">
<stop stop-color="#FEBBBA"/>
<stop offset="1" stop-color="#FF928E"/>
</linearGradient>
<linearGradient id="paint10_linear_0_841" x1="763531" y1="6288.27" x2="763467" y2="12217.5" gradientUnits="userSpaceOnUse">
<stop stop-color="#FEBBBA"/>
<stop offset="1" stop-color="#FF928E"/>
</linearGradient>
<linearGradient id="paint11_linear_0_841" x1="504341" y1="-79812.4" x2="506354" y2="9144.45" gradientUnits="userSpaceOnUse">
<stop stop-color="#FF928E"/>
<stop offset="1" stop-color="#FE7062"/>
</linearGradient>
<linearGradient id="paint12_linear_0_841" x1="759232" y1="7150.33" x2="759145" y2="15499.1" gradientUnits="userSpaceOnUse">
<stop stop-color="#FEBBBA"/>
<stop offset="1" stop-color="#FF928E"/>
</linearGradient>
<linearGradient id="paint13_linear_0_841" x1="771788" y1="8568.87" x2="771703" y2="16229.2" gradientUnits="userSpaceOnUse">
<stop stop-color="#FEBBBA"/>
<stop offset="1" stop-color="#FF928E"/>
</linearGradient>
<linearGradient id="paint14_linear_0_841" x1="211.959" y1="350.163" x2="139.588" y2="133.052" gradientUnits="userSpaceOnUse">
<stop stop-color="#09005D"/>
<stop offset="1" stop-color="#1A0F91"/>
</linearGradient>
<linearGradient id="paint15_linear_0_841" x1="26.4139" y1="265.071" x2="337.559" y2="265.071" gradientUnits="userSpaceOnUse">
<stop stop-color="#4F52FF"/>
<stop offset="1" stop-color="#4042E2"/>
</linearGradient>
<linearGradient id="paint16_linear_0_841" x1="-146048" y1="42379.8" x2="-121188" y2="183575" gradientUnits="userSpaceOnUse">
<stop stop-color="#09005D"/>
<stop offset="1" stop-color="#1A0F91"/>
</linearGradient>
<linearGradient id="paint17_linear_0_841" x1="-163067" y1="207299" x2="-293606" y2="141296" gradientUnits="userSpaceOnUse">
<stop stop-color="#09005D"/>
<stop offset="1" stop-color="#1A0F91"/>
</linearGradient>
<linearGradient id="paint18_linear_0_841" x1="55293.9" y1="291637" x2="-131702" y2="207386" gradientUnits="userSpaceOnUse">
<stop stop-color="#09005D"/>
<stop offset="1" stop-color="#1A0F91"/>
</linearGradient>
<linearGradient id="paint19_linear_0_841" x1="28630" y1="7521.5" x2="34970.3" y2="7521.5" gradientUnits="userSpaceOnUse">
<stop stop-color="#4F52FF"/>
<stop offset="1" stop-color="#4042E2"/>
</linearGradient>
<linearGradient id="paint20_linear_0_841" x1="33541.4" y1="22078.5" x2="33430.7" y2="25134.9" gradientUnits="userSpaceOnUse">
<stop stop-color="#09005D"/>
<stop offset="1" stop-color="#1A0F91"/>
</linearGradient>
<linearGradient id="paint21_linear_0_841" x1="7882.6" y1="22949" x2="8346.62" y2="22949" gradientUnits="userSpaceOnUse">
<stop stop-color="#FEBBBA"/>
<stop offset="1" stop-color="#FF928E"/>
</linearGradient>
<linearGradient id="paint22_linear_0_841" x1="31199.6" y1="61831.9" x2="35331.9" y2="61831.9" gradientUnits="userSpaceOnUse">
<stop stop-color="#4F52FF"/>
<stop offset="1" stop-color="#4042E2"/>
</linearGradient>
<linearGradient id="paint23_linear_0_841" x1="37133.6" y1="56262.2" x2="36329.2" y2="63954.6" gradientUnits="userSpaceOnUse">
<stop stop-color="#09005D"/>
<stop offset="1" stop-color="#1A0F91"/>
</linearGradient>
<linearGradient id="paint24_linear_0_841" x1="71909" y1="198060" x2="37078" y2="225767" gradientUnits="userSpaceOnUse">
<stop stop-color="#09005D"/>
<stop offset="1" stop-color="#1A0F91"/>
</linearGradient>
<linearGradient id="paint25_linear_0_841" x1="12061.7" y1="35840.4" x2="12723.2" y2="35840.4" gradientUnits="userSpaceOnUse">
<stop stop-color="#FEBBBA"/>
<stop offset="1" stop-color="#FF928E"/>
</linearGradient>
<linearGradient id="paint26_linear_0_841" x1="137597" y1="178890" x2="129838" y2="195882" gradientUnits="userSpaceOnUse">
<stop stop-color="#09005D"/>
<stop offset="1" stop-color="#1A0F91"/>
</linearGradient>
<linearGradient id="paint27_linear_0_841" x1="17511" y1="48329.4" x2="18242.3" y2="46549.6" gradientUnits="userSpaceOnUse">
<stop stop-color="#FEBBBA"/>
<stop offset="1" stop-color="#FF928E"/>
</linearGradient>
<linearGradient id="paint28_linear_0_841" x1="88546" y1="69969.2" x2="85261.7" y2="129357" gradientUnits="userSpaceOnUse">
<stop stop-color="#FF928E"/>
<stop offset="1" stop-color="#FE7062"/>
</linearGradient>
<linearGradient id="paint29_linear_0_841" x1="5851.95" y1="30278.8" x2="6191.68" y2="30278.8" gradientUnits="userSpaceOnUse">
<stop stop-color="#E1473D"/>
<stop offset="1" stop-color="#E9605A"/>
</linearGradient>
<linearGradient id="paint30_linear_0_841" x1="25648.5" y1="14329.7" x2="29177.5" y2="14329.7" gradientUnits="userSpaceOnUse">
<stop stop-color="#FEBBBA"/>
<stop offset="1" stop-color="#FF928E"/>
</linearGradient>
<linearGradient id="paint31_linear_0_841" x1="74239.1" y1="53577.2" x2="70594.1" y2="57011.3" gradientUnits="userSpaceOnUse">
<stop stop-color="#FEBBBA"/>
<stop offset="1" stop-color="#FF928E"/>
</linearGradient>
<linearGradient id="paint32_linear_0_841" x1="87728.4" y1="66222.9" x2="93313.5" y2="71215.1" gradientUnits="userSpaceOnUse">
<stop stop-color="#09005D"/>
<stop offset="1" stop-color="#1A0F91"/>
</linearGradient>
<linearGradient id="paint33_linear_0_841" x1="18099.9" y1="15773.9" x2="17101.8" y2="16578.5" gradientUnits="userSpaceOnUse">
<stop stop-color="#FEBBBA"/>
<stop offset="1" stop-color="#FF928E"/>
</linearGradient>
<linearGradient id="paint34_linear_0_841" x1="-1.42724e+06" y1="-199080" x2="-1.42707e+06" y2="-194360" gradientUnits="userSpaceOnUse">
<stop stop-color="#09005D"/>
<stop offset="1" stop-color="#1A0F91"/>
</linearGradient>
<linearGradient id="paint35_linear_0_841" x1="1.51211e+06" y1="152602" x2="1.49329e+06" y2="166186" gradientUnits="userSpaceOnUse">
<stop stop-color="#09005D"/>
<stop offset="1" stop-color="#1A0F91"/>
</linearGradient>
<clipPath id="clip0_0_841">
<rect width="416.336" height="416.336" fill="white"/>
</clipPath>
</defs>
</svg>
