<svg width="489" height="319" viewBox="0 0 489 319" fill="none" xmlns="http://www.w3.org/2000/svg">
<g clip-path="url(#clip0_0_39)">
<path d="M421.953 304.631C421.953 304.631 457.069 312.941 474.356 275.278C496.782 226.417 465.306 179.999 411.005 176.655C332.692 171.835 376.094 47.0197 252.516 80.8855C217.766 90.4078 142.187 41.25 97.6947 124.542C90.1293 138.705 67.5134 138.01 37.3823 162.172C-15.77 204.794 3.36433 305.083 48.1488 305.539C92.9329 305.993 421.953 304.631 421.953 304.631" fill="#DCD6FC"/>
<path d="M141.601 50.9228C141.601 50.9228 118.091 49.7766 130.563 121.299C130.563 121.299 138.953 145.579 128.361 161.227H284.27V50.9228H141.601Z" fill="#AFCDFB"/>
<path d="M157.614 236.879C157.614 236.879 146.722 224.195 156.942 216.136C156.942 216.136 164.408 211.624 170.494 211.991C170.494 211.991 161.869 226.429 164.66 227.867C167.451 229.302 173.109 211.085 173.109 211.085C173.109 211.085 190.097 209.441 195.563 212.064C195.563 212.064 181.039 223.928 184.099 224.634C187.157 225.341 202.845 213.695 202.845 213.695C202.845 213.695 218.655 216.382 217.813 226.01C216.969 235.638 211.522 238.612 209.126 238.356C206.732 238.1 192.724 232.763 192.42 234.721C192.114 236.679 200.546 243.081 206.451 243.38C206.451 243.38 195.304 255.652 187.893 252.11C180.485 248.568 179.854 242.955 175.234 240.848C170.616 238.742 166.673 238.748 168.581 240.896C170.488 243.044 178.846 245.13 181.486 249.793C184.128 254.458 186.497 257.601 178.832 256.451C171.167 255.301 158.708 249.7 158.161 243.29C157.614 236.879 157.614 236.879 157.614 236.879Z" fill="#599DAD"/>
<path d="M210.044 226.27C210.044 226.27 167.097 224.618 157.614 236.879C157.614 236.879 155.516 243.149 149.062 248.86L148.056 251.596C148.056 251.596 155.498 243.763 158.161 243.29C158.161 243.29 153.996 228.1 210.044 226.27" fill="#599DAD"/>
<path d="M149.062 248.859C149.062 248.859 139.844 255.664 139.204 267.824L140.877 267.973C140.877 267.973 143.821 255.4 149.142 250.485C154.463 245.567 149.062 248.859 149.062 248.859" fill="#599DAD"/>
<path d="M119.531 220.925C119.531 220.925 136.858 211.239 128.772 198.094C128.772 198.094 122.304 190.023 115.373 187.948C115.373 187.948 119.069 207.551 115.373 208.012C111.677 208.472 112.832 185.872 112.832 185.872C112.832 185.872 94.5813 177.11 87.4196 177.802C87.4196 177.802 98.7395 196.942 95.0433 196.481C91.3471 196.019 78.6409 176.647 78.6409 176.647C78.6409 176.647 59.9284 173.188 56.9251 184.257C53.9217 195.327 58.7734 200.862 61.5454 201.554C64.3175 202.245 82.1062 202.016 81.644 204.321C81.1822 206.628 69.1691 210.316 62.4696 208.243C62.4696 208.243 69.8622 226.46 79.565 225.537C89.2677 224.616 92.271 218.621 98.2777 218.158C104.284 217.697 108.673 219.312 105.67 220.925C102.667 222.54 92.5021 221.454 87.6507 225.572C82.7993 229.688 78.8718 232.226 87.8816 234.07C96.8914 235.915 113.063 234.762 116.297 227.844C119.531 220.925 119.531 220.925 119.531 220.925" fill="#58479F"/>
<path d="M65.4727 187.717C65.4727 187.717 113.987 203.4 119.531 220.925C119.531 220.925 119.3 228.767 124.152 237.761V241.22C124.152 241.22 119.069 229.459 116.297 227.844C116.297 227.844 127.155 212.623 65.4727 187.717Z" fill="#6BB7BF"/>
<path d="M124.152 237.761C124.152 237.761 131.634 249.101 127.368 262.907L125.443 262.391C125.443 262.391 127.312 247.184 123.398 239.537C119.483 231.889 124.152 237.761 124.152 237.761" fill="#6BB7BF"/>
<path d="M147.097 207.567C147.097 207.567 124.257 194.8 134.916 177.473C134.916 177.473 143.443 166.832 152.578 164.097C152.578 164.097 147.706 189.937 152.578 190.544C157.451 191.151 155.928 161.361 155.928 161.361C155.928 161.361 179.987 149.809 189.427 150.721C189.427 150.721 174.504 175.953 179.377 175.344C184.249 174.737 200.998 149.201 200.998 149.201C200.998 149.201 225.665 144.641 229.625 159.233C233.582 173.824 227.187 181.12 223.534 182.033C219.878 182.944 196.43 182.64 197.04 185.68C197.649 188.72 213.483 193.584 222.315 190.847C222.315 190.847 212.571 214.864 199.779 213.647C186.99 212.431 183.03 204.527 175.113 203.92C167.195 203.311 161.41 205.44 165.368 207.567C169.328 209.697 182.726 208.265 189.121 213.693C195.518 219.118 200.694 222.464 188.817 224.895C176.941 227.327 155.624 225.807 151.36 216.687C147.097 207.567 147.097 207.567 147.097 207.567" fill="#58479F"/>
<path d="M218.355 163.793C218.355 163.793 154.405 184.464 147.096 207.567C147.096 207.567 147.401 217.904 141.006 229.758V234.318C141.006 234.318 147.705 218.815 151.36 216.687C151.36 216.687 137.047 196.624 218.355 163.793" fill="#6BB7BF"/>
<path d="M141.007 229.758C141.007 229.758 131.144 244.708 136.767 262.907L139.304 262.228C139.304 262.228 136.841 242.183 142.001 232.102C147.161 222.02 141.007 229.758 141.007 229.758Z" fill="#6BB7BF"/>
<path d="M146.327 302.371C171.036 302.371 191.065 282.376 191.065 257.711H101.588C101.588 282.376 121.618 302.371 146.327 302.371" fill="#EFCBAB"/>
<path d="M157.336 302.031C155.517 302.258 153.661 302.371 151.778 302.371C127.07 302.371 107.041 282.376 107.041 257.711H118.156C118.156 280.499 135.25 299.298 157.336 302.031" fill="#FFEBDC"/>
<path d="M191.683 304.645H100.97C100.97 301.601 103.441 299.135 106.489 299.135H186.164C189.213 299.135 191.683 301.601 191.683 304.645Z" fill="#EFCBAB"/>
<path d="M192.083 259.08H100.117V257.711H192.083V259.08Z" fill="#EFCDAF"/>
<path d="M308.216 87.9018C308.216 87.9018 300.38 73.1397 312.123 67.5176C312.123 67.5176 320.397 64.7525 326.256 66.4443C326.256 66.4443 314.667 78.6391 317.074 80.6528C319.478 82.664 329.006 66.1325 329.006 66.1325C329.006 66.1325 345.94 68.251 350.697 72.0076C350.697 72.0076 333.918 80.3999 336.747 81.7594C339.579 83.1189 357.442 75.1943 357.442 75.1943C357.442 75.1943 372.277 81.2789 369.338 90.4887C366.397 99.6977 360.43 101.405 358.146 100.63C355.868 99.8559 343.375 91.5791 342.648 93.4232C341.918 95.2672 348.738 103.359 354.432 104.945C354.432 104.945 340.859 114.476 334.41 109.397C327.961 104.318 328.578 98.7021 324.534 95.636C320.491 92.5697 316.644 91.711 318.031 94.2241C319.421 96.7372 327.117 100.605 328.668 105.733C330.217 110.862 331.84 114.449 324.613 111.646C317.389 108.844 306.463 100.651 307.341 94.277C308.216 87.9018 308.216 87.9018 308.216 87.9018" fill="#58479F"/>
<path d="M361.702 89.0395C361.702 89.0395 320.169 78.0155 308.217 87.8988C308.217 87.8988 304.794 93.5585 297.241 97.715L295.659 100.165C295.659 100.165 304.642 94.1538 307.344 94.2751C307.344 94.2751 306.62 78.5435 361.702 89.0395" fill="#599DAD"/>
<path d="M297.242 97.7143C297.242 97.7143 286.753 102.334 283.454 114.057L285.054 114.569C285.054 114.569 290.69 102.948 296.963 99.318C303.235 95.6861 297.242 97.7143 297.242 97.7143" fill="#599DAD"/>
<path d="M256.613 61.2755C256.613 61.2755 233.404 49.1911 243.541 31.5552C243.541 31.5552 251.745 20.6655 260.797 17.6599C260.797 17.6599 256.696 43.6325 261.586 44.0947C266.475 44.5593 264.065 14.8248 264.065 14.8248C264.065 14.8248 287.768 2.56505 297.23 3.19558C297.23 3.19558 283.066 28.8601 287.917 28.1063C292.771 27.3549 308.752 1.33244 308.752 1.33244C308.752 1.33244 333.272 -3.95833 337.662 10.5083C342.055 24.9773 335.879 32.4583 332.255 33.48C328.629 34.4993 305.183 34.8928 305.881 37.9127C306.581 40.9326 322.555 45.325 331.298 42.3264C331.298 42.3264 322.275 66.6208 309.455 65.7864C296.634 64.952 292.443 57.1676 284.507 56.7954C276.576 56.4233 270.856 58.7226 274.878 60.7327C278.899 62.7404 292.248 60.9128 298.802 66.1467C305.356 71.3829 310.632 74.5712 298.833 77.354C287.034 80.1393 265.679 79.2527 261.146 70.2641C256.613 61.2755 256.613 61.2755 256.613 61.2755" fill="#58479F"/>
<path d="M326.536 15.4007C326.536 15.4007 263.229 37.9656 256.615 61.2745C256.615 61.2745 257.226 71.5979 251.188 83.6369L251.324 88.1945C251.324 88.1945 257.558 72.4989 261.146 70.2645C261.146 70.2645 246.244 50.6349 326.536 15.4007" fill="#6BB7BF"/>
<path d="M251.188 83.6379C251.188 83.6379 241.777 98.873 247.94 116.896L250.455 116.142C250.455 116.142 247.395 96.1799 252.251 85.9489C257.109 75.7198 251.188 83.6379 251.188 83.6379Z" fill="#6BB7BF"/>
<path d="M151.487 93.2572V305.165H314.261V93.2572H151.487Z" fill="#9ABCEF"/>
<path d="M156.809 93.2593V305.166H316.845V93.2593H156.809Z" fill="#E9F3FE"/>
<path d="M316.848 93.2549C316.846 93.2572 316.846 93.2572 316.846 93.2572H156.808C157.693 81.176 156.36 72.4048 154.222 66.0953C150.118 53.9646 143.045 50.9223 143.045 50.9223H293.975C306.856 50.9223 316.846 58.6697 319.564 68.953C319.666 69.34 319.76 69.7248 319.844 70.1096C322.423 81.8735 316.952 93.0412 316.848 93.2549Z" fill="#E9F3FE"/>
<path d="M316.848 93.2549C316.846 93.2572 316.846 93.2572 316.846 93.2572H156.808C157.694 81.176 156.36 72.4048 154.223 66.0953C170.578 69.0858 211.085 75.456 254.443 74.3827C282.491 73.6874 304.658 71.8152 319.844 70.1096C322.423 81.8735 316.952 93.0412 316.848 93.2549Z" fill="#D8E8FD"/>
<path d="M274.57 142.122H189.7C188.829 142.122 188.117 141.41 188.117 140.54V139.729C188.117 138.859 188.829 138.148 189.7 138.148H274.57C275.441 138.148 276.155 138.859 276.155 139.729V140.54C276.155 141.41 275.441 142.122 274.57 142.122Z" fill="#BBD5FC"/>
<path d="M241.723 148.808H189.367C188.68 148.808 188.117 148.246 188.117 147.559V146.082C188.117 145.395 188.68 144.833 189.367 144.833H241.723C242.41 144.833 242.972 145.395 242.972 146.082V147.559C242.972 148.246 242.41 148.808 241.723 148.808" fill="#BBD5FC"/>
<path d="M179.941 148.164V140.047H178.87C178.218 140.047 177.893 139.777 177.893 139.235C177.893 138.846 178.148 138.569 178.659 138.407C178.917 138.321 179.333 138.256 179.902 138.212C180.471 138.169 180.928 138.148 181.276 138.148C181.611 138.148 181.824 138.215 181.911 138.35C181.996 138.486 182.041 138.829 182.041 139.381V148.164H183.146C183.862 148.164 184.22 148.472 184.22 149.09C184.22 149.739 183.862 150.063 183.146 150.063H178.69C178.375 150.063 178.113 149.98 177.901 149.812C177.69 149.644 177.585 149.409 177.585 149.106C177.585 148.478 177.947 148.164 178.673 148.164H179.941Z" fill="#BBD5FC"/>
<path d="M274.57 183.972H189.7C188.829 183.972 188.117 183.262 188.117 182.39V181.581C188.117 180.711 188.829 179.999 189.7 179.999H274.57C275.441 179.999 276.155 180.711 276.155 181.581V182.39C276.155 183.262 275.441 183.972 274.57 183.972Z" fill="#D2E4FD"/>
<path d="M241.723 190.659H189.367C188.68 190.659 188.117 190.098 188.117 189.41V187.933C188.117 187.246 188.68 186.684 189.367 186.684H241.723C242.41 186.684 242.972 187.246 242.972 187.933V189.41C242.972 190.098 242.41 190.659 241.723 190.659" fill="#D2E4FD"/>
<path d="M184.387 189.848C184.387 190.389 184.009 190.659 183.251 190.659H178.539C177.858 190.659 177.517 190.387 177.517 189.842C177.517 189.668 177.608 189.468 177.79 189.239C178.059 188.933 178.452 188.472 178.969 187.861C179.755 186.876 180.411 186.025 180.938 185.306C181.121 185.069 181.379 184.705 181.714 184.216C181.991 183.729 182.13 183.318 182.13 182.983C182.13 182.609 182.01 182.301 181.772 182.058C181.532 181.814 181.226 181.692 180.852 181.692C180.487 181.692 180.171 181.806 179.902 182.035C179.72 182.19 179.577 182.475 179.472 182.896C179.337 183.441 179.252 183.757 179.213 183.844C179.07 184.15 178.834 184.303 178.51 184.303C178.222 184.303 177.997 184.197 177.833 183.987C177.68 183.805 177.603 183.565 177.603 183.27C177.603 182.936 177.655 182.595 177.761 182.252C177.992 181.515 178.398 180.951 178.983 180.558C179.538 180.185 180.214 179.999 181.009 179.999C181.882 179.999 182.61 180.263 183.193 180.79C183.798 181.345 184.1 182.054 184.1 182.915C184.1 183.557 183.884 184.218 183.452 184.9C183.214 185.273 182.72 185.934 181.973 186.882C181.59 187.372 180.986 188.08 180.163 189.009H183.266C184.013 189.009 184.387 189.288 184.387 189.848" fill="#D2E4FD"/>
<path d="M274.57 218.885H189.7C188.829 218.885 188.117 218.172 188.117 217.303V216.491C188.117 215.622 188.829 214.909 189.7 214.909H274.57C275.441 214.909 276.155 215.622 276.155 216.491V217.303C276.155 218.172 275.441 218.885 274.57 218.885Z" fill="#D2E4FD"/>
<path d="M241.723 225.57H189.367C188.68 225.57 188.117 225.008 188.117 224.323V222.844C188.117 222.158 188.68 221.596 189.367 221.596H241.723C242.41 221.596 242.972 222.158 242.972 222.844V224.323C242.972 225.008 242.41 225.57 241.723 225.57" fill="#D2E4FD"/>
<path d="M184.387 222.241C184.387 223.257 184.029 224.075 183.315 224.69C182.638 225.277 181.782 225.57 180.743 225.57C179.941 225.57 179.254 225.38 178.687 224.998C177.785 224.393 177.334 223.664 177.334 222.813C177.334 222.569 177.413 222.359 177.57 222.183C177.727 222.007 177.928 221.919 178.172 221.919C178.426 221.919 178.666 222.09 178.892 222.431C179.254 222.999 179.465 223.313 179.525 223.37C179.848 223.713 180.263 223.883 180.772 223.883C181.459 223.883 181.947 223.629 182.241 223.121C182.378 222.867 182.448 222.544 182.448 222.152C182.448 221.196 181.883 220.663 180.758 220.556C180.121 220.496 179.802 220.227 179.802 219.748C179.802 219.397 179.988 219.147 180.357 219C181.048 218.746 181.399 218.614 181.408 218.604C181.778 218.36 181.962 217.935 181.962 217.328C181.962 216.966 181.854 216.681 181.641 216.471C181.426 216.26 181.139 216.155 180.777 216.155C180.328 216.155 179.976 216.262 179.723 216.477C179.508 216.663 179.326 216.981 179.181 217.431C179.064 217.774 178.84 217.943 178.507 217.943C178.273 217.943 178.081 217.842 177.93 217.635C177.779 217.431 177.702 217.206 177.702 216.962C177.702 216.659 177.785 216.355 177.953 216.051C178.226 215.543 178.648 215.149 179.215 214.864C179.734 214.599 180.303 214.469 180.919 214.469C181.751 214.469 182.444 214.719 182.998 215.223C183.551 215.727 183.828 216.39 183.828 217.21C183.828 218.199 183.416 218.98 182.595 219.558C183.789 220.037 184.387 220.931 184.387 222.241" fill="#D2E4FD"/>
<path d="M264.685 107.332H211.814C210.91 107.332 210.169 106.595 210.169 105.69V104.358C210.169 103.456 210.91 102.716 211.814 102.716H264.685C265.589 102.716 266.33 103.456 266.33 104.358V105.69C266.33 106.595 265.589 107.332 264.685 107.332Z" fill="#BBD5FC"/>
<path d="M278.472 114.451H198.029C196.918 114.451 196.01 113.544 196.01 112.437V111.849C196.01 110.742 196.918 109.835 198.029 109.835H278.472C279.581 109.835 280.489 110.742 280.489 111.849V112.437C280.489 113.544 279.581 114.451 278.472 114.451" fill="#BBD5FC"/>
<path d="M232.05 163.55C214.614 163.55 198.07 161.366 185.739 158.244C173.277 155.091 166.565 149.937 166.565 145.365C166.565 141.221 172.035 137.41 182.383 134.344C172.466 137.283 167.162 141.598 167.162 145.365C167.162 149.545 174.038 153.683 186.025 156.716C198.316 159.827 214.659 161.54 232.05 161.54C249.437 161.54 265.784 159.827 278.073 156.716C290.06 153.683 296.934 149.545 296.934 145.365C296.934 140.938 289.696 135.436 278.042 131.008C264.792 125.971 248.458 124.102 232.05 124.102C201.243 124.102 188.563 127.691 177.558 132.191C188.609 127.672 201.134 122.552 232.05 122.552C248.523 122.552 264.927 125.337 278.241 130.397C290.14 134.921 297.532 140.656 297.532 145.365C297.532 149.937 290.669 154.191 278.21 157.345C265.877 160.466 249.483 163.55 232.05 163.55" fill="#C65447"/>
<path d="M337.918 204.348C337.918 204.348 337.342 209.92 336.713 210.973C336.083 212.028 333.403 215.395 332.259 216.055C331.117 216.716 332.956 211.619 332.726 210.626C332.491 209.635 331.784 212.437 331.282 212.503C330.776 212.569 330.906 210.046 330.889 209.129C330.87 208.21 333.337 205.944 334.209 203.991C335.078 202.037 337.918 204.348 337.918 204.348" fill="#FFB27D"/>
<path d="M269.348 152.963L268.065 150.547C268.065 150.547 268.702 146.242 263.298 143.518C263.298 143.518 261.323 142.716 260.208 144.324C259.181 145.805 262.165 145.537 262.005 148.071C261.844 150.604 263.05 152.091 264.726 152.916L266.112 154.519L269.348 152.963Z" fill="#FFB27D"/>
<path d="M320.417 147.187C320.417 147.187 315.776 169.922 290.239 177.353C282.268 179.672 264.158 153.472 264.158 153.472C264.158 153.472 264.793 151.057 268.783 151.612C268.783 151.612 286.417 163.265 288.637 164.531C290.607 165.655 303.563 150.091 309.465 147.581C315.372 145.071 320.417 147.187 320.417 147.187Z" fill="#E58638"/>
<path d="M276.177 146.352L275.453 151.058L251.738 147.422L252.462 142.716L276.177 146.352Z" fill="#C65447"/>
<path d="M246.587 144.223L251.738 147.422L252.462 142.716L246.587 144.223Z" fill="#FFB27D"/>
<path d="M278.695 148.336L278.465 149.824C278.325 150.739 277.466 151.367 276.55 151.226L275.453 151.058L276.177 146.352L277.371 146.535C278.234 146.667 278.827 147.474 278.695 148.336" fill="#FFB27D"/>
<path d="M350.903 290.119C350.903 290.119 354.071 293.003 353.454 295.054C352.837 297.105 349.977 298.472 349.59 300.977C349.206 303.485 347.659 304.852 346.268 304.852C344.877 304.852 339.636 304.852 339.636 304.852C339.636 304.852 338.612 303.088 341.085 302.557C343.558 302.024 344.491 299.079 344.336 296.345C344.182 293.611 344.569 289.966 344.569 289.966L349.82 288.751L350.903 290.119" fill="#233862"/>
<path d="M312.04 297.582C312.04 297.582 312.606 304.149 311.215 304.833L293.418 304.798C293.418 304.798 293.418 302.747 296.274 302.291C299.133 301.834 304.157 300.164 305.006 296.442C305.857 292.72 312.04 297.582 312.04 297.582Z" fill="#233862"/>
<path d="M297.011 204.8C297.011 204.8 297.951 216.313 299.053 230.152C300.553 248.952 302.356 272.046 302.534 276.42C302.844 284.018 304.08 296.169 304.08 296.169C304.08 296.169 307.016 299.055 312.89 297.838C312.89 297.838 318.122 280.492 319.62 262.139C319.643 261.839 319.665 261.536 319.688 261.232C321.08 242.548 323.242 203.206 323.242 203.206L297.011 204.8" fill="#2B478B"/>
<path d="M297.011 204.8C297.011 204.8 297.951 216.313 299.053 230.152L319.62 262.139C319.643 261.839 319.665 261.536 319.688 261.232C321.08 242.548 323.242 203.206 323.242 203.206L297.011 204.8" fill="#233862"/>
<path d="M301.297 206.167C301.297 206.167 318.221 247.864 329.348 267.459C340.472 287.055 343.95 292.522 343.95 292.522C343.95 292.522 350.326 290.017 350.904 288.307C350.904 288.307 346.649 250.479 339.199 241.257C334.988 236.047 330.042 220.409 329.809 214.94C329.579 209.471 328.303 198.648 328.303 198.648L301.297 206.167Z" fill="#2B478B"/>
<path d="M323.562 141.91C323.562 141.91 312.114 147.425 305.512 145.378C305.512 145.378 307.135 143.333 309.98 141.81C309.751 140.487 309.575 139.34 309.471 138.367C309.193 136.12 309.193 134.848 309.193 134.848L313.609 131.38L317.799 128.061C317.469 137.393 323.562 141.91 323.562 141.91Z" fill="#FFB27D"/>
<path d="M329.595 200.785C329.622 201.483 328.124 202.282 327.464 202.582C322.564 204.728 317.993 206.225 312.815 206.723C306.697 207.346 299.462 205.975 296.973 206.025C296.72 206.025 296.492 205.925 296.29 205.75C296.111 205.626 295.982 198.263 296.111 189.007C296.111 188.631 296.111 188.257 296.136 187.884V187.758C296.187 184.139 296.313 180.348 296.492 176.554C296.848 168.219 297.506 160.184 298.623 155.743C299.97 150.502 303.015 147.034 305.782 144.513L308.066 142.517C310.353 142.966 312.764 142.842 315.175 141.669C317.816 140.396 320.659 139.024 321.116 139.373C324.571 141.893 326.906 147.558 328.149 154.794C328.859 158.962 329.215 163.628 329.19 168.519C329.19 170.315 329.137 172.163 329.036 173.985C328.429 183.865 329.036 192.45 329.392 197.415C329.494 198.862 329.569 199.986 329.595 200.785" fill="#EE9849"/>
<path d="M329.393 200.331C289.301 200.25 321.999 156.9 321.999 156.9L328.495 154.794C329.007 159.247 329.265 164.232 329.246 169.458C329.246 171.376 329.212 173.351 329.136 175.296C328.695 185.853 329.136 195.025 329.393 200.331" fill="#E58638"/>
<path d="M317.874 131.63C317.874 131.63 314.98 136.895 309.47 138.367C309.191 136.121 309.191 134.849 309.191 134.849L313.608 131.38L317.874 131.63Z" fill="#ED985F"/>
<path d="M307.181 134.695C307.181 134.695 318.101 136.479 319.129 129.776C320.152 123.073 322.254 118.788 315.323 117.367C308.393 115.944 306.642 118.301 305.745 120.457C304.851 122.612 304.364 134.059 307.181 134.695Z" fill="#FFB27D"/>
<path d="M323.095 116.566C323.195 116.452 323.421 116.361 323.931 116.333C323.931 116.333 323.525 116.079 322.98 116.065C322.873 115.358 322.497 114.108 321.279 113.806C321.279 113.806 321.934 114.154 322.02 114.904C320.607 113.457 317.586 112.404 309.215 113.064C298.184 113.934 301.818 120.985 303.247 121.825C304.676 122.666 308.269 120.362 310.932 120.572C313.592 120.783 314.097 124.621 315.001 125.148C315.904 125.675 315.548 124.744 316.771 124.192C317.992 123.641 318.107 125.662 317.754 126.975C317.401 128.289 319.078 130.021 319.078 130.021C319.078 130.021 319.078 130.021 320.774 128.198C322.473 126.375 324.071 118.653 323.299 117.007C323.231 116.861 323.163 116.714 323.095 116.566" fill="#2C3A64"/>
<path d="M321.11 139.318C321.11 139.318 328.022 142.585 331.334 147.607C336.474 155.397 342.434 183.789 342.543 186.418C342.652 189.047 338.193 207.607 338.193 207.607C338.193 207.607 333.672 207.31 332.504 205.032C332.504 205.032 333.408 185.961 332.835 184.735C332.264 183.508 313.985 159.153 316.04 153.956C318.095 148.759 321.11 139.318 321.11 139.318" fill="#EE9849"/>
<path d="M268.043 150.432C268.043 150.432 268.417 148.95 267.387 148.284C266.359 147.618 265.411 145.807 264.977 146.052C264.077 146.56 265.469 148.141 265.215 150.113C265.126 150.803 266.735 152.612 268.043 150.432Z" fill="#FFB27D"/>
<path d="M280.559 259.08H182.15C181.49 259.08 180.952 258.543 180.952 257.884C180.952 257.228 181.49 256.691 182.15 256.691H280.559C281.216 256.691 281.756 257.228 281.756 257.884C281.756 258.543 281.216 259.08 280.559 259.08" fill="#D2E4FD"/>
<path d="M280.559 263.865H182.15C181.49 263.865 180.952 263.328 180.952 262.67C180.952 262.013 181.49 261.476 182.15 261.476H280.559C281.216 261.476 281.756 262.013 281.756 262.67C281.756 263.328 281.216 263.865 280.559 263.865Z" fill="#D2E4FD"/>
<path d="M280.559 269.169H182.15C181.49 269.169 180.952 268.632 180.952 267.973C180.952 267.316 181.49 266.777 182.15 266.777H280.559C281.216 266.777 281.756 267.316 281.756 267.973C281.756 268.632 281.216 269.169 280.559 269.169Z" fill="#D2E4FD"/>
<path d="M267.639 274.472H182.069C181.455 274.472 180.952 273.968 180.952 273.355V273.196C180.952 272.583 181.455 272.081 182.069 272.081H267.639C268.253 272.081 268.758 272.583 268.758 273.196V273.355C268.758 273.968 268.253 274.472 267.639 274.472Z" fill="#D2E4FD"/>
<path d="M488.548 305.684H0.533648C0.271879 305.684 0.0576172 305.471 0.0576172 305.209V305.12C0.0576172 304.86 0.271879 304.645 0.533648 304.645H488.548C488.81 304.645 489.023 304.86 489.023 305.12V305.209C489.023 305.471 488.81 305.684 488.548 305.684Z" fill="#1C468A"/>
</g>
<defs>
<clipPath id="clip0_0_39">
<rect width="489" height="319" fill="white"/>
</clipPath>
</defs>
</svg>
